SplineFontDB: 3.0
FontName: LinLibertineOB
FullName: Linux Libertine O Bold
FamilyName: Linux Libertine O
Weight: Bold
Copyright: Linux Libertine by Philipp H. Poll,\nOpen Font under Terms of following Free Software Licenses:\nGPL (General Public License) with font-exception and OFL (Open Font License).\nCreated with FontForge (http://fontforge.sf.net)\nSept 2003, 2004, 2005, 2006, 2007, 2008, 2009, 2010, 2011,2012
UComments: "2003-08-29: Created.+AAoA-2004-07-25: v(1.0) release candidate+AAoA-2005-12-28: v(1.1.0) stable+AAoA-2006-01-01: v(2.0.0) stable+AAoA-2006-09-05: v(2.2.0) stable+AAoA-2006-12-04: v(2.3.0) stable+AAoA-2007-03-11: v(2.4.0) stable+AAoA-2007-06-11: v(2.6.0) stable+AAoA-2007-12-00: v(2.7.0) stable+AAoA-2008-06-00: v(2.8.14) stable+AAoA" 
Version: 5.1.4
ItalicAngle: 0
UnderlinePosition: -98
UnderlineWidth: 40
Ascent: 754
Descent: 246
LayerCount: 2
Layer: 0 0 "Back"  1
Layer: 1 0 "Fore"  0
XUID: [1021 993 1524925707 4740893]
FSType: 0
OS2Version: 3
OS2_WeightWidthSlopeOnly: 0
OS2_UseTypoMetrics: 0
CreationTime: 1156455862
ModificationTime: 1341180391
PfmFamily: 17
TTFWeight: 700
TTFWidth: 5
LineGap: 0
VLineGap: 0
OS2TypoAscent: 894
OS2TypoAOffset: 0
OS2TypoDescent: -246
OS2TypoDOffset: 0
OS2TypoLinegap: 0
OS2WinAscent: 894
OS2WinAOffset: 0
OS2WinDescent: 246
OS2WinDOffset: 0
HheadAscent: 894
HheadAOffset: 0
HheadDescent: -246
HheadDOffset: 0
OS2FamilyClass: 261
OS2Vendor: 'PfEd'
Lookup: 3 0 0 "'aalt' Alle Alternativen zeigen"  {"LinLibertine-'aalt' Alle Alternativen zeigen 1"  } ['aalt' ('DFLT' <'dflt' > 'cyrl' <'dflt' > 'grek' <'dflt' > 'latn' <'AZE ' 'CRT ' 'DEU ' 'MOL ' 'ROM ' 'TRK ' 'dflt' > ) ]
Lookup: 1 0 0 "'locl' Localized Forms Romaenisch"  {"'locl' Localized Forms Romaenisch 1"  } ['locl' ('latn' <'MOL ' 'ROM ' > ) ]
Lookup: 1 0 0 "'smcp' Gemeine nach Kapitaelchen i > i.sc"  {"'smcp' Gemeine nach Kapitaelchen i > i.sc 1"  } ['smcp' ('DFLT' <'dflt' > 'cyrl' <'dflt' > 'grek' <'dflt' > 'latn' <'DEU ' 'MOL ' 'ROM ' 'dflt' > ) ]

StartChar: exclam
Encoding: 33 33 0
Width: 266
Flags: HW
HStem: -10 139<82 185> 638 20G<117.5 151.5>
VStem: 60 146<11.9591 106.904> 61 144<431.981 638.446> 103 58<188.926 423.897>
LayerCount: 2
Fore
SplineSet
133 658 m 0
 170 658 205 634 205 583 c 0
 205 548 197 510 191 477 c 0
 174.7 379.1 162 279 161 230 c 0
 160.6 211 156.1 188 133 188 c 0
 106.9 188 104 208 103 242 c 0
 101.7 289.7 87.8 409.6 75 480 c 0
 68 515 61 544 61 583 c 0
 61 639 102 658 133 658 c 0
60 58 m 0
 60 97 94 129 134 129 c 0
 174 129 206 99 206 60 c 0
 206 22 172 -10 132 -10 c 0
 92 -10 60 20 60 58 c 0
EndSplineSet
EndChar

StartChar: quotedbl
Encoding: 34 34 1
Width: 376
Flags: HW
HStem: 411 234
VStem: 63 110<492.66 631.224> 204 110<492.66 631.224>
LayerCount: 2
Fore
SplineSet
110 411 m 1
 95 415 l 1
 95 415 63 585 63 591 c 0
 63 614 85 645 128 645 c 0
 170 645 173 626 173 608 c 0
 173 593 136 417 136 417 c 1
 110 411 l 1
251 411 m 1
 236 415 l 1
 236 415 204 585 204 591 c 0
 204 614 226 645 269 645 c 0
 311 645 314 626 314 608 c 0
 314 593 277 417 277 417 c 1
 251 411 l 1
EndSplineSet
EndChar

StartChar: numbersign
Encoding: 35 35 2
Width: 514
Flags: HW
HStem: 187 66<37.5 127.5 192.5 280.5 341.5 451.5> 360 66<63.5 154.5 218.5 305.5 368.5 476.5> 579 20G<187.5 248.5 338.5 395.5>
DStem2: 99.5 14 154.5 14 0.158649 0.987335<8.72568 175.251 250.727 350.344 425.661 592.345> 251.5 14 304.5 14 0.155356 0.987859<8.23384 175.405 250.08 350.188 425.174 592.19>
LayerCount: 2
Fore
SplineSet
288.5 253 m 1
 305.5 360 l 1
 211.5 360 l 1
 205.5 323 198.5 290 192.5 253 c 1
 288.5 253 l 1
358.5 360 m 1
 341.5 253 l 1
 459.5 253 l 1
 451.5 187 l 1
 332.5 187 l 1
 322.5 127 314.5 72 304.5 14 c 1
 251.5 14 l 1
 280.5 187 l 1
 184.5 187 l 1
 173.5 127 165.5 72 154.5 14 c 1
 99.5 14 l 1
 127.5 187 l 1
 28.5 187 l 1
 37.5 253 l 1
 137.5 253 l 1
 143.5 290 149.5 323 154.5 360 c 1
 54.5 360 l 1
 63.5 426 l 1
 163.5 426 l 1
 173.5 484 182.5 541 192.5 599 c 1
 248.5 599 l 1
 218.5 426 l 1
 315.5 426 l 1
 325.5 484 333.5 541 343.5 599 c 1
 395.5 599 l 1
 368.5 426 l 1
 485.5 426 l 1
 476.5 360 l 1
 358.5 360 l 1
EndSplineSet
EndChar

StartChar: dollar
Encoding: 36 36 3
Width: 514
VWidth: 999
Flags: HMW
HStem: -8.9 40<267.328 318.701> 571.6 38.3<210.186 256.33 299.058 326.376>
VStem: 66 116<434.9 521.737> 350 117<91.8754 195>
DStem2: 219.555 -98.2666 260.5 -93.25 0.0548206 0.998496<3.21001 89.8972 131.799 317.025 491.345 669.301 710.014 792.677>
LayerCount: 2
Fore
SplineSet
246.5 392.3 m 1
 256.3 571.6 l 1
 214 567.6 182 537.4 182 489 c 0
 182 453.3 214.2 417.6 246.5 392.3 c 1
277.5 216.1 m 1
 267.3 31.1 l 1
 315.1 37 350 66.1 350 107 c 0
 350 152.4 315 187.8 277.5 216.1 c 1
423 585 m 1
 429 531 433 493 433 444 c 1
 423 436 400 435 387 439 c 1
 372.4 491.3 352 551.6 296.8 567.8 c 1
 285.7 366.3 l 1
 290 364 l 2
 326 345 383 317 419 277 c 0
 446 247 467 219 467 171 c 0
 467 114 436.9 70.1 404 41 c 0
 367.2 8.4 319.5 -7.8 265.1 -8.9 c 1
 260.5 -93.2 l 1
 253.2 -97.4 229.6 -98.3 219.6 -98.3 c 1
 224.5 -8.5 l 1
 130.1 -5.6 123.7 9 76 9 c 1
 66 43 58 92 58 162 c 1
 73 166 88 171 104 165 c 1
 120.7 91.1 172.3 42.7 226.7 32.2 c 1
 238.2 242.3 l 1
 195.3 267.3 132.9 297.4 97 345 c 0
 76 373 66 414 66 450 c 0
 66 495 91 538 126 566 c 0
 162.4 594.9 217.1 608.3 258.4 609.9 c 1
 262.8 689.5 l 1
 272 693 291 694.5 303.8 694.5 c 1
 299.1 609 l 1
 358.9 605.2 379 591 423 585 c 1
EndSplineSet
EndChar

StartChar: percent
Encoding: 37 37 4
Width: 637
VWidth: 999
Flags: HW
HStem: -19 39<464.6 519.99> 214 36<494.292 553.315> 297 39<145.6 200.99> 474 45<285.497 457.718> 530 36<175.292 234.315>
VStem: 51 93<336.471 492.517> 243 42<385.167 510.902> 370 93<20.4706 176.517> 562 42<69.1669 208.803>
DStem2: 96 -4 150 -16 0.588938 0.808178<22.1045 620.449 651.051 709.262>
LayerCount: 2
Fore
SplineSet
463 53 m 0
 463 39.7 466 20 483 20 c 0
 503.7 20 523.4 36.7 537 60 c 0
 553.6 88.4 562 126.8 562 157 c 0
 562 209 537 214 523 214 c 0
 503.1 214 484.7 191.7 475 162 c 0
 463.8 127.7 463 83.6 463 53 c 0
370 91 m 0
 370 171 423 250 512 250 c 0
 560 250 604 231 604 159 c 0
 604 60 550 -19 471 -19 c 0
 438.7 -19 409.7 -10.5 393 11 c 0
 379 29 370 54 370 91 c 0
144 369 m 0
 144 355.7 147 336 164 336 c 0
 184.7 336 204.4 352.7 218 376 c 0
 234.6 404.4 243 442.8 243 473 c 0
 243 525 218 530 204 530 c 0
 184.1 530 165.7 507.7 156 478 c 0
 144.8 443.7 144 399.6 144 369 c 0
51 407 m 0
 51 487 104 566 193 566 c 0
 219 566 243.8 560.4 261.1 543.9 c 1
 302.9 542.4 346.6 519 364 519 c 0
 406 519 473 525 514 569 c 1
 561 548 l 1
 150 -16 l 1
 96 -4 l 1
 462 497 l 1
 423 481 384 474 354 474 c 0
 332.5 474 303.3 482.7 284 492.8 c 1
 284.7 487.3 285 481.3 285 475 c 0
 285 376 231 297 152 297 c 0
 119.7 297 90.7 305.5 74 327 c 0
 60 345 51 370 51 407 c 0
EndSplineSet
EndChar

StartChar: parenleft
Encoding: 40 40 5
Width: 315
Flags: HW
HStem: -213 21G<154.5 286.75>
VStem: 36 115<108.014 396.52>
LayerCount: 2
Fore
SplineSet
36 253 m 0
 36 435 139 607 270 720 c 1
 298 686 l 1
 268 651 151 517 151 253 c 0
 151 -11 266 -145 298 -181 c 1
 268 -213 l 1
 41 -17 36 208 36 253 c 0
EndSplineSet
Substitution2: "LinLibertine-'case' Versalformen 1" parenleft.sc
Substitution2: "LinLibertine-'c2sc' Versale nach Kapitaelchen 1" parenleft.sc
Substitution2: "LinLibertine-'sinf' Wissenschaftliche Indices 1" parenleft.inferior
Substitution2: "LinLibertine-'sups' Hochgestellte 1" parenleft.superior
AlternateSubs2: "LinLibertine-'aalt' Alle Alternativen zeigen 1" parenleft.sc
EndChar

StartChar: parenright
Encoding: 41 41 6
Width: 315
VWidth: 999
Flags: HW
HStem: 696 21<28.25 160.5>
VStem: 164 115<107.48 395.986>
LayerCount: 2
Fore
SplineSet
279 251 m 0
 279 69 176 -103 45 -216 c 1
 17 -182 l 1
 47 -147 164 -13 164 251 c 0
 164 515 49 649 17 685 c 1
 47 717 l 1
 274 521 279 296 279 251 c 0
EndSplineSet
Substitution2: "LinLibertine-'case' Versalformen 1" parenright.sc
Substitution2: "LinLibertine-'c2sc' Versale nach Kapitaelchen 1" parenright.sc
Substitution2: "LinLibertine-'sinf' Wissenschaftliche Indices 1" parenright.inferior
Substitution2: "LinLibertine-'sups' Hochgestellte 1" parenright.superior
AlternateSubs2: "LinLibertine-'aalt' Alle Alternativen zeigen 1" parenright.sc
EndChar

StartChar: asterisk
Encoding: 42 42 7
Width: 433
VWidth: 999
Flags: HW
HStem: 571 69<77.0607 155.725 271.439 350.068>
VStem: 114 99<486.481 523.5> 173 78<621.002 713.184>
LayerCount: 2
Fore
SplineSet
197 566 m 1
 184 568 171 573 156 571 c 0
 111 563 75 563 75 608 c 0
 75 622 84 640 108 640 c 0
 142 640 159 607 203 588 c 1
 199 628 173 653 173 679 c 0
 173 700 193 718 211 718 c 0
 229 718 251 707 251 683 c 0
 251 656 228 618 226 588 c 1
 271 607 282 642 315 642 c 0
 346 642 354 618 354 608 c 0
 354 578 320 568 285 568 c 0
 266 568 249 568 231 565 c 1
 265 529 316 531 316 480 c 0
 316 462 298 451 284 451 c 0
 235 451 238 513 213 552 c 1
 188 507 202 451 143 451 c 0
 126 451 114 464 114 479 c 0
 114 533 164 528 197 566 c 1
EndSplineSet
EndChar

StartChar: plus
Encoding: 43 43 8
Width: 537
Flags: HW
HStem: 195 74<61 232 306 477> 413 20G<232 306>
VStem: 232 74<32 195 269 433>
LayerCount: 2
Fore
SplineSet
306 269 m 1
 477 269 l 1
 477 195 l 1
 306 195 l 1
 306 32 l 1
 232 32 l 1
 232 195 l 1
 61 195 l 1
 61 269 l 1
 232 269 l 1
 232 433 l 1
 306 433 l 1
 306 269 l 1
EndSplineSet
Substitution2: "LinLibertine-'sinf' Wissenschaftliche Indices 1" plus.inferior
Substitution2: "LinLibertine-'sups' Hochgestellte 1" plus.superior
AlternateSubs2: "LinLibertine-'aalt' Alle Alternativen zeigen 1" plus.superior plus.inferior uni2098
EndChar

StartChar: slash
Encoding: 47 47 9
Width: 316
Flags: HW
VStem: 2 300
DStem2: 2 -21 65 -21 0.319461 0.947599<20.126 741.875>
LayerCount: 2
Fore
SplineSet
302 682 m 1
 65 -21 l 1
 2 -21 l 1
 239 682 l 1
 302 682 l 1
EndSplineSet
Ligature2: "LinLibertine-'frac' Brueche 1" uni2215
AlternateSubs2: "LinLibertine-'aalt' Alle Alternativen zeigen 1" uni2215
EndChar

StartChar: one
Encoding: 49 49 10
Width: 514
Flags: HW
HStem: -2 34<128.617 207.874 396.126 475.383> 590 20G<353 362.5>
VStem: 237 130<54.7283 488.997>
LayerCount: 2
Fore
SplineSet
367 122 m 2
 367 39 415 35 470 32 c 1
 480 26 480 4 470 -2 c 1
 388 -1 343 0 303 0 c 0
 263 0 134 -2 134 -2 c 1
 124 4 124 26 134 32 c 1
 189 35 237 39 237 122 c 2
 237 435 l 2
 237 485 231 489 218 489 c 0
 204 489 168 487 114 464 c 1
 100 474 92.8 490.4 92 507 c 1
 179 543 247 567 308 595 c 0
 331 606 348 610 358 610 c 0
 367 610 375 606 375 593 c 2
 375 593 367 536 367 483 c 2
 367 122 l 2
EndSplineSet
Substitution2: "LinLibertine-'onum' Minuskelziffern 1" one.taboldstyle
Substitution2: "LinLibertine-'pnum' Proportionalziffern 1" one.fitted
Substitution2: "LinLibertine-'sinf' Wissenschaftliche Indices 1" one.inferior
Substitution2: "LinLibertine-'sups' Hochgestellte 1" one.superior
AlternateSubs2: "LinLibertine-'aalt' Alle Alternativen zeigen 1" one.oldstyle one.superior one.fitted
EndChar

StartChar: two
Encoding: 50 50 11
Width: 514
Flags: HW
HStem: 0 79<189 374.152> 569 41<188.054 284.224>
VStem: 50 106<433.121 518.364> 325 128<362.135 526.832> 415 45<125.321 166.906>
DStem2: 183 205 235.175 168 0.723935 0.689868<-64.2924 204.058>
LayerCount: 2
Fore
SplineSet
50 454 m 0
 50 516 119 610 262 610 c 0
 321.3 610 374.4 590.4 410 556.4 c 0
 438.7 529 453 492.3 453 449 c 0
 453 355.9 413.2 331.5 294 222 c 2
 235.2 168 l 2
 202.3 137.8 192 111 189 79 c 1
 319 79 l 2
 364 79 393 106 415 174 c 1
 438 174 447 170 460 164 c 1
 453 107 441 38 429 0 c 1
 43 0 l 1
 39 32 l 1
 42 59 59.1 86.9 183 205 c 2
 268 286 l 2
 320.8 336.3 325 379 325 446 c 0
 325 481 313.8 514.7 298.6 534 c 0
 280.4 557.1 260 569 239 569 c 0
 190.8 569 156 523 156 500 c 0
 156 489 159 481 162 474 c 0
 165 465 167 458 167 453 c 0
 167 422 138 400 109 400 c 0
 73 400 50 429 50 454 c 0
EndSplineSet
Substitution2: "LinLibertine-'onum' Minuskelziffern 1" two.taboldstyle
Substitution2: "LinLibertine-'pnum' Proportionalziffern 1" two.fitted
Substitution2: "LinLibertine-'sinf' Wissenschaftliche Indices 1" two.inferior
Substitution2: "LinLibertine-'sups' Hochgestellte 1" two.superior
AlternateSubs2: "LinLibertine-'aalt' Alle Alternativen zeigen 1" two.oldstyle two.superior two.fitted
EndChar

StartChar: three
Encoding: 51 51 12
Width: 514
Flags: HW
HStem: -10 42<179.66 290.732> 299 40<157.581 212.299> 568 42<181.591 297.226>
VStem: 61 100<460.229 539.279> 310.9 118.1<429.848 555.444> 338 129<128.207 260.312>
LayerCount: 2
Fore
SplineSet
248 568 m 0
 214 568 172.4 564.9 161 504 c 0
 155 472 143 449 99 449 c 0
 66 449 61 472 61 486 c 0
 61 499 67.5 526.3 89 546 c 0
 120.6 575 162.6 610 267 610 c 0
 405 610 429 543 429 499 c 0
 429 460 410.8 429.4 386.6 402 c 0
 371.6 385 351.6 371 336 363 c 1
 420 357 467 294 467 222 c 0
 467 165 446 119 416 83 c 0
 366 23 286 -10 217 -10 c 0
 168 -10 115 3 79 21 c 0
 57 32 46 47 46 68 c 0
 46 85 64 111 95 111 c 0
 132 111 149 89 160 74 c 0
 173 57 194 32 233 32 c 0
 270 32 338 57 338 172 c 0
 338 292 265 307 213 307 c 0
 198 307 186 305 165 299 c 1
 159 306 157 318 157 328 c 0
 157 332 157 335 158 339 c 1
 250.5 359.9 310.9 421 310.9 497.1 c 0
 310.9 543.7 290.2 568 248 568 c 0
EndSplineSet
Substitution2: "LinLibertine-'onum' Minuskelziffern 1" three.taboldstyle
Substitution2: "LinLibertine-'pnum' Proportionalziffern 1" three.fitted
Substitution2: "LinLibertine-'sinf' Wissenschaftliche Indices 1" three.inferior
Substitution2: "LinLibertine-'sups' Hochgestellte 1" three.superior
AlternateSubs2: "LinLibertine-'aalt' Alle Alternativen zeigen 1" three.oldstyle three.superior three.fitted
EndChar

StartChar: four
Encoding: 52 52 13
Width: 514
Flags: HW
HStem: -2 34<162.617 236.64 409.36 483.383> 162 47<77.76 261 385 495.734> 590 20G<256.75 385>
VStem: 261 124<50.5764 162 209 500.976>
LayerCount: 2
Fore
SplineSet
261 501 m 1
 208 429 127 292.5 77 209 c 1
 261 209 l 1
 261 501 l 1
483 209 m 2
 494 209 498 203 498 193 c 0
 498 181 483 162 469 162 c 2
 385 162 l 1
 385 122 l 2
 385 39 423 35 478 32 c 1
 488 26 488 4 478 -2 c 1
 396 -1 364 0 324 0 c 0
 284 0 168 -2 168 -2 c 1
 158 4 158 26 168 32 c 1
 223 35 261 39 261 122 c 2
 261 162 l 1
 84 162 l 2
 60 162 56 164 51 169 c 2
 36 187 l 1
 30 198 22 206 22 210 c 0
 22 213 26.6 219.5 29 223 c 0
 111.5 346.5 218.5 519 295 610 c 1
 385 610 l 1
 385 209 l 1
 483 209 l 2
EndSplineSet
Substitution2: "LinLibertine-'onum' Minuskelziffern 1" four.taboldstyle
Substitution2: "LinLibertine-'pnum' Proportionalziffern 1" four.fitted
Substitution2: "LinLibertine-'sinf' Wissenschaftliche Indices 1" four.inferior
Substitution2: "LinLibertine-'sups' Hochgestellte 1" four.superior
AlternateSubs2: "LinLibertine-'aalt' Alle Alternativen zeigen 1" four.oldstyle four.superior four.fitted
EndChar

StartChar: five
Encoding: 53 53 14
Width: 514
Flags: HW
HStem: -10 44<195.942 282.402> 338 56<151.952 286.102> 508 92<169.148 424.888> 514 99<166.618 254.085 258.796 313.01 316.675 430>
VStem: 323 136<118.328 295.998>
LayerCount: 2
Fore
SplineSet
323 188 m 0
 323 288 287 338 240 338 c 0
 190 338 172 331 99 304 c 1
 86.2 312 l 1
 126 610 l 1
 183 606 215 600 256 600 c 0
 316 600 353 606 426 613 c 1
 449 600 l 1
 430 514 l 1
 369 510 351 508 315 508 c 0
 273 508 202 510 170 513 c 1
 164 481 158 433 151 381 c 1
 175 387 238 394 269 394 c 0
 387 394 459 319 459 219 c 0
 459 99 372 -10 239 -10 c 0
 191.2 -10 130.7 -2.5 92 18 c 0
 66.8 31.3 52 53.6 52 71 c 0
 52 93 67 118 103 118 c 0
 140 118 165 99 178 79 c 0
 194 54 213 34 233 34 c 0
 288 34 323 90 323 188 c 0
EndSplineSet
Substitution2: "LinLibertine-'onum' Minuskelziffern 1" five.taboldstyle
Substitution2: "LinLibertine-'pnum' Proportionalziffern 1" five.fitted
Substitution2: "LinLibertine-'sinf' Wissenschaftliche Indices 1" five.inferior
Substitution2: "LinLibertine-'sups' Hochgestellte 1" five.superior
AlternateSubs2: "LinLibertine-'aalt' Alle Alternativen zeigen 1" five.oldstyle five.superior five.fitted
EndChar

StartChar: six
Encoding: 54 54 15
Width: 514
Flags: HW
HStem: -10 39<224.347 310.848> 315 50<204.23 295.75> 569 41<339.203 447.96>
VStem: 44 126<115.719 300.126> 343 134<109.662 262.764>
LayerCount: 2
Fore
SplineSet
171 289 m 1
 170 278 170 253 170 242 c 0
 170 68 225 29 275 29 c 0
 311 29 343 78 343 186 c 0
 343 245.5 303 315 245 315 c 0
 227 315 209.5 312.5 171 289 c 1
450 569 m 1
 393 566 324 557 265 509 c 0
 217.9 470.7 184 402.5 176.5 330.5 c 1
 212.5 349.5 255 362 279 365 c 1
 442.5 361.5 477 253 477 204 c 0
 477 115.5 419 -10 263 -10 c 0
 162 -10 44 32 44 246 c 0
 44 342 75.7 447.2 152 513 c 0
 228 578.5 303 605.5 444 610 c 1
 451.8 600.4 453.1 581.2 450 569 c 1
EndSplineSet
Substitution2: "LinLibertine-'onum' Minuskelziffern 1" six.taboldstyle
Substitution2: "LinLibertine-'pnum' Proportionalziffern 1" six.fitted
Substitution2: "LinLibertine-'sinf' Wissenschaftliche Indices 1" six.inferior
Substitution2: "LinLibertine-'sups' Hochgestellte 1" six.superior
AlternateSubs2: "LinLibertine-'aalt' Alle Alternativen zeigen 1" six.oldstyle six.superior six.fitted
EndChar

StartChar: seven
Encoding: 55 55 16
Width: 514
Flags: HW
HStem: -12 21G<121 229> 498 102<126.882 378.94>
VStem: 60 35<413.4 453.601>
LayerCount: 2
Fore
SplineSet
184 498 m 2
 151 498 117 491 95 411 c 1
 60 414 l 1
 68 466 79 563 80 611 c 0
 80 614 81 614 84 614 c 0
 102 610 104 600 138 600 c 2
 473 600 l 1
 479 591 l 1
 350 319 296 169 229 -2 c 1
 127 -12 l 1
 121 0 l 1
 199 143.8 312.8 361.9 378.9 498 c 1
 184 498 l 2
EndSplineSet
Substitution2: "LinLibertine-'onum' Minuskelziffern 1" seven.taboldstyle
Substitution2: "LinLibertine-'pnum' Proportionalziffern 1" seven.fitted
Substitution2: "LinLibertine-'sinf' Wissenschaftliche Indices 1" seven.inferior
Substitution2: "LinLibertine-'sups' Hochgestellte 1" seven.superior
AlternateSubs2: "LinLibertine-'aalt' Alle Alternativen zeigen 1" seven.oldstyle seven.superior seven.fitted
EndChar

StartChar: nine
Encoding: 57 57 17
Width: 514
VWidth: 487
Flags: HW
HStem: -10 41<74.04 182.797> 235 50<226.25 317.77> 571 39<211.152 297.653>
VStem: 45 134<337.236 490.338> 352 126<299.874 484.281>
LayerCount: 2
Fore
SplineSet
351 311 m 1
 352 322 352 347 352 358 c 0
 352 532 297 571 247 571 c 0
 211 571 179 522 179 414 c 0
 179 354.5 219 285 277 285 c 0
 295 285 312.5 287.5 351 311 c 1
72 31 m 1
 129 34 198 43 257 91 c 0
 304.1 129.3 338 197.5 345.5 269.5 c 1
 309.5 250.5 267 238 243 235 c 1
 79.5 238.5 45 347 45 396 c 0
 45 484.5 103 610 259 610 c 0
 360 610 478 568 478 354 c 0
 478 258 446.3 152.8 370 87 c 0
 294 21.5 219 -5.5 78 -10 c 1
 70.2 -0.4 68.9 18.8 72 31 c 1
EndSplineSet
Substitution2: "LinLibertine-'onum' Minuskelziffern 1" nine.taboldstyle
Substitution2: "LinLibertine-'pnum' Proportionalziffern 1" nine.fitted
Substitution2: "LinLibertine-'sinf' Wissenschaftliche Indices 1" nine.inferior
Substitution2: "LinLibertine-'sups' Hochgestellte 1" nine.superior
AlternateSubs2: "LinLibertine-'aalt' Alle Alternativen zeigen 1" nine.oldstyle nine.superior nine.fitted
EndChar

StartChar: colon
Encoding: 58 58 18
Width: 256
VWidth: 999
Flags: HW
HStem: 0 139<82 185> 295 139<82 185>
VStem: 60 146<21.9591 116.904 316.959 411.904>
LayerCount: 2
Fore
SplineSet
60 363 m 0
 60 402 94 434 134 434 c 0
 174 434 206 404 206 365 c 0
 206 327 172 295 132 295 c 0
 92 295 60 325 60 363 c 0
60 68 m 0
 60 107 94 139 134 139 c 0
 174 139 206 109 206 70 c 0
 206 32 172 0 132 0 c 0
 92 0 60 30 60 68 c 0
EndSplineSet
EndChar

StartChar: less
Encoding: 60 60 19
Width: 512
Flags: HW
DStem2: 42 262 153 240 0.939793 0.341743<96.7987 435.295> 153 240 42 218 0.939793 -0.341743<0 338.496>
LayerCount: 2
Fore
SplineSet
153 240 m 1
 471 124 l 1
 471 62 l 1
 42 218 l 1
 42 262 l 1
 471 418 l 1
 471 356 l 1
 153 240 l 1
EndSplineSet
EndChar

StartChar: equal
Encoding: 61 61 20
Width: 551
Flags: HW
HStem: 142 56<59 493> 266 57<59 493>
LayerCount: 2
Fore
SplineSet
493 198 m 1
 493 142 l 1
 59 142 l 1
 59 198 l 1
 493 198 l 1
493 323 m 1
 493 266 l 1
 59 266 l 1
 59 323 l 1
 493 323 l 1
EndSplineSet
Substitution2: "LinLibertine-'sinf' Wissenschaftliche Indices 1" equal.inferior
Substitution2: "LinLibertine-'sups' Hochgestellte 1" equal.superior
AlternateSubs2: "LinLibertine-'aalt' Alle Alternativen zeigen 1" equal.superior
EndChar

StartChar: greater
Encoding: 62 62 21
Width: 512
Flags: HW
DStem2: 42 416 42 354 0.939088 -0.343676<21.3079 358.865> 42 122 42 60 0.940496 0.339806<0 337.555>
LayerCount: 2
Fore
SplineSet
359 238 m 1
 42 354 l 1
 42 416 l 1
 471 259 l 1
 471 215 l 1
 42 60 l 1
 42 122 l 1
 359 238 l 1
EndSplineSet
EndChar

StartChar: question
Encoding: 63 63 22
Width: 430
Flags: HW
HStem: -10 139<143 246> 622 36<147.137 252.31>
VStem: 26 101<502.614 588.742> 121 146<11.9591 106.904> 160 65<182.871 308> 286 115<434.339 583.679>
LayerCount: 2
Fore
SplineSet
127 570 m 0
 127 549 136 543 136 516 c 0
 136 491 113 475 83 475 c 0
 59 475 26 495 26 533 c 0
 26 568 45 591 79 619 c 0
 109 644 155 658 216 658 c 0
 330 658 401 597 401 505 c 0
 401 431 338 385 288 348 c 0
 260 328 225 301 225 229 c 2
 225 216 l 2
 225 191 220.5 182 192 182 c 0
 165.5 182 160 194 160 216 c 2
 160 231 l 2
 160 272 160 329 231 394 c 0
 266 425 286 462 286 512 c 0
 286 570 262.1 622 206 622 c 0
 162 622 127 598 127 570 c 0
121 58 m 0
 121 97 155 129 195 129 c 0
 235 129 267 99 267 60 c 0
 267 22 233 -10 193 -10 c 0
 153 -10 121 20 121 58 c 0
EndSplineSet
EndChar

StartChar: at
Encoding: 64 64 23
Width: 988
Flags: HMW
HStem: -160 39<407.274 632.859> 24 42<411.003 490.994 622.002 711.275> 381 34<502.903 579.761> 584 37<401.936 597.238>
VStem: 92 94<102.389 345.27> 297 117<85.0796 246.981> 805 85<185.855 389.903>
DStem2: 557 193 653 146 0.227108 0.97387<-90.6812 129.136>
LayerCount: 2
Fore
SplineSet
586 320 m 0
 586 355 582 381 557 381 c 0
 543 381 511 381 476 343 c 0
 431 295 414 227 414 164 c 0
 414 117 423 72 470 72 c 0
 500 72 530 107 557 193 c 0
 567 226 586 296 586 320 c 0
640 80 m 0
 640 67 647 66 658 66 c 0
 695 66 805 129 805 273 c 0
 805 494 621 584 504 584 c 0
 349 584 186 459 186 228 c 0
 186 80 277 -121 521 -121 c 0
 598 -121 669 -97 731 -46 c 1
 752 -75 l 1
 688 -124 625 -160 502 -160 c 0
 265 -160 92 -7 92 221 c 0
 92 428 260 621 513 621 c 0
 739 621 890 476 890 287 c 0
 890 147 772 24 638 24 c 0
 606 24 573 27 560 39 c 0
 545.4 52.5 540 67 540 86 c 1
 507 44 458 26 434 26 c 0
 388.2 26 358.4 34.7 336 54 c 0
 307 79 297 122 297 158 c 0
 297 286 439 415 554 415 c 0
 602 415 631 398 648 377 c 1
 685 410 l 1
 712 399 l 1
 653 146 l 2
 647 120 640 91 640 80 c 0
EndSplineSet
EndChar

StartChar: A
Encoding: 65 65 24
Width: 740
VWidth: 999
Flags: HW
HStem: -2 34<3.77002 69.5762 167.992 237.23 421.77 500.035 664.842 733.23> 235 48<250.587 425> 638 20G<426.5 441.203>
DStem2: 106.983 102 165 79 0.390001 0.920814<-25.5008 179.412 231.412 451.365> 323.835 614 336.175 520 0.390001 0.920814<-540.408 -382.79 -329.399 -81.7439> 434 658 343.096 520 0.338836 -0.940845<99.0351 349.768 401.027 600.306>
AnchorPoint: "unten_punkt" 308 -110 basechar 0
AnchorPoint: "unten_anhang" 116 5 basechar 0
AnchorPoint: "top_akzent" 354 850 basechar 0
LayerCount: 2
Fore
SplineSet
273 283 m 2
 425 283 l 1
 343.1 520 l 1
 336.2 520 l 1
 247.8 296.3 l 2
 244 286 251 283 273 283 c 2
165 79 m 2
 149 38 196.4 34.6 234 32 c 1
 240 26 240 4 234 -2 c 1
 197 -1 142 0 101 0 c 0
 62 0 44 -1 7 -2 c 1
 1 4 1 26 7 32 c 1
 50.5 35 81 40 107 102 c 2
 323.8 614 l 1
 359 614 419 649 434 658 c 1
 640 86 l 2
 658 35 691.2 35.5 730 32 c 1
 736 26 736 4 730 -2 c 1
 693 -1 637 0 596 0 c 0
 557 0 462 -1 425 -2 c 1
 419 4 419 26 425 32 c 1
 472.6 35.4 513 31 499 72 c 2
 443 235 l 1
 253 235 l 2
 229 235 223 231 218 218 c 2
 165 79 l 2
EndSplineSet
Substitution2: "LinLibertine-'c2sc' Versale nach Kapitaelchen 1" a.sc
Position2: "'cpsp' Versalabstaende 1" dx=2 dy=0 dh=5 dv=0
EndChar

StartChar: B
Encoding: 66 66 25
Width: 654
Flags: HW
HStem: -2 42<245.223 398.568> -2 34<13.6167 82.4056> 334 42<242 372.404> 605 42<245.143 375.483> 613 34<13.6167 82.4056>
VStem: 102 140<47 334 376 598> 414 140<424.816 568.13> 461 147<100.315 274.622>
AnchorPoint: "unten_punkt" 268 -110 basechar 0
AnchorPoint: "unten_anhang" 250 0 basechar 0
AnchorPoint: "mittelpunkt" 146 185 basechar 0
AnchorPoint: "top_akzent" 267 850 basechar 0
AnchorPoint: "top_rechts" 509 732 basechar 0
LayerCount: 2
Fore
SplineSet
242 562 m 2
 242 376 l 1
 298 376 l 2
 369 376 414 409 414 489 c 0
 414 587 358 605 312 605 c 0
 247 605 242 591 242 562 c 2
242 334 m 1
 242 84 l 2
 242 55 248 40 308 40 c 0
 440 40 461 127 461 187 c 0
 461 273 416 334 313 334 c 2
 242 334 l 1
173 645 m 0
 204.7 645 265 647 315 647 c 0
 516.8 647 554 560 554 491 c 0
 554 440 512 385 458 361 c 1
 458 359 l 1
 564 331 608 274 608 186 c 0
 608 84 542 -2 337 -2 c 0
 277 -2 213 0 173 0 c 0
 133 0 19 -2 19 -2 c 1
 9 4 9 26 19 32 c 1
 74 35 102 39 102 122 c 2
 102 523 l 2
 102 606 74 610 19 613 c 1
 9 619 9 641 19 647 c 1
 19 647 133 645 173 645 c 0
EndSplineSet
Substitution2: "LinLibertine-'c2sc' Versale nach Kapitaelchen 1" b.sc
Position2: "'cpsp' Versalabstaende 1" dx=2 dy=0 dh=5 dv=0
EndChar

StartChar: C
Encoding: 67 67 26
Width: 706
VWidth: 999
Flags: HW
HStem: -10 52<319.411 502.57> 617 41<309.587 488.187>
VStem: 37 151<207.875 440.344> 596 43<455.199 507.556>
AnchorPoint: "unten_punkt" 363 -110 basechar 0
AnchorPoint: "unten_anhang" 356 -7 basechar 0
AnchorPoint: "mittelpunkt" 346 315 basechar 0
AnchorPoint: "top_akzent" 340 850 basechar 0
AnchorPoint: "top_rechts" 609 732 basechar 0
LayerCount: 2
Fore
SplineSet
397 -10 m 0
 300 -10 222 7 158 53 c 0
 77.8 110.7 37 221.1 37 315 c 0
 37 535.2 202 658 398 658 c 0
 521 658 566 618 617 613 c 1
 626 558 634 510 639 458 c 1
 627.7 452 608 449 596 453 c 1
 570 539 525 617 387 617 c 0
 268 617 188 489.4 188 334 c 0
 188 178 280 42 396 42 c 0
 466 42 547 68 618 146 c 1
 629 146 646 134 651 125 c 1
 583 36 494 -10 397 -10 c 0
EndSplineSet
Substitution2: "LinLibertine-'c2sc' Versale nach Kapitaelchen 1" c.sc
Position2: "'cpsp' Versalabstaende 1" dx=2 dy=0 dh=5 dv=0
EndChar

StartChar: D
Encoding: 68 68 27
Width: 734
Flags: HW
HStem: -2 42<269.225 426.596> -2 34<25.6167 94.4056> 604 42<268.527 415.668> 613 34<25.6167 94.4056>
VStem: 114 140<54.7283 590.272> 535 151<175.935 431.978>
AnchorPoint: "unten_punkt" 279 -110 basechar 0
AnchorPoint: "unten_anhang" 279 4 basechar 0
AnchorPoint: "mittelpunkt" 346 315 basechar 0
AnchorPoint: "top_akzent" 306 850 basechar 0
AnchorPoint: "top_rechts" 619 732 basechar 0
LayerCount: 2
Fore
SplineSet
254 119 m 2
 254 52 280 40 350 40 c 0
 426 40 535 102 535 284 c 0
 535 435 513 604 316 604 c 0
 280 604 254 584 254 529 c 2
 254 119 l 2
185 0 m 0
 145 0 31 -2 31 -2 c 1
 21 4 21 26 31 32 c 1
 86 35 114 39 114 122 c 2
 114 523 l 2
 114 606 86 610 31 613 c 1
 21 619 21 641 31 647 c 1
 31 647 145 645 185 645 c 0
 225 645 267 646 320 646 c 0
 566 646 686 494 686 309 c 0
 686 207.4 653 124 605 82 c 0
 534.3 20.2 434.5 -2 347 -2 c 0
 307 -2 225 0 185 0 c 0
EndSplineSet
Substitution2: "LinLibertine-'c2sc' Versale nach Kapitaelchen 1" d.sc
Position2: "'cpsp' Versalabstaende 1" dx=2 dy=0 dh=5 dv=0
EndChar

StartChar: E
Encoding: 69 69 28
Width: 609
VWidth: 999
Flags: HMW
HStem: -2 34<11.77 85.9433> 0 42<249.172 454.205> 319 46<242 399.554> 603 42<249.747 438.219> 613 34<12.2578 85.9433>
VStem: 102 140<48.1312 319 365 596.345> 414 43<252.086 303.875 376.375 431.914> 525 45<116.761 167.944>
AnchorPoint: "unten_punkt" 284 -110 basechar 0
AnchorPoint: "unten_anhang" 284 4 basechar 0
AnchorPoint: "top_akzent" 278 850 basechar 0
AnchorPoint: "top_rechts" 524 732 basechar 0
LayerCount: 2
Fore
SplineSet
323 365 m 2
 390 365 411 374 414 429 c 1
 420 435 451 435 457 429 c 1
 456 399 455 376.5 455 343 c 0
 455 308.7 456 290 457 255 c 1
 451 249 420 249 414 255 c 1
 411 300 392 319 323 319 c 2
 242 319 l 1
 242 90 l 2
 242 63 261 42 283 42 c 2
 384 42 l 2
 460 42 505 98 525 170 c 1
 538.1 173.2 559.6 170.9 570 165 c 1
 562 114 557 48 543 -2 c 1
 543 -2 453 0 405 0 c 2
 170 0 l 1
 170 0 64 -1 15 -2 c 1
 9 4 9 26 15 32 c 1
 85 35 102 39 102 122 c 2
 102 522 l 2
 102 605 85 610 15 613 c 1
 9 619 9 641 15 647 c 1
 65 646 169 645 169 645 c 1
 464 645 l 2
 488 645 496 646 513 649 c 0
 516 649 517 648 517 646 c 0
 519 638 524 542 529 501 c 1
 519.2 496.3 498.4 494.2 486 496 c 1
 464 565 443 603 368 603 c 2
 283 603 l 2
 259 603 242 578 242 554 c 2
 242 365 l 1
 323 365 l 2
EndSplineSet
Substitution2: "LinLibertine-'c2sc' Versale nach Kapitaelchen 1" e.sc
Position2: "'cpsp' Versalabstaende 1" dx=2 dy=0 dh=5 dv=0
EndChar

StartChar: F
Encoding: 70 70 29
Width: 545
Flags: HW
HStem: -2 34<13.6167 82.4056 266.36 340.383> 299 46<242 399.554> 603 42<249.747 443.163> 613 34<12.2578 85.9433>
VStem: 102 140<50.5764 299 345 596.345> 414 43<232.086 283.875 356.375 411.914> 496 35<493.32 535.012>
AnchorPoint: "unten_punkt" 206 -110 basechar 0
AnchorPoint: "unten_anhang" 150 -1 basechar 0
AnchorPoint: "top_akzent" 281 850 basechar 0
AnchorPoint: "top_rechts" 504 732 basechar 0
LayerCount: 2
Fore
SplineSet
242 122 m 2
 242 39 280 35 335 32 c 1
 345 26 345 4 335 -2 c 1
 295 -1 213 0 173 0 c 0
 133 0 59 -1 19 -2 c 1
 9 4 9 26 19 32 c 1
 74 35 102 39 102 122 c 2
 102 522 l 2
 102 605 85 610 15 613 c 1
 9 619 9 641 15 647 c 1
 65 646 169 645 169 645 c 1
 466 645 l 2
 490 645 498 646 515 649 c 0
 518 649 518.7 648 519 646 c 0
 520.3 637.7 528.3 539.7 531 496 c 1
 521.2 491.3 508.4 489.2 496 491 c 1
 474 560 448 603 373 603 c 2
 283 603 l 2
 259 603 242 578 242 554 c 2
 242 345 l 1
 323 345 l 2
 390 345 411 354 414 409 c 1
 420 415 451 415 457 409 c 1
 455.5 380 455 345.5 455 323 c 0
 455 300 455 270 457 235 c 1
 451 229 420 229 414 235 c 1
 411 280 392 299 323 299 c 2
 242 299 l 1
 242 122 l 2
EndSplineSet
Substitution2: "LinLibertine-'c2sc' Versale nach Kapitaelchen 1" f.sc
Position2: "'cpsp' Versalabstaende 1" dx=2 dy=0 dh=5 dv=0
EndChar

StartChar: G
Encoding: 71 71 30
Width: 732
VWidth: 999
Flags: HW
HStem: -10 42<316.533 488.572> 271 37<432.77 504.783 660.223 700.23> 616 42<296.386 484.632>
VStem: 33 151<189.05 437.31> 514 140<78.4212 261.096> 602 44<456.261 503.722>
AnchorPoint: "komb_OR" 620 606 basechar 0
AnchorPoint: "unten_punkt" 367 -110 basechar 0
AnchorPoint: "unten_anhang" 367 2 basechar 0
AnchorPoint: "mittelpunkt" 308 335 basechar 0
AnchorPoint: "top_akzent" 365 850 basechar 0
AnchorPoint: "top_rechts" 631 732 basechar 0
LayerCount: 2
Fore
SplineSet
395 658 m 0
 519.5 658 572.5 623 625 623 c 1
 632 551 637 501 646 459 c 1
 634 453 618 451 602 453 c 1
 577 539 510.5 616 381 616 c 0
 328 616 273 595 234 542 c 0
 197 491 184 413 184 327 c 0
 184 195 238 32 407 32 c 0
 458 32 482 42 514 74 c 1
 514 223 l 2
 514 263 488 267 436 271 c 1
 430 277 430 302 436 308 c 1
 481 307 547 306 584 306 c 0
 622 306 669 307 697 308 c 1
 703 302 703 277 697 271 c 1
 669 268 654 258 654 223 c 2
 654 106 l 2
 654 95 659 87 669 78 c 1
 605 24 497 -10 385 -10 c 0
 280 -10 201 12 138 66 c 0
 69 124 33 217 33 307 c 0
 33 415 72 505 139 565 c 0
 208 627 297 658 395 658 c 0
EndSplineSet
Substitution2: "LinLibertine-'c2sc' Versale nach Kapitaelchen 1" g.sc
Position2: "'cpsp' Versalabstaende 1" dx=2 dy=0 dh=5 dv=0
EndChar

StartChar: grave
Encoding: 96 96 31
Width: 392
VWidth: 999
Flags: HW
LayerCount: 2
Fore
SplineSet
198 674 m 1
 267 550 l 2
 271 543 276 532 276 524 c 0
 276 515 268 508 259 508 c 0
 251 508 241 513 224 528 c 2
 103 633 l 1
 105 644 l 1
 113 653 142 676 178 676 c 0
 183 676 194 675 198 674 c 1
EndSplineSet
EndChar

StartChar: ograve
Encoding: 242 242 32
Width: 551
VWidth: 999
Flags: HW
HStem: -10 42<238.337 337.017> 402 42<213.65 311.912>
VStem: 37 140<113.657 317.24> 374 140<112.239 317.204>
AnchorPoint: "top_akzent" 255 834 basechar 0
AnchorPoint: "komb_OR" 420 396 basechar 0
LayerCount: 2
Fore
SplineSet
244 674 m 1
 313 550 l 2
 317 543 322 532 322 524 c 0
 322 515 314 508 305 508 c 0
 297 508 287 513 270 528 c 2
 149 633 l 1
 151 644 l 1
 159 653 188 676 224 676 c 0
 229 676 240 675 244 674 c 1
260 402 m 0
 193 402 177 321 177 229 c 0
 177 155 209 32 291 32 c 0
 327 32 374 63.9 374 184 c 0
 374 321 328 402 260 402 c 0
37 207 m 0
 37 266.1 53.8 326.4 91.7 370 c 0
 131.2 415.4 193.1 444 276 444 c 0
 424.5 444 514 346.8 514 216 c 0
 514 160.3 496.6 92.3 446 47 c 0
 404.9 10.2 345.5 -10 275 -10 c 0
 140.6 -10 37 76.4 37 207 c 0
EndSplineSet
Substitution2: "LinLibertine-'smcp' Gemeine nach Kapitaelchen 1" ograve.sc
AlternateSubs2: "LinLibertine-'aalt' Alle Alternativen zeigen 1" ograve.sc
EndChar

StartChar: oacute
Encoding: 243 243 33
Width: 551
VWidth: 999
Flags: HW
HStem: -10 42<238.337 337.017> 402 42<213.65 311.912>
VStem: 37 140<113.657 317.24> 374 140<112.239 317.204>
AnchorPoint: "top_akzent" 255 834 basechar 0
AnchorPoint: "komb_OR" 420 396 basechar 0
LayerCount: 2
Fore
SplineSet
282 674 m 1
 285 675 293 676 298 676 c 0
 328 676 347 662 355 652 c 1
 365 629 l 1
 245 521 l 2
 231 509 217 505 207 505 c 0
 199 505 191 513 191 519 c 0
 191 525 193 534 199 543 c 2
 282 674 l 1
260 402 m 0
 193 402 177 321 177 229 c 0
 177 155 209 32 291 32 c 0
 327 32 374 63.9 374 184 c 0
 374 321 328 402 260 402 c 0
37 207 m 0
 37 266.1 53.8 326.4 91.7 370 c 0
 131.2 415.4 193.1 444 276 444 c 0
 424.5 444 514 346.8 514 216 c 0
 514 160.3 496.6 92.3 446 47 c 0
 404.9 10.2 345.5 -10 275 -10 c 0
 140.6 -10 37 76.4 37 207 c 0
EndSplineSet
Substitution2: "LinLibertine-'smcp' Gemeine nach Kapitaelchen 1" oacute.sc
AlternateSubs2: "LinLibertine-'aalt' Alle Alternativen zeigen 1" oacute.sc
EndChar

StartChar: ocircumflex
Encoding: 244 244 34
Width: 551
VWidth: 999
Flags: HW
HStem: -10 42<238.337 337.017> 402 42<213.65 311.912>
VStem: 37 140<113.657 317.24> 374 140<112.239 317.204>
AnchorPoint: "top_akzent" 255 833 basechar 0
AnchorPoint: "komb_OR" 420 396 basechar 0
LayerCount: 2
Fore
SplineSet
303 663 m 1
 333 614 371 570 408 529 c 1
 383 510 l 1
 340 536 311 556 276 593 c 1
 238 554 210 536 170 510 c 1
 145 529 l 1
 181 570 221 615 251 663 c 1
 303 663 l 1
260 402 m 0
 193 402 177 321 177 229 c 0
 177 155 209 32 291 32 c 0
 327 32 374 63.9 374 184 c 0
 374 321 328 402 260 402 c 0
37 207 m 0
 37 266.1 53.8 326.4 91.7 370 c 0
 131.2 415.4 193.1 444 276 444 c 0
 424.5 444 514 346.8 514 216 c 0
 514 160.3 496.6 92.3 446 47 c 0
 404.9 10.2 345.5 -10 275 -10 c 0
 140.6 -10 37 76.4 37 207 c 0
EndSplineSet
Substitution2: "LinLibertine-'smcp' Gemeine nach Kapitaelchen 1" ocircumflex.sc
AlternateSubs2: "LinLibertine-'aalt' Alle Alternativen zeigen 1" ocircumflex.sc
EndChar

StartChar: otilde
Encoding: 245 245 35
Width: 551
VWidth: 999
Flags: HW
HStem: -10 42<238.337 337.017> 402 42<213.65 311.912> 519 70<259.399 360.905> 557 71<152.858 252.467>
VStem: 37 140<113.657 317.24> 113 26<521.865 543.979> 374 28<609.298 625.118> 374 140<112.239 317.204>
AnchorPoint: "top_akzent" 255 834 basechar 0
AnchorPoint: "komb_OR" 420 396 basechar 0
LayerCount: 2
Fore
SplineSet
325 589 m 0
 339 589 360 596 374 632 c 1
 388 632 402 624 402 612 c 1
 385 554 348 519 311 519 c 0
 288 519 266 525 246 540 c 1
 226 553 206 557 188 557 c 0
 166 557 150 555 139 517 c 1
 127 517 113 521 113 535 c 1
 129 586 161 628 196 628 c 0
 227 628 250 619 270 603 c 0
 288 589 314 589 325 589 c 0
260 402 m 0
 193 402 177 321 177 229 c 0
 177 155 209 32 291 32 c 0
 327 32 374 63.9 374 184 c 0
 374 321 328 402 260 402 c 0
37 207 m 0
 37 266.1 53.8 326.4 91.7 370 c 0
 131.2 415.4 193.1 444 276 444 c 0
 424.5 444 514 346.8 514 216 c 0
 514 160.3 496.6 92.3 446 47 c 0
 404.9 10.2 345.5 -10 275 -10 c 0
 140.6 -10 37 76.4 37 207 c 0
EndSplineSet
Substitution2: "LinLibertine-'smcp' Gemeine nach Kapitaelchen 1" otilde.sc
AlternateSubs2: "LinLibertine-'aalt' Alle Alternativen zeigen 1" otilde.sc
EndChar

StartChar: odieresis
Encoding: 246 246 36
Width: 551
VWidth: 999
Flags: HW
HStem: -10 42<238.337 337.017> 402 42<213.65 311.912> 519 109<135.037 223.257 320.743 408.963>
VStem: 37 140<113.657 317.24> 124 110<530.463 616.462> 310 110<530.463 616.462> 374 140<112.239 317.204>
AnchorPoint: "top_akzent" 255 834 basechar 0
LayerCount: 2
Fore
SplineSet
310 573 m 0
 310 604 334 628 365 628 c 0
 395 628 420 604 420 573 c 0
 420 543 395 519 365 519 c 0
 334 519 310 543 310 573 c 0
124 573 m 0
 124 604 149 628 179 628 c 0
 210 628 234 604 234 573 c 0
 234 543 210 519 179 519 c 0
 149 519 124 543 124 573 c 0
260 402 m 0
 193 402 177 321 177 229 c 0
 177 155 209 32 291 32 c 0
 327 32 374 63.9 374 184 c 0
 374 321 328 402 260 402 c 0
37 207 m 0
 37 266.1 53.8 326.4 91.7 370 c 0
 131.2 415.4 193.1 444 276 444 c 0
 424.5 444 514 346.8 514 216 c 0
 514 160.3 496.6 92.3 446 47 c 0
 404.9 10.2 345.5 -10 275 -10 c 0
 140.6 -10 37 76.4 37 207 c 0
EndSplineSet
Substitution2: "LinLibertine-'smcp' Gemeine nach Kapitaelchen 1" odieresis.sc
AlternateSubs2: "LinLibertine-'aalt' Alle Alternativen zeigen 1" odieresis.sc
EndChar

StartChar: divide
Encoding: 247 247 37
Width: 540
VWidth: 999
Flags: HW
HStem: 27.6 116.5<225.508 311.836> 206 60<74 463> 327.6 116.5<225.508 311.836>
VStem: 207.1 122.4<46.0234 125.601 346.023 425.601>
LayerCount: 2
Fore
SplineSet
207.1 384.6 m 0
 207.1 417.3 235.6 444.1 269.1 444.1 c 0
 302.6 444.1 329.5 419 329.5 386.3 c 0
 329.5 354.5 300.9 327.6 267.4 327.6 c 0
 233.9 327.6 207.1 352.8 207.1 384.6 c 0
207.1 84.6 m 0
 207.1 117.3 235.6 144.1 269.1 144.1 c 0
 302.6 144.1 329.5 119 329.5 86.3 c 0
 329.5 54.5 300.9 27.6 267.4 27.6 c 0
 233.9 27.6 207.1 52.8 207.1 84.6 c 0
473 266 m 1
 463 206 l 1
 64 206 l 1
 74 266 l 1
 473 266 l 1
EndSplineSet
EndChar

StartChar: ugrave
Encoding: 249 249 38
Width: 598
VWidth: 999
Flags: HW
HStem: -10 74<174 300.374> 23 32<527.156 576.438> 402 34<18.77 71.7019 309.77 363.604>
VStem: 89 130<76.3607 390.242> 380 130<67.5488 389.887>
AnchorPoint: "top_akzent" 255 834 basechar 0
LayerCount: 2
Fore
SplineSet
259 674 m 1
 328 550 l 2
 332 543 337 532 337 524 c 0
 337 515 329 508 320 508 c 0
 312 508 302 513 285 528 c 2
 164 633 l 1
 166 644 l 1
 174 653 203 676 239 676 c 0
 244 676 255 675 259 674 c 1
510 133 m 2
 510 76 520.5 60.1 575 55 c 1
 577 49 579 29 577 23 c 1
 508 14 448 0 411 -10 c 1
 397 -10 388.8 -5 388 7 c 2
 388 7 385.7 25.8 383.5 51 c 1
 326 18.8 253.3 -10 217 -10 c 0
 131 -10 89 43.5 89 150 c 2
 89 306 l 2
 89 390 68 400 22 402 c 1
 16 408 16 430 22 436 c 1
 65 435 102.5 434 154 434 c 0
 172.3 434 193 435 211 436 c 1
 217 430 221 419 221 402 c 0
 221 378 219 390 219 306 c 2
 219 139 l 2
 219 68.5 249 64 289 64 c 0
 306.5 64 340.2 65.9 380.8 91 c 1
 380.3 101.1 380 111.1 380 120.7 c 2
 380 306 l 2
 380 390 364 397 313 402 c 1
 307 408 307 430 313 436 c 1
 352 435 417.3 434 445 434 c 0
 464 434 484 435 502 436 c 1
 508 430 512 419 512 402 c 0
 512 378 510 390 510 306 c 2
 510 133 l 2
EndSplineSet
Substitution2: "LinLibertine-'smcp' Gemeine nach Kapitaelchen 1" ugrave.sc
AlternateSubs2: "LinLibertine-'aalt' Alle Alternativen zeigen 1" ugrave.sc
EndChar

StartChar: uacute
Encoding: 250 250 39
Width: 598
VWidth: 999
Flags: HW
HStem: -10 74<174 300.374> 23 32<527.156 576.438> 402 34<18.77 71.7019 309.77 363.604>
VStem: 89 130<76.3607 390.242> 380 130<67.5488 389.887>
AnchorPoint: "top_akzent" 255 834 basechar 0
LayerCount: 2
Fore
SplineSet
309 674 m 1
 312 675 320 676 325 676 c 0
 355 676 374 662 382 652 c 1
 392 629 l 1
 272 521 l 2
 258 509 244 505 234 505 c 0
 226 505 218 513 218 519 c 0
 218 525 220 534 226 543 c 2
 309 674 l 1
510 133 m 2
 510 76 520.5 60.1 575 55 c 1
 577 49 579 29 577 23 c 1
 508 14 448 0 411 -10 c 1
 397 -10 388.8 -5 388 7 c 2
 388 7 385.7 25.8 383.5 51 c 1
 326 18.8 253.3 -10 217 -10 c 0
 131 -10 89 43.5 89 150 c 2
 89 306 l 2
 89 390 68 400 22 402 c 1
 16 408 16 430 22 436 c 1
 65 435 102.5 434 154 434 c 0
 172.3 434 193 435 211 436 c 1
 217 430 221 419 221 402 c 0
 221 378 219 390 219 306 c 2
 219 139 l 2
 219 68.5 249 64 289 64 c 0
 306.5 64 340.2 65.9 380.8 91 c 1
 380.3 101.1 380 111.1 380 120.7 c 2
 380 306 l 2
 380 390 364 397 313 402 c 1
 307 408 307 430 313 436 c 1
 352 435 417.3 434 445 434 c 0
 464 434 484 435 502 436 c 1
 508 430 512 419 512 402 c 0
 512 378 510 390 510 306 c 2
 510 133 l 2
EndSplineSet
Substitution2: "LinLibertine-'smcp' Gemeine nach Kapitaelchen 1" uacute.sc
AlternateSubs2: "LinLibertine-'aalt' Alle Alternativen zeigen 1" uacute.sc
EndChar

StartChar: ucircumflex
Encoding: 251 251 40
Width: 598
VWidth: 999
Flags: HW
HStem: -10 74<174 300.374> 23 32<527.156 576.438> 402 34<18.77 71.7019 309.77 363.604>
VStem: 89 130<76.3607 390.242> 380 130<67.5488 389.887>
AnchorPoint: "top_akzent" 247 834 basechar 0
LayerCount: 2
Fore
SplineSet
307 663 m 1
 337 614 375 570 412 529 c 1
 387 510 l 1
 344 536 315 556 280 593 c 1
 242 554 214 536 174 510 c 1
 149 529 l 1
 185 570 225 615 255 663 c 1
 307 663 l 1
510 133 m 2
 510 76 520.5 60.1 575 55 c 1
 577 49 579 29 577 23 c 1
 508 14 448 0 411 -10 c 1
 397 -10 388.8 -5 388 7 c 2
 388 7 385.7 25.8 383.5 51 c 1
 326 18.8 253.3 -10 217 -10 c 0
 131 -10 89 43.5 89 150 c 2
 89 306 l 2
 89 390 68 400 22 402 c 1
 16 408 16 430 22 436 c 1
 65 435 102.5 434 154 434 c 0
 172.3 434 193 435 211 436 c 1
 217 430 221 419 221 402 c 0
 221 378 219 390 219 306 c 2
 219 139 l 2
 219 68.5 249 64 289 64 c 0
 306.5 64 340.2 65.9 380.8 91 c 1
 380.3 101.1 380 111.1 380 120.7 c 2
 380 306 l 2
 380 390 364 397 313 402 c 1
 307 408 307 430 313 436 c 1
 352 435 417.3 434 445 434 c 0
 464 434 484 435 502 436 c 1
 508 430 512 419 512 402 c 0
 512 378 510 390 510 306 c 2
 510 133 l 2
EndSplineSet
Substitution2: "LinLibertine-'smcp' Gemeine nach Kapitaelchen 1" ucircumflex.sc
AlternateSubs2: "LinLibertine-'aalt' Alle Alternativen zeigen 1" ucircumflex.sc
EndChar

StartChar: ebreve
Encoding: 277 277 41
Width: 489
VWidth: 999
Flags: HW
HStem: -10 86<216.546 345.445> 235 40<172 310> 402 42<205.631 284.483> 514 74<177.021 320.577>
VStem: 37 130<127.941 235 275 306.352> 110 33<621.43 659.121> 310 127<259 366.741> 358 32<624.913 659.188>
AnchorPoint: "unten_punkt" 236 -110 basechar 0
AnchorPoint: "unten_anhang" 242 -2 basechar 0
AnchorPoint: "ogonek" 361 42 basechar 0
AnchorPoint: "top_akzent" 227 795 basechar 0
LayerCount: 2
Fore
SplineSet
143 667 m 1
 145 613 188 588 251 588 c 0
 298 588 355 603 358 667 c 1
 390 657 l 1
 380 552 302 514 251 514 c 0
 170 514 117 576 110 657 c 1
 143 667 l 1
177 275 m 1
 313 275 l 1
 315 277 315 290 315 296 c 0
 315 376 278 402 251 402 c 0
 239.7 402 212.9 391.8 197 368 c 0
 183.4 347.7 178 310 177 275 c 1
431 129 m 1
 441 129 446 111 446 98 c 1
 396 25 328 -10 259 -10 c 0
 187.9 -10 138.6 5.9 101 40 c 0
 58.2 78.8 37 139.5 37 198 c 0
 37 351 157 444 262 444 c 0
 409 444 442 351 442 266 c 0
 442 252 437 235 413 235 c 2
 173 235 l 1
 173 230 172 226 172 219 c 0
 172 121 220 76 298 76 c 0
 336 76 390 87 431 129 c 1
EndSplineSet
EndChar

StartChar: Edotaccent
Encoding: 278 278 42
Width: 609
VWidth: 999
Flags: HW
HStem: -2 34<11.77 85.9433> 0 42<249.172 454.205> 319 46<242 399.554> 603 42<249.747 438.219> 613 34<12.2578 85.9433> 709 124<260.2 353.8>
VStem: 102 140<48.1312 319 365 596.345> 245 124<724.2 817.8> 414 43<252.086 303.875 376.375 431.914> 525 45<116.761 167.944>
AnchorPoint: "unten_punkt" 279 -110 basechar 0
AnchorPoint: "unten_anhang" 279 4 basechar 0
AnchorPoint: "top_akzent" 273 970 basechar 0
AnchorPoint: "top_rechts" 519 732 basechar 0
LayerCount: 2
Fore
SplineSet
245 771 m 0
 245 805 273 833 307 833 c 0
 341 833 369 805 369 771 c 0
 369 737 341 709 307 709 c 0
 273 709 245 737 245 771 c 0
323 365 m 2
 390 365 411 374 414 429 c 1
 420 435 451 435 457 429 c 1
 456 399 455 376.5 455 343 c 0
 455 308.7 456 290 457 255 c 1
 451 249 420 249 414 255 c 1
 411 300 392 319 323 319 c 2
 242 319 l 1
 242 90 l 2
 242 63 261 42 283 42 c 2
 384 42 l 2
 460 42 505 98 525 170 c 1
 538.1 173.2 559.6 171 570 165 c 1
 562 114 557 48 543 -2 c 1
 543 -2 453 0 405 0 c 2
 170 0 l 1
 170 0 64 -1 15 -2 c 1
 9 4 9 26 15 32 c 1
 85 35 102 39 102 122 c 2
 102 522 l 2
 102 605 85 610 15 613 c 1
 9 619 9 641 15 647 c 1
 65 646 169 645 169 645 c 1
 464 645 l 2
 488 645 496 646 513 649 c 0
 516 649 517 648 517 646 c 0
 519 638 524 542 529 501 c 1
 519.2 496.3 498.4 494.2 486 496 c 1
 464 565 443 603 368 603 c 2
 283 603 l 2
 259 603 242 578 242 554 c 2
 242 365 l 1
 323 365 l 2
EndSplineSet
Position2: "'cpsp' Versalabstaende 1" dx=2 dy=0 dh=5 dv=0
EndChar

StartChar: edotaccent
Encoding: 279 279 43
Width: 489
VWidth: 999
Flags: HW
HStem: -10 86<216.546 345.445> 235 40<172 310> 402 42<205.631 284.483> 530 128<192.302 292.126 192.302 292.126>
VStem: 37 130<127.941 235 275 306.352> 176 135<548.993 640.845 548.993 640.845> 310 127<259 366.741>
AnchorPoint: "unten_punkt" 236 -110 basechar 0
AnchorPoint: "unten_anhang" 242 -2 basechar 0
AnchorPoint: "ogonek" 361 42 basechar 0
AnchorPoint: "top_akzent" 230 795 basechar 0
LayerCount: 2
Fore
SplineSet
176 596 m 0
 176 626 199 658 246 658 c 0
 288 658 311 622 311 592 c 0
 311 566 285 530 240 530 c 0
 200 530 176 563 176 596 c 0
177 275 m 1
 313 275 l 1
 315 277 315 290 315 296 c 0
 315 376 278 402 251 402 c 0
 239.7 402 212.9 391.8 197 368 c 0
 183.4 347.7 178 310 177 275 c 1
431 129 m 1
 441 129 446 111 446 98 c 1
 396 25 328 -10 259 -10 c 0
 187.9 -10 138.6 5.9 101 40 c 0
 58.2 78.8 37 139.5 37 198 c 0
 37 351 157 444 262 444 c 0
 409 444 442 351 442 266 c 0
 442 252 437 235 413 235 c 2
 173 235 l 1
 173 230 172 226 172 219 c 0
 172 121 220 76 298 76 c 0
 336 76 390 87 431 129 c 1
EndSplineSet
EndChar

StartChar: Eogonek
Encoding: 280 280 44
Width: 609
VWidth: 999
Flags: HW
HStem: -232 60<378.359 461.312> -2 34<11.77 85.9433> 0 42<249.172 454.205> 1 21<453.742 467> 319 46<242 399.554> 603 42<249.747 438.219> 613 34<12.2578 85.9433>
VStem: 102 140<48.1312 319 365 596.345> 299 92<-169.449 -74.1839> 414 43<252.086 303.875 376.375 431.914> 525 45<116.761 167.944>
AnchorPoint: "unten_punkt" 279 -110 basechar 0
AnchorPoint: "unten_anhang" 279 4 basechar 0
AnchorPoint: "top_akzent" 273 850 basechar 0
AnchorPoint: "top_rechts" 519 732 basechar 0
LayerCount: 2
Fore
SplineSet
497 -177 m 1
 471 -213 427 -232 388 -232 c 0
 368.7 -232 352.4 -225.4 338 -216 c 0
 315.1 -201 299 -175.9 299 -136 c 0
 299 -87.6 346.4 -30.6 398.4 0 c 1
 170 0 l 1
 170 0 64 -1 15 -2 c 1
 9 4 9 26 15 32 c 1
 85 35 102 39 102 122 c 2
 102 522 l 2
 102 605 85 610 15 613 c 1
 9 619 9 641 15 647 c 1
 65 646 169 645 169 645 c 1
 464 645 l 2
 488 645 496 646 513 649 c 0
 516 649 517 648 517 646 c 0
 519 638 524 542 529 501 c 1
 519.2 496.3 498.4 494.2 486 496 c 1
 464 565 443 603 368 603 c 2
 283 603 l 2
 259 603 242 578 242 554 c 2
 242 365 l 1
 323 365 l 2
 390 365 411 374 414 429 c 1
 420 435 451 435 457 429 c 1
 456 399 455 376.5 455 343 c 0
 455 308.7 456 290 457 255 c 1
 451 249 420 249 414 255 c 1
 411 300 392 319 323 319 c 2
 242 319 l 1
 242 90 l 2
 242 63 261 42 283 42 c 2
 384 42 l 2
 460 42 505 98 525 170 c 1
 538.1 173.2 559.6 171 570 165 c 1
 562 114 557 48 543 -2 c 1
 543 -2 510.7 -1.3 474.4 -0.7 c 1
 428.4 -11.3 391 -69.8 391 -130 c 0
 391 -162 408.5 -172 426 -172 c 0
 443 -172 467 -169 482 -154 c 1
 497 -177 l 1
EndSplineSet
Substitution2: "LinLibertine-'c2sc' Versale nach Kapitaelchen 1" eogonek.sc
Position2: "'cpsp' Versalabstaende 1" dx=2 dy=0 dh=5 dv=0
EndChar

StartChar: eogonek
Encoding: 281 281 45
Width: 489
VWidth: 999
Flags: HW
HStem: -218 70<241 344.283> -10 86<216.546 345.445> 235 40<172 310> 402 42<205.631 284.483>
VStem: 37 130<127.941 235 275 306.352> 174 102<-145.061 -73.5759> 310 127<259 366.741>
AnchorPoint: "unten_punkt" 70 -108 basechar 0
AnchorPoint: "top_akzent" 231 645 basechar 0
LayerCount: 2
Fore
SplineSet
177 275 m 1
 313 275 l 1
 315 277 315 290 315 296 c 0
 315 376 278 402 251 402 c 0
 239.7 402 212.9 391.8 197 368 c 0
 183.4 347.7 178 310 177 275 c 1
431 129 m 1
 441 129 446 111 446 98 c 1
 413.7 50.8 373.8 19.4 331 3.2 c 1
 297.4 -30 276 -61.2 276 -111 c 0
 276 -137.5 293.5 -148 311 -148 c 0
 328 -148 352 -145 367 -130 c 1
 377.9 -137.5 382 -149.5 382 -163 c 1
 356 -199 305 -218 266 -218 c 0
 216 -218 174 -187 174 -132 c 0
 174 -88 212.3 -45.6 255.9 -10 c 1
 186.4 -9.5 138.1 6.4 101 40 c 0
 58.2 78.8 37 139.5 37 198 c 0
 37 351 157 444 262 444 c 0
 409 444 442 351 442 266 c 0
 442 252 437 235 413 235 c 2
 173 235 l 1
 173 230 172 226 172 219 c 0
 172 121 220 76 298 76 c 0
 336 76 390 87 431 129 c 1
EndSplineSet
Substitution2: "LinLibertine-'smcp' Gemeine nach Kapitaelchen 1" eogonek.sc
AlternateSubs2: "LinLibertine-'aalt' Alle Alternativen zeigen 1" eogonek.sc
EndChar

StartChar: Ecaron
Encoding: 282 282 46
Width: 609
VWidth: 999
Flags: HW
HStem: -2 34<11.77 85.9433> 0 42<249.172 454.205> 319 46<242 399.554> 603 42<249.747 438.219> 613 34<12.2578 85.9433> 698 136
VStem: 102 140<48.1312 319 365 596.345> 169 277 414 43<252.086 303.875 376.375 431.914> 525 45<116.761 167.944>
LayerCount: 2
Fore
SplineSet
169 808 m 1
 169 818 176 830 185 834 c 1
 224 822 282 799 309 778 c 1
 339 800 395 823 432 834 c 1
 441 830 446 817 446 807 c 1
 404 780 354 738 319 703 c 1
 305 698 l 1
 268 735 209 782 169 808 c 1
323 365 m 2
 390 365 411 374 414 429 c 1
 420 435 451 435 457 429 c 1
 456 399 455 376.5 455 343 c 0
 455 308.7 456 290 457 255 c 1
 451 249 420 249 414 255 c 1
 411 300 392 319 323 319 c 2
 242 319 l 1
 242 90 l 2
 242 63 261 42 283 42 c 2
 384 42 l 2
 460 42 505 98 525 170 c 1
 538.1 173.2 559.6 171 570 165 c 1
 562 114 557 48 543 -2 c 1
 543 -2 453 0 405 0 c 2
 170 0 l 1
 170 0 64 -1 15 -2 c 1
 9 4 9 26 15 32 c 1
 85 35 102 39 102 122 c 2
 102 522 l 2
 102 605 85 610 15 613 c 1
 9 619 9 641 15 647 c 1
 65 646 169 645 169 645 c 1
 464 645 l 2
 488 645 496 646 513 649 c 0
 516 649 517 648 517 646 c 0
 519 638 524 542 529 501 c 1
 519.2 496.3 498.4 494.2 486 496 c 1
 464 565 443 603 368 603 c 2
 283 603 l 2
 259 603 242 578 242 554 c 2
 242 365 l 1
 323 365 l 2
EndSplineSet
Substitution2: "LinLibertine-'c2sc' Versale nach Kapitaelchen 1" ecaron.sc
Position2: "'cpsp' Versalabstaende 1" dx=2 dy=0 dh=5 dv=0
EndChar

StartChar: ecaron
Encoding: 283 283 47
Width: 489
VWidth: 999
Flags: HW
HStem: -10 86<216.546 345.445> 235 40<172 310> 402 42<205.631 284.483>
VStem: 37 130<127.941 235 275 306.352> 310 127<259 366.741>
LayerCount: 2
Fore
SplineSet
271 514 m 1
 221 514 l 1
 192 560 154 603.3 119 643 c 1
 143 661 l 1
 182 634 208 615 245 577 c 1
 279 613 309 634 348 661 c 1
 372 643 l 1
 336 603 300 561 271 514 c 1
177 275 m 1
 313 275 l 1
 315 277 315 290 315 296 c 0
 315 376 278 402 251 402 c 0
 239.7 402 212.9 391.8 197 368 c 0
 183.4 347.7 178 310 177 275 c 1
431 129 m 1
 441 129 446 111 446 98 c 1
 396 25 328 -10 259 -10 c 0
 187.9 -10 138.6 5.9 101 40 c 0
 58.2 78.8 37 139.5 37 198 c 0
 37 351 157 444 262 444 c 0
 409 444 442 351 442 266 c 0
 442 252 437 235 413 235 c 2
 173 235 l 1
 173 230 172 226 172 219 c 0
 172 121 220 76 298 76 c 0
 336 76 390 87 431 129 c 1
EndSplineSet
Substitution2: "LinLibertine-'smcp' Gemeine nach Kapitaelchen 1" ecaron.sc
AlternateSubs2: "LinLibertine-'aalt' Alle Alternativen zeigen 1" ecaron.sc
EndChar

StartChar: Gcircumflex
Encoding: 284 284 48
Width: 732
VWidth: 999
Flags: HW
HStem: -10 42<316.533 488.572> 271 37<432.77 504.783 660.223 700.23> 616 42<296.386 484.632> 698 136
VStem: 33 151<189.05 437.31> 280 277 514 140<78.4212 261.096> 602 44<456.261 503.722>
LayerCount: 2
Fore
SplineSet
557 724 m 1
 557 714 550.1 702.2 541 698 c 1
 502 710 444 733 417 754 c 1
 387 732 331 709 294 698 c 1
 284.9 702.2 280 715 280 725 c 1
 322 752 372.2 794.2 407 829 c 1
 421 834 l 1
 457.9 797.1 517 750 557 724 c 1
395 658 m 0
 519.5 658 572.5 623 625 623 c 1
 632 551 637 501 646 459 c 1
 634 453 618 451 602 453 c 1
 577 539 510.5 616 381 616 c 0
 328 616 273 595 234 542 c 0
 197 491 184 413 184 327 c 0
 184 195 238 32 407 32 c 0
 458 32 482 42 514 74 c 1
 514 223 l 2
 514 263 488 267 436 271 c 1
 430 277 430 302 436 308 c 1
 481 307 547 306 584 306 c 0
 622 306 669 307 697 308 c 1
 703 302 703 277 697 271 c 1
 669 268 654 258 654 223 c 2
 654 106 l 2
 654 95 659 87 669 78 c 1
 605 24 497 -10 385 -10 c 0
 280 -10 201 12 138 66 c 0
 69 124 33 217 33 307 c 0
 33 415 72 505 139 565 c 0
 208 627 297 658 395 658 c 0
EndSplineSet
Position2: "'cpsp' Versalabstaende 1" dx=2 dy=0 dh=5 dv=0
EndChar

StartChar: gcircumflex
Encoding: 285 285 49
Width: 521
VWidth: 999
Flags: HW
HStem: -238 42<164.509 334.426> -25 94<146.499 365.612> 142 38<192.516 272.803> 406 38<182.587 266.209>
VStem: 11 109<-154.71 -66.8839> 44 99<58.4478 119> 46 120<221.128 367.201> 290 122<217.225 367.083> 400 101<-121.848 -51.5623>
LayerCount: 2
Fore
SplineSet
268 663 m 1
 298 614 336 570 373 529 c 1
 348 510 l 1
 305 536 276 556 241 593 c 1
 203 554 175 536 135 510 c 1
 110 529 l 1
 146 570 186 615 216 663 c 1
 268 663 l 1
290 288 m 0
 290 367 270 406 223 406 c 0
 184 406 166 379 166 305 c 0
 166 254 174 180 236 180 c 0
 262 180 290 192 290 288 c 0
175 -25 m 0
 154 -25 141 -23 131 -19 c 1
 120 -39 120 -62 120 -96 c 0
 120 -147 165 -196 231 -196 c 0
 269.3 -196 320 -193.9 351 -176.4 c 0
 383.9 -157.8 400 -117.2 400 -81 c 0
 400 -27.8 251.8 -25 175 -25 c 0
467 394 m 0
 442 394 424 415 420 428 c 1
 417 434 410 440 401 440 c 0
 391 440 358 422 350 412 c 1
 384 384 412 347 412 291 c 0
 412 246.1 391.8 210.5 363 185 c 0
 328.9 154.8 282 142 231 142 c 0
 200 142 178.5 143 157.5 153 c 1
 152.5 141 143 127 143 111 c 0
 143 71 170 69 188 69 c 0
 261.5 69 412.3 62 451 36 c 0
 491.3 8.9 501 -33.6 501 -55 c 0
 501 -165 342 -238 203 -238 c 0
 155.1 -238 88.7 -232.1 50 -205 c 0
 22.5 -185.7 11 -143 11 -106 c 0
 11 -89 55 -32 98 -6 c 1
 78.4 0.4 66.2 8.2 57 22 c 0
 47 37 44 48.9 44 68 c 0
 44 88.2 92 141 123 167.5 c 1
 75 194 46 247 46 296 c 0
 46 347.3 73.4 385.6 114 412 c 0
 147.1 433.5 188.9 444 232 444 c 0
 277 444 298 442 316 432 c 1
 345 458 403 491 447 491 c 0
 485 491 511 462 511 443 c 0
 511 406 495 394 467 394 c 0
EndSplineSet
EndChar

StartChar: Gbreve
Encoding: 286 286 50
Width: 732
VWidth: 999
Flags: HW
HStem: -10 42<316.533 488.572> 271 37<432.77 504.783 660.223 700.23> 616 42<296.386 484.632> 705 74<314.883 459.873>
VStem: 33 151<189.05 437.31> 253 28<808.109 830.75> 497 27<810.51 830.778> 514 140<78.4212 261.096> 602 44<456.261 503.722>
LayerCount: 2
Fore
SplineSet
524 830 m 1
 518 759 455 705 389 705 c 0
 316 705 258 760 253 830 c 1
 281 833 l 1
 289 794 336 779 389 779 c 0
 438 779 490 794 497 833 c 1
 524 830 l 1
395 658 m 0
 519.5 658 572.5 623 625 623 c 1
 632 551 637 501 646 459 c 1
 634 453 618 451 602 453 c 1
 577 539 510.5 616 381 616 c 0
 328 616 273 595 234 542 c 0
 197 491 184 413 184 327 c 0
 184 195 238 32 407 32 c 0
 458 32 482 42 514 74 c 1
 514 223 l 2
 514 263 488 267 436 271 c 1
 430 277 430 302 436 308 c 1
 481 307 547 306 584 306 c 0
 622 306 669 307 697 308 c 1
 703 302 703 277 697 271 c 1
 669 268 654 258 654 223 c 2
 654 106 l 2
 654 95 659 87 669 78 c 1
 605 24 497 -10 385 -10 c 0
 280 -10 201 12 138 66 c 0
 69 124 33 217 33 307 c 0
 33 415 72 505 139 565 c 0
 208 627 297 658 395 658 c 0
EndSplineSet
Substitution2: "LinLibertine-'c2sc' Versale nach Kapitaelchen 1" gbreve.sc
Position2: "'cpsp' Versalabstaende 1" dx=2 dy=0 dh=5 dv=0
EndChar

StartChar: gbreve
Encoding: 287 287 51
Width: 521
VWidth: 999
Flags: HW
HStem: -238 42<164.509 334.426> -25 94<146.499 365.612> 142 38<192.516 272.803> 406 38<182.587 266.209> 482 74<169.021 312.577>
VStem: 11 109<-154.71 -66.8839> 44 99<58.4478 119> 46 120<221.128 367.201> 102 33<589.43 627.121> 290 122<217.225 367.083> 350 32<592.913 627.188> 400 101<-121.848 -51.5623>
LayerCount: 2
Fore
SplineSet
135 635 m 1
 137 581 180 556 243 556 c 0
 290 556 347 571 350 635 c 1
 382 625 l 1
 372 520 294 482 243 482 c 0
 162 482 109 544 102 625 c 1
 135 635 l 1
290 288 m 0
 290 367 270 406 223 406 c 0
 184 406 166 379 166 305 c 0
 166 254 174 180 236 180 c 0
 262 180 290 192 290 288 c 0
175 -25 m 0
 154 -25 141 -23 131 -19 c 1
 120 -39 120 -62 120 -96 c 0
 120 -147 165 -196 231 -196 c 0
 269.3 -196 320 -193.9 351 -176.4 c 0
 383.9 -157.8 400 -117.2 400 -81 c 0
 400 -27.8 251.8 -25 175 -25 c 0
467 394 m 0
 442 394 424 415 420 428 c 1
 417 434 410 440 401 440 c 0
 391 440 358 422 350 412 c 1
 384 384 412 347 412 291 c 0
 412 246.1 391.8 210.5 363 185 c 0
 328.9 154.8 282 142 231 142 c 0
 200 142 178.5 143 157.5 153 c 1
 152.5 141 143 127 143 111 c 0
 143 71 170 69 188 69 c 0
 261.5 69 412.3 62 451 36 c 0
 491.3 8.9 501 -33.6 501 -55 c 0
 501 -165 342 -238 203 -238 c 0
 155.1 -238 88.7 -232.1 50 -205 c 0
 22.5 -185.7 11 -143 11 -106 c 0
 11 -89 55 -32 98 -6 c 1
 78.4 0.4 66.2 8.2 57 22 c 0
 47 37 44 48.9 44 68 c 0
 44 88.2 92 141 123 167.5 c 1
 75 194 46 247 46 296 c 0
 46 347.3 73.4 385.6 114 412 c 0
 147.1 433.5 188.9 444 232 444 c 0
 277 444 298 442 316 432 c 1
 345 458 403 491 447 491 c 0
 485 491 511 462 511 443 c 0
 511 406 495 394 467 394 c 0
EndSplineSet
Substitution2: "LinLibertine-'smcp' Gemeine nach Kapitaelchen 1" gbreve.sc
AlternateSubs2: "LinLibertine-'aalt' Alle Alternativen zeigen 1" gbreve.sc
EndChar

StartChar: Gdotaccent
Encoding: 288 288 52
Width: 732
VWidth: 999
Flags: HW
HStem: -10 42<316.533 488.572> 271 37<432.77 504.783 660.223 700.23> 616 42<296.386 484.632> 709 124<354.2 447.8>
VStem: 33 151<189.05 437.31> 339 124<724.2 817.8> 514 140<78.4212 261.096> 602 44<456.261 503.722>
LayerCount: 2
Fore
SplineSet
339 771 m 0
 339 805 367 833 401 833 c 0
 435 833 463 805 463 771 c 0
 463 737 435 709 401 709 c 0
 367 709 339 737 339 771 c 0
395 658 m 0
 519.5 658 572.5 623 625 623 c 1
 632 551 637 501 646 459 c 1
 634 453 618 451 602 453 c 1
 577 539 510.5 616 381 616 c 0
 328 616 273 595 234 542 c 0
 197 491 184 413 184 327 c 0
 184 195 238 32 407 32 c 0
 458 32 482 42 514 74 c 1
 514 223 l 2
 514 263 488 267 436 271 c 1
 430 277 430 302 436 308 c 1
 481 307 547 306 584 306 c 0
 622 306 669 307 697 308 c 1
 703 302 703 277 697 271 c 1
 669 268 654 258 654 223 c 2
 654 106 l 2
 654 95 659 87 669 78 c 1
 605 24 497 -10 385 -10 c 0
 280 -10 201 12 138 66 c 0
 69 124 33 217 33 307 c 0
 33 415 72 505 139 565 c 0
 208 627 297 658 395 658 c 0
EndSplineSet
Position2: "'cpsp' Versalabstaende 1" dx=2 dy=0 dh=5 dv=0
EndChar

StartChar: gdotaccent
Encoding: 289 289 53
Width: 521
VWidth: 999
Flags: HW
HStem: -238 42<164.509 334.426> -25 94<146.499 365.612> 142 38<192.516 272.803> 406 38<182.587 266.209> 530 128<180.302 280.126>
VStem: 11 109<-154.71 -66.8839> 44 99<58.4478 119> 46 120<221.128 367.201> 164 135<548.993 640.845> 290 122<217.225 367.083> 400 101<-121.848 -51.5623>
LayerCount: 2
Fore
SplineSet
164 596 m 0
 164 626 187 658 234 658 c 0
 276 658 299 622 299 592 c 0
 299 566 273 530 228 530 c 0
 188 530 164 563 164 596 c 0
290 288 m 0
 290 367 270 406 223 406 c 0
 184 406 166 379 166 305 c 0
 166 254 174 180 236 180 c 0
 262 180 290 192 290 288 c 0
175 -25 m 0
 154 -25 141 -23 131 -19 c 1
 120 -39 120 -62 120 -96 c 0
 120 -147 165 -196 231 -196 c 0
 269.3 -196 320 -193.9 351 -176.4 c 0
 383.9 -157.8 400 -117.2 400 -81 c 0
 400 -27.8 251.8 -25 175 -25 c 0
467 394 m 0
 442 394 424 415 420 428 c 1
 417 434 410 440 401 440 c 0
 391 440 358 422 350 412 c 1
 384 384 412 347 412 291 c 0
 412 246.1 391.8 210.5 363 185 c 0
 328.9 154.8 282 142 231 142 c 0
 200 142 178.5 143 157.5 153 c 1
 152.5 141 143 127 143 111 c 0
 143 71 170 69 188 69 c 0
 261.5 69 412.3 62 451 36 c 0
 491.3 8.9 501 -33.6 501 -55 c 0
 501 -165 342 -238 203 -238 c 0
 155.1 -238 88.7 -232.1 50 -205 c 0
 22.5 -185.7 11 -143 11 -106 c 0
 11 -89 55 -32 98 -6 c 1
 78.4 0.4 66.2 8.2 57 22 c 0
 47 37 44 48.9 44 68 c 0
 44 88.2 92 141 123 167.5 c 1
 75 194 46 247 46 296 c 0
 46 347.3 73.4 385.6 114 412 c 0
 147.1 433.5 188.9 444 232 444 c 0
 277 444 298 442 316 432 c 1
 345 458 403 491 447 491 c 0
 485 491 511 462 511 443 c 0
 511 406 495 394 467 394 c 0
EndSplineSet
EndChar

StartChar: Gcommaaccent
Encoding: 290 290 54
Width: 732
VWidth: 999
Flags: HW
HStem: -238 28<316.372 347.68> -134 83<327.251 381.724> -10 42<316.533 488.572> 271 37<432.77 504.783 660.223 700.23> 616 42<296.386 484.632>
VStem: 33 151<189.05 437.31> 382 61<-187.192 -97.5> 514 140<78.4212 261.096> 602 44<456.261 503.722>
LayerCount: 2
Fore
SplineSet
371 -51 m 0
 403 -51 443 -66 443 -129 c 0
 443 -186 391 -226 323 -238 c 1
 313 -232 313 -222 317 -210 c 1
 357 -199 382 -175 382 -157 c 0
 382 -137 361 -136 353 -134 c 0
 331 -129 320 -114 320 -89 c 0
 320 -72 348 -51 371 -51 c 0
395 658 m 0
 519.5 658 572.5 623 625 623 c 1
 632 551 637 501 646 459 c 1
 634 453 618 451 602 453 c 1
 577 539 510.5 616 381 616 c 0
 328 616 273 595 234 542 c 0
 197 491 184 413 184 327 c 0
 184 195 238 32 407 32 c 0
 458 32 482 42 514 74 c 1
 514 223 l 2
 514 263 488 267 436 271 c 1
 430 277 430 302 436 308 c 1
 481 307 547 306 584 306 c 0
 622 306 669 307 697 308 c 1
 703 302 703 277 697 271 c 1
 669 268 654 258 654 223 c 2
 654 106 l 2
 654 95 659 87 669 78 c 1
 605 24 497 -10 385 -10 c 0
 280 -10 201 12 138 66 c 0
 69 124 33 217 33 307 c 0
 33 415 72 505 139 565 c 0
 208 627 297 658 395 658 c 0
EndSplineSet
Position2: "'cpsp' Versalabstaende 1" dx=2 dy=0 dh=5 dv=0
EndChar

StartChar: gcommaaccent
Encoding: 291 291 55
Width: 521
VWidth: 999
Flags: HW
HStem: -238 42<164.509 334.426> -25 94<146.499 365.612> 142 38<192.516 272.803> 406 38<182.587 266.209> 508 83<221.276 275.749> 667 28<255.32 286.628>
VStem: 11 109<-154.71 -66.8839> 44 99<58.4478 119> 46 120<221.128 367.201> 160 61<554.5 644.192> 290 122<217.225 367.083> 400 101<-121.848 -51.5623>
LayerCount: 2
Fore
SplineSet
232 508 m 0
 200 508 160 523 160 586 c 0
 160 643 212 683 280 695 c 1
 290 689 290 679 286 667 c 1
 246 656 221 632 221 614 c 0
 221 594 242 593 250 591 c 0
 272 586 283 571 283 546 c 0
 283 529 255 508 232 508 c 0
290 288 m 0
 290 367 270 406 223 406 c 0
 184 406 166 379 166 305 c 0
 166 254 174 180 236 180 c 0
 262 180 290 192 290 288 c 0
175 -25 m 0
 154 -25 141 -23 131 -19 c 1
 120 -39 120 -62 120 -96 c 0
 120 -147 165 -196 231 -196 c 0
 269.3 -196 320 -193.9 351 -176.4 c 0
 383.9 -157.8 400 -117.2 400 -81 c 0
 400 -27.8 251.8 -25 175 -25 c 0
467 394 m 0
 442 394 424 415 420 428 c 1
 417 434 410 440 401 440 c 0
 391 440 358 422 350 412 c 1
 384 384 412 347 412 291 c 0
 412 246.1 391.8 210.5 363 185 c 0
 328.9 154.8 282 142 231 142 c 0
 200 142 178.5 143 157.5 153 c 1
 152.5 141 143 127 143 111 c 0
 143 71 170 69 188 69 c 0
 261.5 69 412.3 62 451 36 c 0
 491.3 8.9 501 -33.6 501 -55 c 0
 501 -165 342 -238 203 -238 c 0
 155.1 -238 88.7 -232.1 50 -205 c 0
 22.5 -185.7 11 -143 11 -106 c 0
 11 -89 55 -32 98 -6 c 1
 78.4 0.4 66.2 8.2 57 22 c 0
 47 37 44 48.9 44 68 c 0
 44 88.2 92 141 123 167.5 c 1
 75 194 46 247 46 296 c 0
 46 347.3 73.4 385.6 114 412 c 0
 147.1 433.5 188.9 444 232 444 c 0
 277 444 298 442 316 432 c 1
 345 458 403 491 447 491 c 0
 485 491 511 462 511 443 c 0
 511 406 495 394 467 394 c 0
EndSplineSet
EndChar

StartChar: Hcircumflex
Encoding: 292 292 56
Width: 817
VWidth: 999
Flags: HW
HStem: -2 34<25.6167 94.4056 273.594 342.383 475.617 544.406 723.594 792.383> 319 48<254 564> 613 34<25.6167 94.4056 273.594 342.383 475.617 544.406 723.594 792.383> 698 136
VStem: 114 140<47 319 367 598> 250 277 564 140<47 319 367 598>
LayerCount: 2
Fore
SplineSet
527 724 m 1
 527 714 520.1 702.2 511 698 c 1
 472 710 414 733 387 754 c 1
 357 732 301 709 264 698 c 1
 254.9 702.2 250 715 250 725 c 1
 292 752 342.2 794.2 377 829 c 1
 391 834 l 1
 427.9 797.1 487 750 527 724 c 1
564 523 m 2
 564 606 536 610 481 613 c 1
 471 619 471 641 481 647 c 1
 521 646 595 645 635 645 c 0
 675 645 747 646 787 647 c 1
 797 641 797 619 787 613 c 1
 732 610 704 606 704 523 c 2
 704 122 l 2
 704 39 732 35 787 32 c 1
 797 26 797 4 787 -2 c 1
 747 -1 675 0 635 0 c 0
 595 0 521 -1 481 -2 c 1
 471 4 471 26 481 32 c 1
 536 35 564 39 564 122 c 2
 564 319 l 1
 254 319 l 1
 254 122 l 2
 254 39 282 35 337 32 c 1
 347 26 347 4 337 -2 c 1
 297 -1 225 0 185 0 c 0
 145 0 71 -1 31 -2 c 1
 21 4 21 26 31 32 c 1
 86 35 114 39 114 122 c 2
 114 523 l 2
 114 606 86 610 31 613 c 1
 21 619 21 641 31 647 c 1
 71 646 145 645 185 645 c 0
 225 645 297 646 337 647 c 1
 347 641 347 619 337 613 c 1
 282 610 254 606 254 523 c 2
 254 367 l 1
 564 367 l 1
 564 523 l 2
EndSplineSet
Position2: "'cpsp' Versalabstaende 1" dx=2 dy=0 dh=5 dv=0
EndChar

StartChar: hcircumflex
Encoding: 293 293 57
Width: 619
VWidth: 999
Flags: HW
HStem: -2 34<19.77 83.2627 243.609 290.23 337.77 384.004 544.737 608.23> 370 74<322.213 438> 640 32<29.1436 89.8851> 678 20<198.5 221.5>
VStem: 100 130<44.1062 331 371 633.241> 229 1<331 371> 398 130<44.1813 351.585>
LayerCount: 2
Fore
SplineSet
403 698 m 1
 433 649 471 605 508 564 c 1
 483 545 l 1
 440 571 411 591 376 628 c 1
 338 589 310 571 270 545 c 1
 245 564 l 1
 281 605 321 650 351 698 c 1
 403 698 l 1
528 128 m 2
 528 44 544 35 605 32 c 1
 611 26 611 4 605 -2 c 1
 562 -1 518.4 0 463 0 c 0
 415.4 0 383 -1 341 -2 c 1
 335 4 335 26 341 32 c 1
 382 35 398 44 398 128 c 2
 398 295 l 2
 398 352 363 370 323 370 c 0
 305.1 370 271.5 358.1 230 331.6 c 1
 230 127 l 2
 230 44 245 35 287 32 c 1
 293 26 293 4 287 -2 c 1
 244 -1 212.6 0 165 0 c 0
 109.6 0 65 -1 23 -2 c 1
 17 4 17 26 23 32 c 1
 84 35 100 44 100 127 c 2
 100 565 l 2
 100 633.6 95 635 32 640 c 1
 27 649 26 660 29 672 c 1
 100 675 180 686 217 698 c 1
 226 698 233 694 233 685 c 2
 233 685 230 648 230 583 c 2
 230 371.6 l 1
 286.8 407.4 358.2 444 395 444 c 0
 481 444 528 394 528 284 c 2
 528 128 l 2
EndSplineSet
EndChar

StartChar: Hbar
Encoding: 294 294 58
Width: 817
VWidth: 999
Flags: HW
HStem: -2 34<25.6167 94.4056 273.594 342.383 475.617 544.406 723.594 792.383> 319 48<254 564> 494 42<27 740> 613 34<25.6167 94.4056 273.594 342.383 475.617 544.406 723.594 792.383>
VStem: 114 140<47 319 367 598> 564 140<47 319 367 598>
LayerCount: 2
Fore
SplineSet
564 493.1 m 1
 488.6 493.7 412.8 494 387 494 c 0
 366.9 494 314 493.9 254 493.5 c 1
 254 367 l 1
 564 367 l 1
 564 493.1 l 1
254.3 536.6 m 1
 317.8 536.2 374.9 536 396 536 c 0
 420.7 536 491.4 536.2 563.7 536.8 c 1
 560.6 606.5 532.8 610.2 481 613 c 1
 471 619 471 641 481 647 c 1
 521 646 595 645 635 645 c 0
 675 645 747 646 787 647 c 1
 797 641 797 619 787 613 c 1
 735.7 610.2 707.9 606.5 704.4 538.5 c 1
 724.8 538.9 740.6 539.4 749 540 c 1
 740 490 l 1
 732.8 490.5 720.3 490.9 704 491.3 c 1
 704 122 l 2
 704 39 732 35 787 32 c 1
 797 26 797 4 787 -2 c 1
 747 -1 675 0 635 0 c 0
 595 0 521 -1 481 -2 c 1
 471 4 471 26 481 32 c 1
 536 35 564 39 564 122 c 2
 564 319 l 1
 254 319 l 1
 254 122 l 2
 254 39 282 35 337 32 c 1
 347 26 347 4 337 -2 c 1
 297 -1 225 0 185 0 c 0
 145 0 71 -1 31 -2 c 1
 21 4 21 26 31 32 c 1
 86 35 114 39 114 122 c 2
 114 492.3 l 1
 68.8 491.7 32.2 490.9 18 490 c 1
 27 540 l 1
 40.2 539.1 72.8 538.5 113.7 537.9 c 1
 110.4 606.5 82.5 610.2 31 613 c 1
 21 619 21 641 31 647 c 1
 71 646 145 645 185 645 c 0
 225 645 297 646 337 647 c 1
 347 641 347 619 337 613 c 1
 285.2 610.2 257.3 606.5 254.3 536.6 c 1
EndSplineSet
Position2: "'cpsp' Versalabstaende 1" dx=2 dy=0 dh=5 dv=0
EndChar

StartChar: hbar
Encoding: 295 295 59
Width: 619
VWidth: 999
Flags: HW
HStem: -2 34<19.77 83.2627 243.609 290.23 337.77 384.004 544.737 608.23> 370 74<322.213 438> 524 42<24 313> 640 32<29.1436 89.8851> 678 20<198.5 221.5>
VStem: 100 130<44.1062 331 371 633.241> 229 1<331 371> 398 130<44.1813 351.585>
LayerCount: 2
Fore
SplineSet
528 128 m 2
 528 44 544 35 605 32 c 1
 611 26 611 4 605 -2 c 1
 562 -1 518.4 0 463 0 c 0
 415.4 0 383 -1 341 -2 c 1
 335 4 335 26 341 32 c 1
 382 35 398 44 398 128 c 2
 398 295 l 2
 398 352 363 370 323 370 c 0
 305.1 370 271.5 358.1 230 331.6 c 1
 230 127 l 2
 230 44 245 35 287 32 c 1
 293 26 293 4 287 -2 c 1
 244 -1 212.6 0 165 0 c 0
 109.6 0 65 -1 23 -2 c 1
 17 4 17 26 23 32 c 1
 84 35 100 44 100 127 c 2
 100 523.4 l 1
 70.2 522.8 41.4 521.8 15 520 c 1
 24 570 l 1
 47.7 568.4 73.4 567.4 100 566.8 c 1
 99.9 633.6 94.5 635 32 640 c 1
 27 649 26 660 29 672 c 1
 100 675 180 686 217 698 c 1
 226 698 233 694 233 685 c 2
 233 685 230 648 230 583 c 2
 230 566.5 l 1
 262.3 567.1 293.5 568.1 322 570 c 1
 313 520 l 1
 287.2 521.7 259.1 522.8 230 523.4 c 1
 230 371.6 l 1
 286.8 407.4 358.2 444 395 444 c 0
 481 444 528 394 528 284 c 2
 528 128 l 2
EndSplineSet
EndChar

StartChar: Itilde
Encoding: 296 296 60
Width: 367
VWidth: 999
Flags: HW
HStem: -2 34<25.6167 94.4056 273.594 342.383> 613 34<25.6167 94.4056 273.594 342.383> 692 70<192.399 293.905> 730 71<85.8584 185.467>
VStem: 46 26<694.865 716.979> 114 140<47 598> 307 28<782.298 798.118>
LayerCount: 2
Fore
SplineSet
258 762 m 0
 272 762 293 769 307 805 c 1
 321 805 335 797 335 785 c 1
 318 727 281 692 244 692 c 0
 221 692 199 698 179 713 c 1
 159 726 139 730 121 730 c 0
 99 730 83 728 72 690 c 1
 60 690 46 694 46 708 c 1
 62 759 94 801 129 801 c 0
 160 801 183 792 203 776 c 0
 221 762 247 762 258 762 c 0
114 523 m 2
 114 606 86 610 31 613 c 1
 21 619 21 641 31 647 c 1
 71 646 145 645 185 645 c 0
 225 645 297 646 337 647 c 1
 347 641 347 619 337 613 c 1
 282 610 254 606 254 523 c 2
 254 122 l 2
 254 39 282 35 337 32 c 1
 347 26 347 4 337 -2 c 1
 297 -1 225 0 185 0 c 0
 145 0 71 -1 31 -2 c 1
 21 4 21 26 31 32 c 1
 86 35 114 39 114 122 c 2
 114 523 l 2
EndSplineSet
Position2: "'cpsp' Versalabstaende 1" dx=2 dy=0 dh=5 dv=0
EndChar

StartChar: itilde
Encoding: 297 297 61
Width: 322
VWidth: 999
Flags: HW
HStem: -2 34<26.77 89.8255 244.175 307.23> 382 34<35.6452 91.2285> 519 70<148.559 239.914> 557 71<52.6726 142.32>
VStem: 16.8 23.4<521.865 543.979> 102 130<41.4929 373.871> 251.7 25.2<609.298 625.118>
AnchorPoint: "unten_punkt" 136 -110 basechar 0
AnchorPoint: "unten_anhang" 142 -2 basechar 0
AnchorPoint: "top_akzent" 139 795 basechar 0
LayerCount: 2
Fore
SplineSet
207.6 589 m 0
 220.2 589 239.1 596 251.7 632 c 1
 264.3 632 276.9 624 276.9 612 c 1
 261.6 554 228.3 519 195 519 c 0
 174.3 519 154.5 525 136.5 540 c 1
 118.5 553 100.5 557 84.3 557 c 0
 64.5 557 50.1 555 40.2 517 c 1
 29.4 517 16.8 521 16.8 535 c 1
 31.2 586 60 628 91.5 628 c 0
 119.4 628 140.1 619 158.1 603 c 0
 174.3 589 197.7 589 207.6 589 c 0
232 122 m 2
 232 39 243 36 304 32 c 1
 310 26 310 4 304 -2 c 1
 261 -1 220.4 0 167 0 c 0
 113.6 0 72 -1 30 -2 c 1
 24 4 24 26 30 32 c 1
 91 37 102 39 102 122 c 2
 102 314 l 2
 102 371 91.5 378.9 37 384 c 1
 35 390 33 410 35 416 c 1
 104 425 184.5 433 213 444 c 1
 227 444 236 438 236 427 c 2
 236 427 232 371 232 321.3 c 2
 232 122 l 2
EndSplineSet
EndChar

StartChar: Imacron
Encoding: 298 298 62
Width: 367
VWidth: 999
Flags: HW
HStem: -2 34<25.6167 94.4056 273.594 342.383> 613 34<25.6167 94.4056 273.594 342.383> 755 50<26.1816 336.647>
VStem: 24 315<755.682 804.598> 114 140<47 598>
LayerCount: 2
Fore
SplineSet
313 755 m 2
 39 755 l 2
 28 755 24 764 24 773 c 0
 24 785 36 805 49 805 c 2
 325 805 l 2
 335 805 339 796 339 788 c 0
 339 775 327 755 313 755 c 2
114 523 m 2
 114 606 86 610 31 613 c 1
 21 619 21 641 31 647 c 1
 71 646 145 645 185 645 c 0
 225 645 297 646 337 647 c 1
 347 641 347 619 337 613 c 1
 282 610 254 606 254 523 c 2
 254 122 l 2
 254 39 282 35 337 32 c 1
 347 26 347 4 337 -2 c 1
 297 -1 225 0 185 0 c 0
 145 0 71 -1 31 -2 c 1
 21 4 21 26 31 32 c 1
 86 35 114 39 114 122 c 2
 114 523 l 2
EndSplineSet
Position2: "'cpsp' Versalabstaende 1" dx=2 dy=0 dh=5 dv=0
EndChar

StartChar: imacron
Encoding: 299 299 63
Width: 322
VWidth: 999
Flags: HW
HStem: -2 34<26.77 89.8255 244.175 307.23> 382 34<35.6452 91.2285> 543 50<16.0634 295.482>
VStem: 14.1 283.5<543.682 592.598> 102 130<41.4929 373.871>
LayerCount: 2
Fore
SplineSet
274.2 543 m 2
 27.6 543 l 2
 17.7 543 14.1 552 14.1 561 c 0
 14.1 573 24.9 593 36.6 593 c 2
 285 593 l 2
 294 593 297.6 584 297.6 576 c 0
 297.6 563 286.8 543 274.2 543 c 2
232 122 m 2
 232 39 243 36 304 32 c 1
 310 26 310 4 304 -2 c 1
 261 -1 220.4 0 167 0 c 0
 113.6 0 72 -1 30 -2 c 1
 24 4 24 26 30 32 c 1
 91 37 102 39 102 122 c 2
 102 314 l 2
 102 371 91.5 378.9 37 384 c 1
 35 390 33 410 35 416 c 1
 104 425 184.5 433 213 444 c 1
 227 444 236 438 236 427 c 2
 236 427 232 371 232 321.3 c 2
 232 122 l 2
EndSplineSet
EndChar

StartChar: Ibreve
Encoding: 300 300 64
Width: 367
VWidth: 999
Flags: HW
HStem: -2 34<25.6167 94.4056 273.594 342.383> 613 34<25.6167 94.4056 273.594 342.383> 705 74<108.883 253.873>
VStem: 47 28<808.109 830.75> 114 140<47 598> 291 27<810.51 830.778>
LayerCount: 2
Fore
SplineSet
318 830 m 1
 312 759 249 705 183 705 c 0
 110 705 52 760 47 830 c 1
 75 833 l 1
 83 794 130 779 183 779 c 0
 232 779 284 794 291 833 c 1
 318 830 l 1
114 523 m 2
 114 606 86 610 31 613 c 1
 21 619 21 641 31 647 c 1
 71 646 145 645 185 645 c 0
 225 645 297 646 337 647 c 1
 347 641 347 619 337 613 c 1
 282 610 254 606 254 523 c 2
 254 122 l 2
 254 39 282 35 337 32 c 1
 347 26 347 4 337 -2 c 1
 297 -1 225 0 185 0 c 0
 145 0 71 -1 31 -2 c 1
 21 4 21 26 31 32 c 1
 86 35 114 39 114 122 c 2
 114 523 l 2
EndSplineSet
Position2: "'cpsp' Versalabstaende 1" dx=2 dy=0 dh=5 dv=0
EndChar

StartChar: ibreve
Encoding: 301 301 65
Width: 322
VWidth: 999
Flags: HW
HStem: -2 34<26.77 89.8255 244.175 307.23> 382 34<35.6452 91.2285> 514 74<84.5189 213.719>
VStem: 24.2 29.7<621.43 659.121> 102 130<41.4929 373.871> 247.4 28.8<624.913 659.188>
LayerCount: 2
Fore
SplineSet
53.9 667 m 1
 55.7 613 94.4 588 151.1 588 c 0
 193.4 588 244.7 603 247.4 667 c 1
 276.2 657 l 1
 267.2 552 197 514 151.1 514 c 0
 78.2 514 30.5 576 24.2 657 c 1
 53.9 667 l 1
232 122 m 2
 232 39 243 36 304 32 c 1
 310 26 310 4 304 -2 c 1
 261 -1 220.4 0 167 0 c 0
 113.6 0 72 -1 30 -2 c 1
 24 4 24 26 30 32 c 1
 91 37 102 39 102 122 c 2
 102 314 l 2
 102 371 91.5 378.9 37 384 c 1
 35 390 33 410 35 416 c 1
 104 425 184.5 433 213 444 c 1
 227 444 236 438 236 427 c 2
 236 427 232 371 232 321.3 c 2
 232 122 l 2
EndSplineSet
EndChar

StartChar: Iogonek
Encoding: 302 302 66
Width: 367
VWidth: 999
Flags: HW
HStem: -232 60<158.359 241.312> -2 34<25.6167 94.4056 273.594 342.383> 1 21<233.742 247> 613 34<25.6167 94.4056 273.594 342.383>
VStem: 79 92<-169.449 -74.1839> 114 140<47 598>
AnchorPoint: "top_akzent" 146 850 basechar 0
LayerCount: 2
Fore
SplineSet
277 -177 m 1
 251 -213 207 -232 168 -232 c 0
 148.7 -232 132.4 -225.4 118 -216 c 0
 95.1 -201 79 -175.9 79 -136 c 0
 79 -87.6 126.4 -30.6 178.4 -0 c 1
 137.3 -0.1 68.9 -1.1 31 -2 c 1
 21 4 21 26 31 32 c 1
 86 35 114 39 114 122 c 2
 114 523 l 2
 114 606 86 610 31 613 c 1
 21 619 21 641 31 647 c 1
 71 646 145 645 185 645 c 0
 225 645 297 646 337 647 c 1
 347 641 347 619 337 613 c 1
 282 610 254 606 254 523 c 2
 254 122 l 2
 254 39 282 35 337 32 c 1
 347 26 347 4 337 -2 c 1
 315.6 -1.5 285 -0.9 255.1 -0.5 c 1
 208.8 -10.7 171 -69.5 171 -130 c 0
 171 -162 188.5 -172 206 -172 c 0
 223 -172 247 -169 262 -154 c 1
 277 -177 l 1
EndSplineSet
Position2: "'cpsp' Versalabstaende 1" dx=2 dy=0 dh=5 dv=0
EndChar

StartChar: iogonek
Encoding: 303 303 67
Width: 322
VWidth: 999
Flags: HW
HStem: -232 60<158.359 241.312> -2 34<26.77 89.8255 244.175 307.23> 1 21<233.742 247> 382 34<35.6452 91.2285> 530 128<113.302 213.126 113.302 213.126>
VStem: 79 92<-169.449 -74.1839> 97 135<548.993 640.845 548.993 640.845> 102 130<41.4929 373.871>
AnchorPoint: "top_akzent" 132 825 basechar 0
LayerCount: 2
Fore
SplineSet
277 -177 m 1
 251 -213 207 -232 168 -232 c 0
 148.7 -232 132.4 -225.4 118 -216 c 0
 95.1 -201 79 -175.9 79 -136 c 0
 79 -87.6 126.4 -30.6 178.4 -0 c 1
 174.7 0 170.9 0 167 0 c 0
 113.6 0 72 -1 30 -2 c 1
 24 4 24 26 30 32 c 1
 91 37 102 39 102 122 c 2
 102 314 l 2
 102 371 91.5 378.9 37 384 c 1
 35 390 33 410 35 416 c 1
 104 425 184.5 433 213 444 c 1
 227 444 236 438 236 427 c 2
 236 427 232 371 232 321.3 c 2
 232 122 l 2
 232 39 243 36 304 32 c 1
 310 26 310 4 304 -2 c 1
 287.1 -1.6 270.6 -1.2 253.6 -0.9 c 1
 208 -12 171 -70.2 171 -130 c 0
 171 -162 188.5 -172 206 -172 c 0
 223 -172 247 -169 262 -154 c 1
 277 -177 l 1
97 596 m 0
 97 626 120 658 167 658 c 0
 209 658 232 622 232 592 c 0
 232 566 206 530 161 530 c 0
 121 530 97 563 97 596 c 0
EndSplineSet
EndChar

StartChar: Idotaccent
Encoding: 304 304 68
Width: 367
VWidth: 999
Flags: HW
HStem: -2 34<25.6167 94.4056 273.594 342.383> 613 34<25.6167 94.4056 273.594 342.383> 709 124<136.2 229.8>
VStem: 114 140<47 598> 121 124<724.2 817.8>
LayerCount: 2
Fore
SplineSet
121 771 m 0
 121 805 149 833 183 833 c 0
 217 833 245 805 245 771 c 0
 245 737 217 709 183 709 c 0
 149 709 121 737 121 771 c 0
114 523 m 2
 114 606 86 610 31 613 c 1
 21 619 21 641 31 647 c 1
 71 646 145 645 185 645 c 0
 225 645 297 646 337 647 c 1
 347 641 347 619 337 613 c 1
 282 610 254 606 254 523 c 2
 254 122 l 2
 254 39 282 35 337 32 c 1
 347 26 347 4 337 -2 c 1
 297 -1 225 0 185 0 c 0
 145 0 71 -1 31 -2 c 1
 21 4 21 26 31 32 c 1
 86 35 114 39 114 122 c 2
 114 523 l 2
EndSplineSet
Substitution2: "LinLibertine-'c2sc' Versale nach Kapitaelchen 1" idotaccent.sc
Position2: "'cpsp' Versalabstaende 1" dx=2 dy=0 dh=5 dv=0
EndChar

StartChar: afii10057
Encoding: 1032 1032 69
Width: 445
VWidth: 999
Flags: HW
HStem: -10 59<85.5 193.717> 613 34<112.77 195.807 367.92 433.23>
VStem: 213 140<134.42 599.635>
LayerCount: 2
Fore
SplineSet
353 522 m 2
 353 260 l 2
 353 117 295 65 251 28 c 0
 210 -7 159 -10 100 -10 c 0
 71 -10 2 14 2 61 c 0
 2 90 42 117 60 117 c 0
 100 117 111.5 92.4 118 72 c 0
 122.7 57.3 146 49 164 49 c 0
 193.7 49 213 78 213 258 c 2
 213 522 l 2
 213 605 196 610 116 613 c 1
 110 619 110 641 116 647 c 1
 166 646 217.3 645 282 645 c 0
 339.7 645 391.3 646 430 647 c 1
 436 641 436 619 430 613 c 1
 370 610 353 605 353 522 c 2
EndSplineSet
EndChar

StartChar: afii10061
Encoding: 1036 1036 70
Width: 709
VWidth: 999
Flags: HW
HStem: -2 34<25.6167 94.4056 273.594 342.383> 0 33<658.873 709.23> 310 42<250 297.085> 559 103<521.105 630.504> 613 34<25.6167 94.4056 273.594 342.383> 701 132
VStem: 114 140<47 598> 370 202
LayerCount: 2
Fore
SplineSet
114 523 m 2
 114 606 86 610 31 613 c 1
 21 619 21 641 31 647 c 1
 71 646 145 645 185 645 c 0
 225 645 297 646 337 647 c 1
 347 641 347 619 337 613 c 1
 282 610 254 606 254 523 c 2
 254 352 l 1
 340.2 352.5 364.1 368.8 399.6 440.7 c 0
 417.2 476.3 436.5 533 454 563.5 c 0
 482.4 613 528 662 586 662 c 0
 634 662 670 635 670 612 c 0
 670 575 645 535 626 535 c 0
 614 535 601 537 592 547 c 0
 584.4 555.5 569 559 560 559 c 0
 546 559 528 558.5 509 536 c 0
 490.7 514.3 472.9 471.5 459.4 438 c 0
 445.1 402.4 432.8 369.3 404 353 c 1
 404 348 l 1
 425.5 345 447.8 324.3 472.6 296 c 0
 517.8 244.4 556.3 161.1 601 102.1 c 0
 631.6 61.7 667.5 36.5 706 33 c 1
 712 27 712 5 706 -1 c 1
 685 -4 633 -6 613 -6 c 0
 593 -6 557.6 -3.7 538 0 c 0
 475 12 444 55 389 161 c 0
 356.4 223.8 307.4 306 254 309.9 c 1
 254 122 l 2
 254 39 282 35 337 32 c 1
 347 26 347 4 337 -2 c 1
 297 -1 225 0 185 0 c 0
 145 0 71 -1 31 -2 c 1
 21 4 21 26 31 32 c 1
 86 35 114 39 114 122 c 2
 114 523 l 2
507 833 m 1
 531.8 821.4 559.2 798.6 572 778 c 1
 569 766 l 1
 425 708 l 2
 410.5 702.2 399 701 390 701 c 0
 381 701 370 708 370 716 c 0
 370 723 370.3 728.7 380 737 c 0
 401 755 467 805 507 833 c 1
EndSplineSet
LCarets2: 1 0 
EndChar

StartChar: uni040D
Encoding: 1037 1037 71
Width: 814
VWidth: 999
Flags: HW
HStem: -2 34<25.6167 94.4056 273.594 342.383 471.617 540.406 719.594 788.383> 571 120 613 34<25.6167 94.4056 273.594 342.383 471.617 540.406 719.594 788.383>
VStem: 114 140<47 122 161.325 598> 283 212 560 140<47 477.343 523 598>
DStem2: 253.992 161.325 253.992 83.3252 0.613389 0.789781<0 437.292>
LayerCount: 2
Fore
SplineSet
114 523 m 2
 114 606 86 610 31 613 c 1
 21 619 21 641 31 647 c 1
 71 646 145 645 185 645 c 0
 225 645 297 646 337 647 c 1
 347 641 347 619 337 613 c 1
 282 610 254 606 254 523 c 2
 254 161.3 l 1
 558.4 553.3 l 1
 551.7 607.1 524.4 610.4 477 613 c 1
 467 619 467 641 477 647 c 1
 517 646 591 645 631 645 c 0
 671 645 743 646 783 647 c 1
 793 641 793 619 783 613 c 1
 728 610 700 606 700 523 c 2
 700 122 l 2
 700 39 728 35 783 32 c 1
 793 26 793 4 783 -2 c 1
 743 -1 671 0 631 0 c 0
 591 0 517 -1 477 -2 c 1
 467 4 467 26 477 32 c 1
 532 35 560 39 560 122 c 2
 560 477.3 l 1
 256.4 86.4 l 1
 264.2 37.7 291.3 34.5 337 32 c 1
 347 26 347 4 337 -2 c 1
 297 -1 225 0 185 0 c 0
 145 0 71 -1 31 -2 c 1
 21 4 21 26 31 32 c 1
 86 35 114 39 114 122 c 2
 114 523 l 2
347 830 m 1
 322 818 295 796 282 775 c 1
 285 763 l 1
 429 705 l 2
 443 699 455 698 464 698 c 0
 473 698 484 705 484 713 c 0
 484 720 484 726 474 734 c 0
 453 752 387 802 347 830 c 1
EndSplineSet
LCarets2: 1 0 
EndChar

StartChar: afii10062
Encoding: 1038 1038 72
Width: 667
VWidth: 999
Flags: HW
HStem: -29 81<199.091 281.302> 613 34<11.77 76.8217 253.092 328.23 421.77 488.481 589.686 655.23> 693 42<313.506 407.415>
VStem: 229 86<736.453 807.149> 407 86<737.719 808.265>
DStem2: 251 574 106 559 0.419188 -0.907899<-21.3706 315.432> 311 115 404 161 0.375989 0.926624<-70.5818 0 187.261 514.364>
LayerCount: 2
Fore
SplineSet
552 543 m 2
 404 161 l 2
 361.7 51.7 296 -29 206 -29 c 0
 146 -29 99 8 99 40 c 0
 99 68 114 97 146 97 c 0
 171 97 188.2 87.1 197 75 c 0
 205 64 219 52 234 52 c 0
 264 52 287 53 311 115 c 1
 106 559 l 2
 84.7 605 54 609 15 613 c 1
 9 619 9 641 15 647 c 1
 52 646 108 645 149 645 c 0
 188 645 288 646 325 647 c 1
 331 641 331 619 325 613 c 1
 277 610 237.1 604.5 251 574 c 2
 380.6 289 l 2
 382.6 284.6 387.4 284.2 390 291 c 2
 494 566 l 2
 508.3 603.9 463 610 425 613 c 1
 419 619 419 641 425 647 c 1
 462 646 517 645 558 645 c 0
 597 645 625.8 646 652 647 c 1
 658 641 658 619 652 613 c 1
 608 610 575.4 603.4 552 543 c 2
493 779 m 0
 493 713 427 693 360 693 c 0
 292 693 229 712 229 777 c 0
 229 799 251 812 275 812 c 0
 298 812 315 800 315 781 c 0
 315 777.3 313 764.7 313 761 c 0
 313 739.7 322 735 361 735 c 0
 399 735 409 741.3 409 761 c 0
 409 767.3 407 773.6 407 780 c 0
 407 800 428 812 448 812 c 0
 473 812 493 802 493 779 c 0
EndSplineSet
LCarets2: 1 0 
EndChar

StartChar: afii10020
Encoding: 1043 1043 73
Width: 551
VWidth: 999
Flags: HW
HStem: -2 34<11.6167 80.4056 259.594 328.383> 603 42<247.972 424.224> 613 34<11.6167 80.4056>
VStem: 100 140<47 598> 497 43<477.51 528.239>
LayerCount: 2
Fore
SplineSet
335 603 m 2
 275 603 l 2
 254 603 240 584 240 524 c 2
 240 122 l 2
 240 39 268 35 323 32 c 1
 333 26 333 4 323 -2 c 1
 241 -1 211 0 171 0 c 0
 131 0 17 -2 17 -2 c 1
 7 4 7 26 17 32 c 1
 72 35 100 39 100 122 c 2
 100 523 l 2
 100 606 72 610 17 613 c 1
 7 619 7 641 17 647 c 1
 17 647 132 645 171 645 c 2
 394 645 l 2
 423 645 514 647 514 647 c 1
 524 597 534 532 540 480 c 1
 530 475 509 473 497 475 c 1
 477 547 440 603 335 603 c 2
EndSplineSet
EndChar

StartChar: afii10021
Encoding: 1044 1044 74
Width: 662
VWidth: 999
Flags: HW
HStem: 0 44<152.906 402.601> 601 44<238.456 407.94> 613 34<107.77 176.37 568.594 635.23>
VStem: 8 42<-138.302 -82.0589> 409 140<49.9022 598> 585 42<-138.302 -82.0589>
LayerCount: 2
Fore
SplineSet
492 645 m 2
 532 645 592 646 632 647 c 1
 638 641 638 619 632 613 c 1
 577 610 549 606 549 523 c 2
 549 122 l 2
 549 62 567 42 591 42 c 0
 616 42 620 30 621 22 c 2
 627 -136 l 1
 615 -141 600 -143 585 -140 c 1
 570 -69 526 0 448 0 c 2
 187 0 l 2
 109 0 65 -69 50 -140 c 1
 35 -143 20 -141 8 -136 c 1
 14 22 l 2
 14.5 34.5 30.2 41.2 44 44 c 0
 59 47 68.3 53.9 79 70.5 c 0
 102.5 107 116 145 148 301 c 1
 170 415 182 513 182 576 c 0
 182 608 158.2 610.2 111 613 c 1
 105 619 105 641 111 647 c 1
 111 647 191 645 221 645 c 2
 492 645 l 2
372 601 m 2
 274 601 l 2
 247 601 237 587 235 562 c 0
 227 461 211 361 199 293 c 0
 177 176 152 82 152 61 c 0
 152 49 165 44 179 44 c 2
 363 44 l 2
 387 44 409 57 409 94 c 2
 409 562 l 2
 409 593 403 601 372 601 c 2
EndSplineSet
EndChar

StartChar: afii10024
Encoding: 1046 1046 75
Width: 1014
VWidth: 999
Flags: HW
HStem: -2 34<348.617 417.406 596.594 665.383> -1 34<-9.22998 42.4753 971.525 1023.23> 310 42<392.672 440 574 621.328> 558 104<73.4186 169.063 844.938 940.581> 613 34<348.617 417.406 596.594 665.383>
VStem: 437 140<47 598>
LayerCount: 2
Fore
SplineSet
1020 -1 m 1
 999 -4 957 -6 937 -6 c 0
 917 -6 882 -4 862 0 c 0
 799 12 768 55 713 161 c 0
 680.6 223.8 630.9 306.9 577 309.9 c 1
 577 122 l 2
 577 39 605 35 660 32 c 1
 670 26 670 4 660 -2 c 1
 620 -1 548 0 508 0 c 0
 468 0 394 -1 354 -2 c 1
 344 4 344 26 354 32 c 1
 409 35 437 39 437 122 c 2
 437 309.9 l 1
 383.1 306.9 333.4 223.8 301 161 c 0
 246 55 215 12 152 0 c 0
 132 -4 97 -6 77 -6 c 0
 57 -6 15 -4 -6 -1 c 1
 -12 5 -12 27 -6 33 c 1
 32 37 68 62 99 102 c 0
 144 161 182 244 227 296 c 0
 252 324 274 345 296 348 c 1
 296 353 l 1
 267 369 255 402 241 438 c 0
 228 472 209 514 191 536 c 0
 172 558 164 558 150 558 c 0
 139 558 126 555 118 547 c 0
 109 537 96 535 84 535 c 0
 65 535 40 575 40 612 c 0
 40 635 56 662 104 662 c 0
 162 662 208 614 236 564 c 1
 254 534 272 477 290 441 c 0
 325.6 368.8 349.5 352.4 437 352 c 1
 437 523 l 2
 437 606 409 610 354 613 c 1
 344 619 344 641 354 647 c 1
 394 646 468 645 508 645 c 0
 548 645 620 646 660 647 c 1
 670 641 670 619 660 613 c 1
 605 610 577 606 577 523 c 2
 577 352 l 1
 664.5 352.4 688.4 368.8 724 441 c 0
 742 477 760 534 778 564 c 1
 806 614 852 662 910 662 c 0
 958 662 974 635 974 612 c 0
 974 575 949 535 930 535 c 0
 918 535 905 537 896 547 c 0
 888 555 875 558 864 558 c 0
 850 558 842 558 823 536 c 0
 805 514 786 472 773 438 c 0
 759 402 747 369 718 353 c 1
 718 348 l 1
 740 345 762 324 787 296 c 0
 832 244 870 161 915 102 c 0
 946 62 982 37 1020 33 c 1
 1026 27 1026 5 1020 -1 c 1
EndSplineSet
EndChar

StartChar: afii10025
Encoding: 1047 1047 76
Width: 581
VWidth: 999
Flags: HW
HStem: -10 42<178.067 328.365> 331 47<160.059 302.227> 616 42<188.075 312.962>
VStem: 30 106<75.875 151.25> 61 50<475.132 530.147> 347 139<432.723 581.804> 385 150<109.567 268.889>
LayerCount: 2
Fore
SplineSet
280 658 m 0
 399 658 486 611 486 515 c 0
 486 428 428 379 373 360 c 1
 373 356 l 1
 443 336 535 297 535 192 c 0
 535 50 387 -10 249 -10 c 0
 168 -10 104 19 73 43 c 0
 46 64 30 91 30 118 c 0
 30 144 47 165 70 165 c 0
 98 165 126 152 136 120 c 0
 160 48 198.5 32 252 32 c 0
 322 32 385 70 385 176 c 0
 385 227 376 328 259 331 c 2
 176 333 l 2
 165 333 160 342 160 354 c 0
 160 365 165 376 176 376 c 2
 223 378 l 2
 340 383 347 451 347 506 c 0
 347 573 313 616 256 616 c 0
 171 616 129 540 111 474 c 1
 97 470 72 470 61 479 c 1
 61 532 65 573 72 631 c 1
 127 639 187 658 280 658 c 0
EndSplineSet
EndChar

StartChar: afii10026
Encoding: 1048 1048 77
Width: 814
VWidth: 999
Flags: HW
HStem: -2 34<25.6167 94.4056 273.594 342.383 471.617 540.406 719.594 788.383> 613 34<25.6167 94.4056 273.594 342.383 471.617 540.406 719.594 788.383>
VStem: 114 140<47 122 161.325 598> 560 140<47 477.343 523 598>
DStem2: 253.992 161.325 253.992 83.3252 0.613389 0.789781<0 437.292>
LayerCount: 2
Fore
SplineSet
114 523 m 2
 114 606 86 610 31 613 c 1
 21 619 21 641 31 647 c 1
 71 646 145 645 185 645 c 0
 225 645 297 646 337 647 c 1
 347 641 347 619 337 613 c 1
 282 610 254 606 254 523 c 2
 254 161.3 l 1
 558.4 553.3 l 1
 551.7 607.1 524.4 610.4 477 613 c 1
 467 619 467 641 477 647 c 1
 517 646 591 645 631 645 c 0
 671 645 743 646 783 647 c 1
 793 641 793 619 783 613 c 1
 728 610 700 606 700 523 c 2
 700 122 l 2
 700 39 728 35 783 32 c 1
 793 26 793 4 783 -2 c 1
 743 -1 671 0 631 0 c 0
 591 0 517 -1 477 -2 c 1
 467 4 467 26 477 32 c 1
 532 35 560 39 560 122 c 2
 560 477.3 l 1
 256.4 86.4 l 1
 264.2 37.7 291.3 34.5 337 32 c 1
 347 26 347 4 337 -2 c 1
 297 -1 225 0 185 0 c 0
 145 0 71 -1 31 -2 c 1
 21 4 21 26 31 32 c 1
 86 35 114 39 114 122 c 2
 114 523 l 2
EndSplineSet
EndChar

StartChar: afii10027
Encoding: 1049 1049 78
Width: 814
VWidth: 999
Flags: HW
HStem: -2 34<25.6167 94.4056 273.594 342.383 471.617 540.406 719.594 788.383> 613 34<25.6167 94.4056 273.594 342.383 471.617 540.406 719.594 788.383> 693 42<352.506 446.415>
VStem: 114 140<47 122 161.325 598> 268 86<736.453 807.149> 446 86<737.719 808.265> 560 140<47 477.343 523 598>
DStem2: 253.992 161.325 253.992 83.3252 0.613389 0.789781<0 437.292>
LayerCount: 2
Fore
SplineSet
114 523 m 2
 114 606 86 610 31 613 c 1
 21 619 21 641 31 647 c 1
 71 646 145 645 185 645 c 0
 225 645 297 646 337 647 c 1
 347 641 347 619 337 613 c 1
 282 610 254 606 254 523 c 2
 254 161.3 l 1
 558.4 553.3 l 1
 551.7 607.1 524.4 610.4 477 613 c 1
 467 619 467 641 477 647 c 1
 517 646 591 645 631 645 c 0
 671 645 743 646 783 647 c 1
 793 641 793 619 783 613 c 1
 728 610 700 606 700 523 c 2
 700 122 l 2
 700 39 728 35 783 32 c 1
 793 26 793 4 783 -2 c 1
 743 -1 671 0 631 0 c 0
 591 0 517 -1 477 -2 c 1
 467 4 467 26 477 32 c 1
 532 35 560 39 560 122 c 2
 560 477.3 l 1
 256.4 86.4 l 1
 264.2 37.7 291.3 34.5 337 32 c 1
 347 26 347 4 337 -2 c 1
 297 -1 225 0 185 0 c 0
 145 0 71 -1 31 -2 c 1
 21 4 21 26 31 32 c 1
 86 35 114 39 114 122 c 2
 114 523 l 2
532 779 m 0
 532 713 466 693 399 693 c 0
 331 693 268 712 268 777 c 0
 268 799 290 812 314 812 c 0
 337 812 354 800 354 781 c 0
 354 777.3 352 764.7 352 761 c 0
 352 739.7 361 735 400 735 c 0
 438 735 448 741.3 448 761 c 0
 448 767.3 446 773.6 446 780 c 0
 446 800 467 812 487 812 c 0
 512 812 532 802 532 779 c 0
EndSplineSet
LCarets2: 1 0 
EndChar

StartChar: afii10033
Encoding: 1055 1055 79
Width: 778
VWidth: 999
Flags: HW
HStem: -2 34<25.6167 94.4056 273.594 342.383 435.617 504.406 683.594 752.383> 603 44<268.875 510.204> 613 34<25.6167 94.4056 683.594 752.383>
VStem: 114 140<47 587.938> 524 140<47 588.125>
LayerCount: 2
Fore
SplineSet
114 523 m 2
 114 606 86 610 31 613 c 1
 21 619 21 641 31 647 c 1
 71 646 145 645 185 645 c 0
 247.3 645 326.2 647 388 647 c 0
 451.1 647 531.3 645 595 645 c 0
 635 645 707 646 747 647 c 1
 757 641 757 619 747 613 c 1
 692 610 664 606 664 523 c 2
 664 122 l 2
 664 39 692 35 747 32 c 1
 757 26 757 4 747 -2 c 1
 707 -1 635 0 595 0 c 0
 555 0 481 -1 441 -2 c 1
 431 4 431 26 441 32 c 1
 496 35 524 39 524 122 c 2
 524 523 l 2
 524 593 496 600 441 603 c 1
 337 603 l 1
 282 600 254 592.5 254 523 c 2
 254 122 l 2
 254 39 282 35 337 32 c 1
 347 26 347 4 337 -2 c 1
 297 -1 225 0 185 0 c 0
 145 0 71 -1 31 -2 c 1
 21 4 21 26 31 32 c 1
 86 35 114 39 114 122 c 2
 114 523 l 2
EndSplineSet
EndChar

StartChar: afii10034
Encoding: 1056 1056 80
Width: 614
VWidth: 999
Flags: HW
HStem: -2 34<25.6167 94.4056 273.594 342.383> 277 42<293.121 398.435> 613 34<25.6167 94.4056> 613 41<148.188 389.09>
VStem: 114 140<47 598> 439 151<383.919 562.042>
LayerCount: 2
Fore
SplineSet
346 654 m 0
 421 654 476 642.8 513 621 c 0
 575.1 584.3 590 524.1 590 484 c 0
 590 430.9 572.7 366 523 325 c 0
 482.8 291.9 421.1 277 333 277 c 0
 309 277 312 278 298 280 c 1
 284 289 278 303 278 322 c 1
 292 320 313 319 328 319 c 0
 410 319 439 363 439 467 c 0
 439 589 372 613 314 613 c 0
 261 613 254 592 254 524 c 2
 254 122 l 2
 254 39 282 35 337 32 c 1
 347 26 347 4 337 -2 c 1
 297 -1 225 0 185 0 c 0
 145 0 71 -1 31 -2 c 1
 21 4 21 26 31 32 c 1
 86 35 114 39 114 122 c 2
 114 523 l 2
 114 606 86 610 31 613 c 1
 21 619 21 641 31 647 c 1
 71 647 306 654 346 654 c 0
EndSplineSet
EndChar

StartChar: afii10035
Encoding: 1057 1057 81
Width: 706
VWidth: 999
Flags: HW
HStem: -10 52<319.411 502.57> 617 41<309.587 488.187>
VStem: 37 151<207.875 440.344> 596 43<455.199 507.556>
LayerCount: 2
Fore
SplineSet
397 -10 m 0
 300 -10 222 7 158 53 c 0
 77.8 110.7 37 221.1 37 315 c 0
 37 535.2 202 658 398 658 c 0
 521 658 566 618 617 613 c 1
 626 558 634 510 639 458 c 1
 627.7 452 608 449 596 453 c 1
 570 539 525 617 387 617 c 0
 268 617 188 489.4 188 334 c 0
 188 178 280 42 396 42 c 0
 466 42 547 68 618 146 c 1
 629 146 646 134 651 125 c 1
 583 36 494 -10 397 -10 c 0
EndSplineSet
EndChar

StartChar: afii10036
Encoding: 1058 1058 82
Width: 652
VWidth: 999
Flags: HW
HStem: -2 34<164.77 247.807 422.193 505.23> 604 41<92.255 252.482 417.34 557.54>
VStem: 3 39<501.917 547.732> 265 140<45.3649 595.442> 607 39<504.917 551.486>
LayerCount: 2
Fore
SplineSet
405 123 m 2
 405 40 422 35 502 32 c 1
 508 26 508 4 502 -2 c 1
 452 -1 398.9 0 333 0 c 0
 268.6 0 217 -1 168 -2 c 1
 162 4 162 26 168 32 c 1
 248 35 265 40 265 123 c 2
 265 506 l 2
 265 567 255 604 218 604 c 2
 169 604 l 2
 103 604 62 579 42 499 c 1
 30 499 13 500 3 504 c 1
 14 552 24 605 28 650 c 0
 28 651 30 653 32 653 c 0
 70 650 188 645 265 645 c 2
 406 645 l 2
 485 645 596 650 630 653 c 0
 631 653 633 651 633 650 c 0
 634 605 639 553 646 507 c 1
 637 503 618 502 607 502 c 1
 590 579 548 604 473 604 c 2
 451 604 l 2
 415 604 405 567 405 503 c 2
 405 123 l 2
EndSplineSet
EndChar

StartChar: afii10037
Encoding: 1059 1059 83
Width: 667
VWidth: 999
Flags: HW
HStem: -29 81<199.091 281.302> 613 34<11.77 76.8217 253.092 328.23 421.77 488.481 589.686 655.23>
DStem2: 251 574 106 559 0.419188 -0.907899<-21.3706 315.432> 311 115 404 161 0.375989 0.926624<-70.5818 0 187.261 514.364>
LayerCount: 2
Fore
SplineSet
552 543 m 2
 404 161 l 2
 361.7 51.7 296 -29 206 -29 c 0
 146 -29 99 8 99 40 c 0
 99 68 114 97 146 97 c 0
 171 97 188.2 87.1 197 75 c 0
 205 64 219 52 234 52 c 0
 264 52 287 53 311 115 c 1
 106 559 l 2
 84.7 605 54 609 15 613 c 1
 9 619 9 641 15 647 c 1
 52 646 108 645 149 645 c 0
 188 645 288 646 325 647 c 1
 331 641 331 619 325 613 c 1
 277 610 237.1 604.5 251 574 c 2
 380.6 289 l 2
 382.6 284.6 387.4 284.2 390 291 c 2
 494 566 l 2
 508.3 603.9 463 610 425 613 c 1
 419 619 419 641 425 647 c 1
 462 646 517 645 558 645 c 0
 597 645 625.8 646 652 647 c 1
 658 641 658 619 652 613 c 1
 608 610 575.4 603.4 552 543 c 2
EndSplineSet
EndChar

StartChar: afii10039
Encoding: 1061 1061 84
Width: 718
VWidth: 999
Flags: HW
HStem: -1 34<6.77002 80.0464 196.88 246.23 406.77 452.627 648.071 710.369> 613 34<31.631 88.656 288.414 339.23 459.77 509.12 614.004 684.23>
DStem2: 602.335 99.001 434.006 88.9912 0.521857 -0.853033<-285.845 -32.2384>
LayerCount: 2
Fore
SplineSet
434 89 m 1
 342 246 l 2
 328.5 269.1 321.7 271.3 312 258 c 0
 269.7 199.7 231 142.3 199 82 c 0
 183.3 52.4 198.7 36 243 33 c 1
 249 27 249 5 243 -1 c 1
 203 0 144 1 121 1 c 0
 98 1 40 0 10 -1 c 1
 4 5 4 27 10 33 c 1
 54.7 37.3 90 45.4 117.8 81 c 2
 282 291 l 2
 298.2 311.7 297.9 316 278 344 c 2
 133.7 547 l 2
 95.9 600.1 77 610 35 613 c 1
 29 619 28 641 34 647 c 1
 64 646 150 645 189 645 c 0
 229 645 296 646 336 647 c 1
 342 641 342 619 336 613 c 1
 280 610 278.7 594.3 301 557 c 2
 377.7 428.7 l 2
 389 409.6 395.7 402 406.7 414.7 c 0
 448.2 462.5 480 516 507 564 c 1
 522 594 507.3 610 463 613 c 1
 457 619 457 641 463 647 c 1
 503 646 556 645 579 645 c 0
 602 645 651 646 681 647 c 1
 687 641 687 619 681 613 c 1
 636.3 608.7 605.7 600.8 578.2 565 c 2
 443 388.7 l 2
 426.2 366.7 425.6 359.5 447.7 327 c 2
 602.3 99 l 2
 638.9 45.1 665 36 707 33 c 1
 713 27 714 5 708 -1 c 1
 678 0 605 1 566 1 c 0
 526 1 450 0 410 -1 c 1
 404 5 404 27 410 33 c 1
 466 36 459.2 53.7 434 89 c 1
EndSplineSet
EndChar

StartChar: afii10040
Encoding: 1062 1062 85
Width: 783
Flags: HW
HStem: -2 44<267.796 509.125> -2 34<25.6167 94.4056> 613 34<25.6167 94.4056 273.594 342.383 435.617 504.406 683.594 752.383>
VStem: 114 140<56.875 598> 524 140<57.0684 598> 700 42<-138.395 -81.906>
LayerCount: 2
Fore
SplineSet
563 0 m 2
 563 0 451.8 -2 390 -2 c 0
 326.9 -2 246.7 0 183 0 c 0
 143 0 71 -1 31 -2 c 1
 21 4 21 26 31 32 c 1
 86 35 114 39 114 122 c 2
 114 523 l 2
 114 606 86 610 31 613 c 1
 21 619 21 641 31 647 c 1
 71 646 143 645 183 645 c 0
 223 645 297 646 337 647 c 1
 347 641 347 619 337 613 c 1
 282 610 254 606 254 523 c 2
 254 122 l 2
 254 52 282 45 337 42 c 1
 441 42 l 1
 496 45 524 52.5 524 122 c 2
 524 523 l 2
 524 606 496 610 441 613 c 1
 431 619 431 641 441 647 c 1
 481 646 553 645 593 645 c 0
 633 645 707 646 747 647 c 1
 757 641 757 619 747 613 c 1
 692 610 664 606 664 523 c 2
 664 122 l 2
 664 61.5 682 42 706 42 c 0
 731 42 735 30 736 22 c 2
 742 -136 l 1
 729.7 -141.3 715 -142.7 700 -140 c 1
 685 -69 641 0.9 563 0 c 2
EndSplineSet
EndChar

StartChar: afii10041
Encoding: 1063 1063 86
Width: 733
Flags: HW
HStem: -2 34<391.617 460.406 639.594 708.383> 238 73<204 391.822> 613 34<18.6167 87.4056 266.594 335.383 391.617 460.406 639.594 708.383>
VStem: 107 140<330.456 598> 480 140<47 598>
LayerCount: 2
Fore
SplineSet
480 523 m 2
 480 606 452 610 397 613 c 1
 387 619 387 641 397 647 c 1
 437 646 511 645 551 645 c 0
 591 645 663 646 703 647 c 1
 713 641 713 619 703 613 c 1
 648 610 620 606 620 523 c 2
 620 122 l 2
 620 39 648 35 703 32 c 1
 713 26 713 4 703 -2 c 1
 663 -1 591 0 551 0 c 0
 511 0 437 -1 397 -2 c 1
 387 4 387 26 397 32 c 1
 452 35 480 39 480 122 c 2
 480 303 l 1
 407 252 319 238 261 238 c 0
 147 238 107 307 107 406 c 2
 107 523 l 2
 107 606 79 610 24 613 c 1
 14 619 14 641 24 647 c 1
 64 646 138 645 178 645 c 0
 218 645 290 646 330 647 c 1
 340 641 340 619 330 613 c 1
 275 610 247 606 247 523 c 2
 247 420 l 2
 247 338 261 311 333 311 c 0
 362 311 416 314 480 356 c 1
 480 523 l 2
EndSplineSet
EndChar

StartChar: afii10042
Encoding: 1064 1064 87
Width: 1188
Flags: HW
HStem: -2 44<267.772 510.228 677.772 920.228> -2 34<25.6167 94.4056 1093.59 1162.38> 613 34<25.6167 94.4056 273.594 342.383 435.617 504.406 683.594 752.383 845.617 914.406 1093.59 1162.38>
VStem: 114 140<56.2485 598> 524 140<55.75 598> 934 140<56.2485 598>
CounterMasks: 1 1c
LayerCount: 2
Fore
SplineSet
1005 0 m 2
 1005 0 862 -2 800 -2 c 0
 737 -2 657 0 593 0 c 0
 553 0 431 -1 390 -2 c 1
 327 -2 247 0 183 0 c 0
 143 0 71 -1 31 -2 c 1
 21 4 21 26 31 32 c 1
 86 35 114 39 114 122 c 2
 114 523 l 2
 114 606 86 610 31 613 c 1
 21 619 21 641 31 647 c 1
 71 646 143 645 183 645 c 0
 223 645 297 646 337 647 c 1
 347 641 347 619 337 613 c 1
 282 610 254 606 254 523 c 2
 254 122 l 2
 254 52 281.9 42 337 42 c 2
 441 42 l 2
 496.1 42 524 52 524 122 c 2
 524 523 l 2
 524 606 496 610 441 613 c 1
 431 619 431 641 441 647 c 1
 481 646 553 645 593 645 c 0
 633 645 707 646 747 647 c 1
 757 641 757 619 747 613 c 1
 692 610 664 606 664 523 c 2
 664 122 l 2
 664 52 691.9 42 747 42 c 2
 851 42 l 2
 906.1 42 934 52 934 122 c 2
 934 523 l 2
 934 606 906 610 851 613 c 1
 841 619 841 641 851 647 c 1
 891 646 963 645 1003 645 c 0
 1043 645 1117 646 1157 647 c 1
 1167 641 1167 619 1157 613 c 1
 1102 610 1074 606 1074 523 c 2
 1074 122 l 2
 1074 39 1102 35 1157 32 c 1
 1167 26 1167 4 1157 -2 c 1
 1117 -1 1045 0.4 1005 0 c 2
EndSplineSet
EndChar

StartChar: afii10043
Encoding: 1065 1065 88
Width: 1193
Flags: HW
HStem: -2 44<267.772 510.228 677.772 920.228> -2 34<25.6167 94.4056> 613 34<25.6167 94.4056 273.594 342.383 435.617 504.406 683.594 752.383 845.617 914.406 1093.59 1162.38>
VStem: 114 140<56.2485 598> 524 140<55.9375 598> 934 140<56.0116 598> 1110 42<-138.395 -81.906>
LayerCount: 2
Fore
SplineSet
664 122 m 2
 664 52 691.9 42 747 42 c 2
 851 42 l 2
 906.1 42 934 52.5 934 122 c 2
 934 523 l 2
 934 606 906 610 851 613 c 1
 841 619 841 641 851 647 c 1
 891 646 963 645 1003 645 c 0
 1043 645 1117 646 1157 647 c 1
 1167 641 1167 619 1157 613 c 1
 1102 610 1074 606 1074 523 c 2
 1074 122 l 2
 1074 61.5 1092 42 1116 42 c 0
 1141 42 1145 30 1146 22 c 2
 1152 -136 l 1
 1139.7 -141.3 1125 -142.7 1110 -140 c 1
 1095 -69 1051 0.9 973 0 c 2
 973 0 861.8 -2 800 -2 c 0
 736.9 -2 656.7 0 593 0 c 0
 553 0 431 -1 390 -2 c 1
 326.9 -2 246.7 0 183 0 c 0
 143 0 71 -1 31 -2 c 1
 21 4 21 26 31 32 c 1
 86 35 114 39 114 122 c 2
 114 523 l 2
 114 606 86 610 31 613 c 1
 21 619 21 641 31 647 c 1
 71 646 143 645 183 645 c 0
 223 645 297 646 337 647 c 1
 347 641 347 619 337 613 c 1
 282 610 254 606 254 523 c 2
 254 122 l 2
 254 52 281.9 42 337 42 c 2
 441 42 l 2
 496.1 42 524 52.5 524 122 c 2
 524 523 l 2
 524 606 496 610 441 613 c 1
 431 619 431 641 441 647 c 1
 481 646 553 645 593 645 c 0
 633 645 707 646 747 647 c 1
 757 641 757 619 747 613 c 1
 692 610 664 606 664 523 c 2
 664 122 l 2
EndSplineSet
EndChar

StartChar: afii10044
Encoding: 1066 1066 89
Width: 848
Flags: HW
HStem: -2 42<459.223 612.568> -2 34<227.617 296.406> 334 42<456 613.186> 603 42<131.776 308.028> 613 34<475.594 544.383>
VStem: 16 43<477.51 528.239> 316 140<47 334 376 598> 675 147<100.315 274.523>
LayerCount: 2
Fore
SplineSet
456 334 m 1
 456 84 l 2
 456 55 462 40 522 40 c 0
 654 40 675 127 675 187 c 0
 675 273 630 334 527 334 c 2
 456 334 l 1
316 524 m 2
 316 584 302 603 281 603 c 2
 221 603 l 2
 116 603 79 547 59 475 c 1
 47 473 26 475 16 480 c 1
 22 532 32 597 42 647 c 1
 42 647 133 645 162 645 c 2
 385 645 l 2
 424 645 539 647 539 647 c 1
 549 641 549 619 539 613 c 1
 484 610 456 606 456 523 c 2
 456 376 l 1
 512 376 l 2
 564 376 619.3 373.3 672 359 c 0
 777.8 330.3 822 274 822 186 c 0
 822 84 756 -2 551 -2 c 0
 491 -2 427 0 387 0 c 0
 347 0 233 -2 233 -2 c 1
 223 4 223 26 233 32 c 1
 288 35 316 39 316 122 c 2
 316 524 l 2
EndSplineSet
EndChar

StartChar: afii10045
Encoding: 1067 1067 90
Width: 955
VWidth: 999
Flags: HW
HStem: -2 34<13.6167 82.4056> -2 42<245.223 393.866> -1 34<613.617 682.406 861.594 930.383> 334 42<242 397.435> 613 34<13.6167 82.4056 261.594 330.383> 614 34<613.617 682.406 861.594 930.383>
VStem: 102 140<47 334 376 598> 455 147<101.755 276.831> 702 140<48 599>
LayerCount: 2
Fore
SplineSet
702 524 m 2
 702 607 674 611 619 614 c 1
 609 620 609 642 619 648 c 1
 659 647 733 646 773 646 c 0
 813 646 885 647 925 648 c 1
 935 642 935 620 925 614 c 1
 870 611 842 607 842 524 c 2
 842 123 l 2
 842 40 870 36 925 33 c 1
 935 27 935 5 925 -1 c 1
 885 0 813 1 773 1 c 0
 733 1 659 0 619 -1 c 1
 609 5 609 27 619 33 c 1
 674 36 702 40 702 123 c 2
 702 524 l 2
242 334 m 1
 242 84 l 2
 242 55 248 40 308 40 c 0
 440 40 455 127 455 187 c 0
 455 273 416 334 313 334 c 2
 242 334 l 1
242 523 m 2
 242 376 l 1
 298 376 l 2
 350 376 404.2 375.2 458 366 c 0
 568.6 347.1 602 274 602 186 c 0
 602 84 521.6 -2 337 -2 c 0
 277 -2 213 0 173 0 c 0
 133 0 19 -2 19 -2 c 1
 9 4 9 26 19 32 c 1
 74 35 102 39 102 122 c 2
 102 523 l 2
 102 606 74 610 19 613 c 1
 9 619 9 641 19 647 c 1
 59 646 133 645 173 645 c 0
 213 645 285 646 325 647 c 1
 335 641 335 619 325 613 c 1
 270 610 242 606 242 523 c 2
EndSplineSet
EndChar

StartChar: afii10046
Encoding: 1068 1068 91
Width: 628
Flags: HW
HStem: -2 42<245.223 393.866> -2 34<13.6167 82.4056> 334 42<242 397.435> 613 34<13.6167 82.4056 261.594 330.383>
VStem: 102 140<47 334 376 598> 455 147<101.755 276.831>
LayerCount: 2
Fore
SplineSet
242 334 m 1
 242 84 l 2
 242 55 248 40 308 40 c 0
 440 40 455 127 455 187 c 0
 455 273 416 334 313 334 c 2
 242 334 l 1
242 523 m 2
 242 376 l 1
 298 376 l 2
 350 376 404.2 375.2 458 366 c 0
 568.6 347.1 602 274 602 186 c 0
 602 84 521.6 -2 337 -2 c 0
 277 -2 213 0 173 0 c 0
 133 0 19 -2 19 -2 c 1
 9 4 9 26 19 32 c 1
 74 35 102 39 102 122 c 2
 102 523 l 2
 102 606 74 610 19 613 c 1
 9 619 9 641 19 647 c 1
 59 646 133 645 173 645 c 0
 213 645 285 646 325 647 c 1
 335 641 335 619 325 613 c 1
 270 610 242 606 242 523 c 2
EndSplineSet
EndChar

StartChar: afii10047
Encoding: 1069 1069 92
Width: 620
VWidth: 999
Flags: HW
HStem: -10 42<194.067 335.4> 273 66<297.887 430.603> 311 59<151.217 273.679> 616 42<173.269 322.031>
VStem: 39 43<455.199 507.434> 46 106<75.875 151.25> 432 152<202.822 295 340.555 459.769>
AnchorPoint: "komb_OR" 580 606 basechar 0
AnchorPoint: "top_akzent" 285 850 basechar 0
AnchorPoint: "unten_anhang" 270 0 basechar 0
AnchorPoint: "unten_punkt" 270 -110 basechar 0
LayerCount: 2
Fore
SplineSet
268 32 m 0
 377.5 32 430 161 432 295 c 1
 387 273 361 273 350 273 c 0
 288 273 245 311 186 311 c 0
 148 311 132 295 124 295 c 0
 120 295 115 303 115 312 c 0
 115 336 178 370 237 370 c 0
 303 370 332 339 390 339 c 0
 409 339 417 342 432 346 c 1
 423 550 331 616 251 616 c 0
 153 616 108 539 82 453 c 1
 70 449 50.3 452 39 458 c 1
 44 510 51.5 559.5 61 613 c 1
 112 618 146 658 269 658 c 0
 429 658 584 550 584 333 c 0
 584 113 435 -10 265 -10 c 0
 184 -10 120 19 89 43 c 0
 62 64 46 91 46 118 c 0
 46 144 63 165 86 165 c 0
 114 165 142 152 152 120 c 0
 176 48 214.5 32 268 32 c 0
EndSplineSet
EndChar

StartChar: afii10048
Encoding: 1070 1070 93
Width: 982
VWidth: 999
Flags: HW
HStem: -10 42<584.237 719.176> -2 34<25.6167 94.4056 273.594 342.383> 300 49<254 337> 613 34<25.6167 94.4056 273.594 342.383> 616 42<568.623 706.373>
VStem: 114 140<47 598> 337 150<179.898 300 349 443.243> 792 150<191.352 465.208>
AnchorPoint: "top_akzent" 335 850 basechar 0
AnchorPoint: "unten_anhang" 640 0 basechar 0
AnchorPoint: "unten_punkt" 640 -110 basechar 0
LayerCount: 2
Fore
SplineSet
626 616 m 0
 553.2 616 487 537 487 327 c 0
 487 135 549 32 657 32 c 0
 753.3 32 792 131 792 310 c 0
 792 518 747.3 616 626 616 c 0
114 523 m 2
 114 606 86 610 31 613 c 1
 21 619 21 641 31 647 c 1
 71 646 145 645 185 645 c 0
 225 645 297 646 337 647 c 1
 347 641 347 619 337 613 c 1
 282 610 254 606 254 523 c 2
 254 349 l 1
 338 349 l 1
 353 526 468.3 658 638 658 c 0
 828.3 658 942 527 942 329 c 0
 942 129 835.3 -10 639 -10 c 0
 464.3 -10 341 109 337 300 c 1
 254 300 l 1
 254 122 l 2
 254 39 282 35 337 32 c 1
 347 26 347 4 337 -2 c 1
 297 -1 225 0 185 0 c 0
 145 0 71 -1 31 -2 c 1
 21 4 21 26 31 32 c 1
 86 35 114 39 114 122 c 2
 114 523 l 2
EndSplineSet
EndChar

StartChar: afii10049
Encoding: 1071 1071 94
Width: 716
Flags: HW
HStem: -10 42<9.49908 68.5053> -2 34<7.88333 62.9741 373.617 442.406 621.594 690.383> 283 42<367.329 462> 613 41<320.353 567.816> 613 34<621.594 690.383>
VStem: 126 146<384.804 556.571> 462 140<47 282.992 325 598>
DStem2: 106 98 243 79 0.543583 0.839356<-41.6626 250.192>
LayerCount: 2
Fore
SplineSet
272 477 m 0
 272 354.4 335 325 419 325 c 2
 462 325 l 1
 462 524 l 2
 462 592 455 613 402 613 c 0
 344 613 272 599 272 477 c 0
380 654 m 0
 420 654 645 647 685 647 c 1
 695 641 695 619 685 613 c 1
 630 610 602 606 602 523 c 2
 602 122 l 2
 602 39 630 35 685 32 c 1
 695 26 695 4 685 -2 c 1
 645 -1 571 0 531 0 c 0
 491 0 419 -1 379 -2 c 1
 369 4 369 26 379 32 c 1
 434 35 462 39 462 122 c 2
 462 283 l 1
 382.6 282.7 374 275.8 360 253 c 1
 243 79 l 2
 212 34 171 -10 111 -10 c 0
 70.7 -10 19 -7 9 -2 c 1
 5.5 4.9 6 24 10 32 c 1
 55 32 78 56 106 98 c 2
 242 308 l 1
 188 330 126 372 126 474 c 0
 126 522.3 146.9 584.3 209 621 c 0
 246 642.8 305 654 380 654 c 0
EndSplineSet
EndChar

StartChar: afii10089
Encoding: 1095 1095 95
Width: 623
VWidth: 999
Flags: HW
HStem: -2 34<308.77 372.263 535.737 599.23> 115 71<178 307.71> 402 34<12.77 67.5049 226.996 273.23 328.77 375.004 535.737 599.23>
VStem: 83 130<202.176 390.671> 389 130<44.1062 197 237 389.894>
LayerCount: 2
Fore
SplineSet
389 237 m 1
 389 307 l 2
 389 390 373 399 332 402 c 1
 326 408 326 430 332 436 c 1
 354 435 406 434 454 434 c 0
 509 434 553 435 596 436 c 1
 602 430 602 408 596 402 c 1
 535 399 519 390 519 307 c 2
 519 127 l 2
 519 44 535 35 596 32 c 1
 602 26 602 4 596 -2 c 1
 553 -1 509 0 454 0 c 0
 399 0 354 -1 312 -2 c 1
 306 4 306 26 312 32 c 1
 373 35 389 44 389 127 c 2
 389 197 l 1
 342 152 287 115 227 115 c 0
 129 115 83 161 83 267 c 2
 83 307 l 2
 83 390 66.7 398.7 16 402 c 1
 10 408 10 430 16 436 c 1
 48 435 96.5 434 148 434 c 0
 195.6 434 247 435 270 436 c 1
 276 430 276 408 270 402 c 1
 229 399 213 390 213 307 c 2
 213 283 l 2
 213 205 240 186 270 186 c 0
 319 186 350 206.5 389 237 c 1
EndSplineSet
EndChar

StartChar: afii10090
Encoding: 1096 1096 96
Width: 928
VWidth: 999
Flags: HW
HStem: -2 34<23.77 87.2627 840.737 904.23> 0 44<242.525 390.475 537.525 685.475> 402 34<23.77 87.2627 247.996 294.23 338.77 385.004 542.996 589.23 633.77 680.004 840.737 904.23>
VStem: 104 130<51.1455 389.894> 399 130<51.6729 392.508> 694 130<51.1455 389.894>
CounterMasks: 1 1c
LayerCount: 2
Fore
SplineSet
169 0 m 2
 118 0 70 -1 27 -2 c 1
 21 4 21 26 27 32 c 1
 88 35 104 44 104 127 c 2
 104 307 l 2
 104 390 88 399 27 402 c 1
 21 408 21 430 27 436 c 1
 69 435 113.6 434 169 434 c 0
 216.6 434 268 435 291 436 c 1
 297 430 297 408 291 402 c 1
 250 399 234 390 234 307 c 2
 234 127 l 2
 234 49.5 250 47 291 44 c 0
 301 44 334 44 342 44 c 0
 383 47 399 49.5 399 127 c 2
 399 307 l 2
 399 390 383 399 342 402 c 1
 336 408 336 430 342 436 c 1
 365 435 416.4 434 464 434 c 0
 511.6 434 563 435 586 436 c 1
 592 430 592 408 586 402 c 1
 545 399 529 390 529 307 c 2
 529 127 l 2
 529 51.5 545 47 586 44 c 0
 596 44 629 44 637 44 c 0
 678 47 694 49.5 694 127 c 2
 694 307 l 2
 694 390 678 399 637 402 c 1
 631 408 631 430 637 436 c 1
 660 435 711.4 434 759 434 c 0
 814.4 434 859 435 901 436 c 1
 907 430 907 408 901 402 c 1
 840 399 824 390 824 307 c 2
 824 127 l 2
 824 44 840 35 901 32 c 1
 907 26 907 4 901 -2 c 1
 858 -1 811.7 0 759 0 c 2
 169 0 l 2
EndSplineSet
EndChar

StartChar: afii10091
Encoding: 1097 1097 97
Width: 928
VWidth: 999
Flags: HW
HStem: -2 34<23.77 87.2627> 0 44<242.525 390.475 537.525 685.475> 402 34<23.77 87.2627 247.996 294.23 338.77 385.004 542.996 589.23 633.77 680.004 840.737 904.23>
VStem: 104 130<51.1455 389.894> 399 130<51.6729 392.508> 694 130<54.8565 389.894> 846 43<-126.877 -55.2916>
LayerCount: 2
Fore
SplineSet
824 127 m 2
 824 53.5 843.5 48 892 44 c 1
 897.5 37.5 899 20 899 7 c 2
 889 -124 l 1
 875.5 -131 859 -132.5 846 -128 c 1
 831.5 -60.5 817.5 0 741 0 c 2
 169 0 l 2
 118 0 70 -1 27 -2 c 1
 21 4 21 26 27 32 c 1
 88 35 104 44 104 127 c 2
 104 307 l 2
 104 390 88 399 27 402 c 1
 21 408 21 430 27 436 c 1
 69 435 113.6 434 169 434 c 0
 216.6 434 268 435 291 436 c 1
 297 430 297 408 291 402 c 1
 250 399 234 390 234 307 c 2
 234 127 l 2
 234 49.5 250 47 291 44 c 0
 301 44 334 44 342 44 c 0
 383 47 399 49.5 399 127 c 2
 399 307 l 2
 399 390 383 399 342 402 c 1
 336 408 336 430 342 436 c 1
 365 435 416.4 434 464 434 c 0
 511.6 434 563 435 586 436 c 1
 592 430 592 408 586 402 c 1
 545 399 529 390 529 307 c 2
 529 127 l 2
 529 51.5 545 47 586 44 c 0
 596 44 629 44 637 44 c 0
 678 47 694 49.5 694 127 c 2
 694 307 l 2
 694 390 678 399 637 402 c 1
 631 408 631 430 637 436 c 1
 660 435 711.4 434 759 434 c 0
 814.4 434 859 435 901 436 c 1
 907 430 907 408 901 402 c 1
 840 399 824 390 824 307 c 2
 824 127 l 2
EndSplineSet
EndChar

StartChar: afii10092
Encoding: 1098 1098 98
Width: 608
VWidth: 999
Flags: HW
HStem: -2 38<115.031 182.384 327.112 433.08> 234 38<324 438.014> 392 42<97.2701 184.645> 402 34<340.737 403.742>
VStem: 9 43<287.51 338.073> 194 130<44.1062 234 272 385.69> 463 130<61.2253 211.683>
LayerCount: 2
Fore
SplineSet
463 132 m 0
 463 172 458 234 383 234 c 2
 324 234 l 1
 324 79 l 2
 324 43 333 36 379 36 c 0
 438 36 463 74 463 132 c 0
194 307 m 2
 194 370 182 392 150 392 c 0
 98.2 392 74 354 52 285 c 1
 40 283 19 285 9 290 c 1
 14 331 19 427 21 435 c 0
 21 437 22 438 25 438 c 0
 42 435 50 434 74 434 c 2
 259 434 l 1
 259 434 358 435 401 436 c 1
 407 430 407 408 401 402 c 1
 340 399 324 390 324 307 c 2
 324 272 l 1
 392 272 l 2
 505 272 593 251 593 141 c 0
 593 37 529 -2 398 -2 c 1
 259 0 l 2
 203.6 0 160 -1 117 -2 c 1
 111 4 111 26 117 32 c 1
 178 35 194 44 194 127 c 2
 194 307 l 2
EndSplineSet
EndChar

StartChar: afii10093
Encoding: 1099 1099 99
Width: 844
VWidth: 999
Flags: HW
HStem: -2 34<529.77 593.263 756.737 820.23> -2 38<25.0312 92.384 237.149 343.08> 234 38<234 348.014> 402 34<23.77 87.2627 250.737 314.23 529.77 593.263 756.737 820.23>
VStem: 104 130<44.1062 234 272 389.894> 373 130<61.2253 211.79> 610 130<44.1062 389.894>
LayerCount: 2
Fore
SplineSet
740 307 m 2
 740 127 l 2
 740 44 756 35 817 32 c 1
 823 26 823 4 817 -2 c 1
 774 -1 730.4 0 675 0 c 0
 619.6 0 575 -1 533 -2 c 1
 527 4 527 26 533 32 c 1
 594 35 610 44 610 127 c 2
 610 307 l 2
 610 390 594 399 533 402 c 1
 527 408 527 430 533 436 c 1
 576 435 619.6 434 675 434 c 0
 730.4 434 775 435 817 436 c 1
 823 430 823 408 817 402 c 1
 756 399 740 390 740 307 c 2
373 132 m 0
 373 172 368 234 293 234 c 2
 234 234 l 1
 234 79 l 2
 234 43 243.2 36 289 36 c 0
 348 36 373 74 373 132 c 0
169 0 m 2
 113.6 0 70 -1 27 -2 c 1
 21 4 21 26 27 32 c 1
 88 35 104 44 104 127 c 2
 104 307 l 2
 104 390 88 399 27 402 c 1
 21 408 21 430 27 436 c 1
 69 435 113.6 434 169 434 c 0
 224.4 434 268 435 311 436 c 1
 317 430 317 408 311 402 c 1
 250 399 234 390 234 307 c 2
 234 272 l 1
 302 272 l 2
 415 272 503 251.5 503 141 c 0
 503 37 439 -2 308 -2 c 1
 169 0 l 2
EndSplineSet
EndChar

StartChar: afii10094
Encoding: 1100 1100 100
Width: 518
VWidth: 999
Flags: HW
HStem: -2 38<25.0312 92.384 237.149 343.08> 234 38<234 348.014> 402 34<23.77 87.2627 250.737 314.23>
VStem: 104 130<44.1062 234 272 389.894> 373 130<61.2253 211.79>
LayerCount: 2
Fore
SplineSet
373 132 m 0
 373 172 368 234 293 234 c 2
 234 234 l 1
 234 79 l 2
 234 43 243.2 36 289 36 c 0
 348 36 373 74 373 132 c 0
169 0 m 2
 113.6 0 70 -1 27 -2 c 1
 21 4 21 26 27 32 c 1
 88 35 104 44 104 127 c 2
 104 307 l 2
 104 390 88 399 27 402 c 1
 21 408 21 430 27 436 c 1
 69 435 113.6 434 169 434 c 0
 224.4 434 268 435 311 436 c 1
 317 430 317 408 311 402 c 1
 250 399 234 390 234 307 c 2
 234 272 l 1
 302 272 l 2
 415 272 503 251.5 503 141 c 0
 503 37 439 -2 308 -2 c 1
 169 0 l 2
EndSplineSet
EndChar

StartChar: afii10095
Encoding: 1101 1101 101
Width: 475
VWidth: 999
Flags: HW
HStem: -10 42<149.203 258.139> 174 64<193.967 286.341> 209 53<94.3152 178.927> 402 42<128.566 238.284>
VStem: 35 96<50.3281 119.53> 38 39<310.247 344.837> 297 141<112.726 203 235 319.879>
LayerCount: 2
Fore
SplineSet
203 444 m 0
 357 444 438 335 438 225 c 0
 438 59 333 -10 187 -10 c 0
 92 -10 35 42 35 81 c 0
 35 108 49 130 77 130 c 0
 105 130 123.3 110.9 131 89 c 0
 144.5 50.5 161 32 197 32 c 0
 293 32 296 126 297 203 c 1
 280 191 252 174 228 174 c 0
 184 174 155 209 120 209 c 0
 108 209 98 202 90 202 c 0
 84 202 83 214 83 219 c 0
 83 239 128 262 171 262 c 0
 216 262 232 238 270 238 c 0
 280 238 290 237 297 235 c 1
 295 308 258 402 187 402 c 0
 141 402 102 370 77 309 c 1
 59 306 48 307 38 314 c 1
 38 350 44 388 53 420 c 1
 85 434 148 444 203 444 c 0
EndSplineSet
EndChar

StartChar: afii10096
Encoding: 1102 1102 102
Width: 838
VWidth: 999
Flags: HW
HStem: -10 42<539.642 629.673> -2 34<23.77 87.2627 250.737 314.23> 196 44<234 344.225> 402 34<23.77 87.2627 250.737 314.23> 402 42<512.32 607.765>
VStem: 104 130<44.1062 389.894> 344.2 139.8<106.654 196 240 320.698> 661 140<111.919 321.762>
LayerCount: 2
Fore
SplineSet
557 402 m 0
 490 402 484 321 484 229 c 0
 484 155 506 32 588 32 c 0
 624 32 661 63.9 661 184 c 0
 661 321 625 402 557 402 c 0
234 196 m 1
 234 127 l 2
 234 44 250 35 311 32 c 1
 317 26 317 4 311 -2 c 1
 268 -1 224.4 0 169 0 c 0
 113.6 0 69 -1 27 -2 c 1
 21 4 21 26 27 32 c 1
 88 35 104 44 104 127 c 2
 104 307 l 2
 104 390 88 399 27 402 c 1
 21 408 21 430 27 436 c 1
 70 435 113.6 434 169 434 c 0
 224.4 434 269 435 311 436 c 1
 317 430 317 408 311 402 c 1
 250 399 234 390 234 307 c 2
 234 240 l 1
 345.8 240 l 1
 347.5 286 364.8 334.5 395.7 370 c 0
 435.2 415.4 490.1 444 573 444 c 0
 721.5 444 801 346.8 801 216 c 0
 801 160.3 783.6 91.3 733 46 c 0
 691.9 9.2 642.5 -10 572 -10 c 0
 441.4 -10 349.3 71.6 344.2 196 c 1
 234 196 l 1
EndSplineSet
EndChar

StartChar: afii10097
Encoding: 1103 1103 103
Width: 563
VWidth: 999
Flags: HW
HStem: -2 34<16.3617 58.7698 268.77 315.004 475.737 539.23> 184 42<254.359 329> 398 38<227.782 323.853 470.616 537.969>
VStem: 72 128<247.216 375.198> 329 130<44.1062 184 226 389.547>
LayerCount: 2
Fore
SplineSet
329 226 m 1
 329 307 l 2
 329 390 326.7 398 282 398 c 0
 231.8 398 200 368 200 321 c 0
 200 271 213 226 269 226 c 2
 329 226 l 1
189.7 192.5 m 1
 189 194.4 l 1
 135.7 198.5 72 240.2 72 315 c 0
 72 404.5 152 436 250.5 436 c 0
 292.1 436 338 434 394 434 c 0
 449.4 434 493 435 536 436 c 1
 542 430 542 408 536 402 c 1
 475 399 459 390 459 307 c 2
 459 127 l 2
 459 44 475 35 536 32 c 1
 542 26 542 4 536 -2 c 1
 494 -1 449.4 0 394 0 c 0
 346.4 0 295 -1 272 -2 c 1
 266 4 266 26 272 32 c 1
 313 35 329 44 329 127 c 2
 329 184 l 1
 309 184 l 2
 249.5 184 236 145 215 84 c 1
 202 43 182.7 0.6 150 0 c 2
 150 0 42 -1 19 -2 c 1
 13.3 3.3 14 24.3 19 32 c 1
 61.7 35.3 80.7 67.4 109 136 c 0
 124.6 173.9 142.4 183.9 189.7 192.5 c 1
EndSplineSet
EndChar

StartChar: uni04AE
Encoding: 1198 1198 104
Width: 541
Flags: HW
HStem: -1 36<154 228.839 358.336 435> 611 36<-9 41.811 186.001 236 379 429.999 514.645 584>
VStem: 232 123<36.304 280>
DStem2: 313 377 235 280 0.502568 -0.864537<-258.021 0> 313 377 353 292 0.468767 0.883322<0 253.301>
LayerCount: 2
Fore
SplineSet
232 75 m 2
 232 282 l 1
 235 280 l 1
 179 376 123 473 67 569 c 0
 54 592 47 604 42 607 c 0
 38 609 32 611 25 611 c 2
 10 611 l 1
 1 612 -19 615 -19 622 c 2
 -19 638 l 1
 -9 647 l 1
 -9 647 96 645 109 645 c 0
 115 645 236 647 236 647 c 1
 246 638 l 1
 246 623 l 2
 246 617 237 611 218 611 c 2
 189 611 l 2
 187 611 186 608 186 602 c 0
 186 594 189 585 195 575 c 0
 240 500 268 454 313 377 c 1
 350 443 386 509 421 575 c 0
 427 586 430 595 430 602 c 0
 430 609 429 611 426 611 c 2
 396 611 l 1
 374 613 370 618 370 622 c 2
 370 638 l 1
 379 647 l 1
 379 647 471 645 484 645 c 0
 492 645 584 647 584 647 c 1
 593 638 l 1
 593 623 l 2
 593 614 582 611 562 611 c 2
 541 611 l 2
 526 611 517 600 500 569 c 2
 353 292 l 1
 355 293 l 1
 355 75 l 2
 355 47 365 35 388 35 c 2
 414 35 l 2
 430 35 444 31 444 23 c 2
 444 8 l 1
 435 -1 l 1
 435 -1 334 1 296 1 c 0
 261 1 154 -1 154 -1 c 1
 145 8 l 1
 145 23 l 2
 145 31 156 35 174 35 c 2
 200 35 l 2
 224 35 232 50 232 75 c 2
EndSplineSet
EndChar

StartChar: uni04C0
Encoding: 1216 1216 105
Width: 317
VWidth: 999
Flags: HW
HStem: -2 34<37.6167 106.406 285.594 354.383> 613 34<37.6167 106.406 285.594 354.383>
VStem: 126 140<47 598>
LayerCount: 2
Fore
SplineSet
126 523 m 2
 126 606 98 610 43 613 c 1
 33 619 33 641 43 647 c 1
 83 646 157 645 197 645 c 0
 237 645 309 646 349 647 c 1
 359 641 359 619 349 613 c 1
 294 610 266 606 266 523 c 2
 266 122 l 2
 266 39 294 35 349 32 c 1
 359 26 359 4 349 -2 c 1
 309 -1 237 0 197 0 c 0
 157 0 83 -1 43 -2 c 1
 33 4 33 26 43 32 c 1
 98 35 126 39 126 122 c 2
 126 523 l 2
EndSplineSet
EndChar

StartChar: uni04D0
Encoding: 1232 1232 106
Width: 740
VWidth: 999
Flags: HW
HStem: -2 34<3.77002 69.5762 167.992 237.23 421.77 500.035 664.842 733.23> 235 48<250.587 425> 638 20<426.5 441.203> 693 42<310.506 404.415>
VStem: 226 86<736.453 807.149> 404 86<737.719 808.265>
DStem2: 106.983 102 165 79 0.390001 0.920814<-25.5008 179.412 231.412 451.365> 323.835 614 336.175 520 0.390001 0.920814<-540.408 -382.79 -329.399 -81.7439> 434 658 343.096 520 0.338836 -0.940845<99.0351 349.768 401.027 600.306>
LayerCount: 2
Fore
SplineSet
273 283 m 2
 425 283 l 1
 343.1 520 l 1
 336.2 520 l 1
 247.8 296.3 l 2
 244 286 251 283 273 283 c 2
165 79 m 2
 149 38 196.4 34.6 234 32 c 1
 240 26 240 4 234 -2 c 1
 197 -1 142 0 101 0 c 0
 62 0 44 -1 7 -2 c 1
 1 4 1 26 7 32 c 1
 50.5 35 81 40 107 102 c 2
 323.8 614 l 1
 359 614 419 649 434 658 c 1
 640 86 l 2
 658 35 691.2 35.5 730 32 c 1
 736 26 736 4 730 -2 c 1
 693 -1 637 0 596 0 c 0
 557 0 462 -1 425 -2 c 1
 419 4 419 26 425 32 c 1
 472.6 35.4 513 31 499 72 c 2
 443 235 l 1
 253 235 l 2
 229 235 223 231 218 218 c 2
 165 79 l 2
490 779 m 0
 490 713 424 693 357 693 c 0
 289 693 226 712 226 777 c 0
 226 799 248 812 272 812 c 0
 295 812 312 800 312 781 c 0
 312 777.3 310 764.7 310 761 c 0
 310 739.7 319 735 358 735 c 0
 396 735 406 741.3 406 761 c 0
 406 767.3 404 773.6 404 780 c 0
 404 800 425 812 445 812 c 0
 470 812 490 802 490 779 c 0
EndSplineSet
LCarets2: 1 0 
EndChar

StartChar: uni04D1
Encoding: 1233 1233 107
Width: 506
VWidth: 999
Flags: HW
HStem: -10 60<125.5 232.247> -10 70<351 458.925> 402 42<171.423 262.805> 500 42<166.725 251.533>
VStem: 44 120<61.1723 156.955> 61.5 113.9<297.459 383.465> 80 83<546.714 638.583> 255 83<547.723 638.967> 290 126<70.3412 218 257 374.933>
DStem2: 223 236 238 201 0.954226 0.299086<-67.4736 58.5496>
LayerCount: 2
Fore
SplineSet
295.2 48.5 m 1
 289 48 l 1
 256 22 198 -10 169 -10 c 0
 82 -10 44 26 44 95 c 0
 44 174 117.6 203 223 236 c 2
 290 257 l 1
 290 384 255 402 213 402 c 0
 179.5 402 172.3 390.3 170.8 379.2 c 0
 168.5 362 175.4 345.2 175.4 332 c 0
 175.4 307.8 148.6 285.8 113.2 285.8 c 0
 73.6 285.8 61.5 307.7 61.5 336.3 c 0
 61.5 402.3 174 444 247 444 c 0
 329 444 418 415 418 271 c 1
 416 127 l 2
 416 78 422 60 444 60 c 0
 463 60 473 64 486 74 c 1
 497.5 65.8 501.8 57.8 504 46 c 1
 467 11 428.3 -10 373 -10 c 0
 329 -10 302 8 295.2 48.5 c 1
290 218 m 1
 238 201 l 2
 167.3 177.9 164 147.1 164 110 c 0
 164 79 179 50 222 50 c 0
 240 50 265 66 290 86 c 1
 290 218 l 1
338 606 m 0
 338 540 275 500 208 500 c 0
 140 500 80 539 80 604 c 0
 80 626 99 644 123 644 c 0
 146 644 163 627 163 608 c 0
 163 604.3 161 591.7 161 588 c 0
 161 562 170 542 209 542 c 0
 247 542 257 562 257 588 c 0
 257 594.3 255 600.6 255 607 c 0
 255 627 276 644 296 644 c 0
 321 644 338 629 338 606 c 0
EndSplineSet
LCarets2: 1 0 
EndChar

StartChar: uni04D2
Encoding: 1234 1234 108
Width: 740
VWidth: 999
Flags: HW
HStem: -2 34<3.77002 69.5762 167.992 237.23 421.77 500.035 664.842 733.23> 235 48<250.587 425> 638 20<426.5 441.203> 702 109<245.037 333.257 430.743 518.963>
VStem: 234 110<713.463 799.462> 420 110<713.463 799.462>
DStem2: 106.983 102 165 79 0.390001 0.920814<-25.5008 179.412 231.412 451.365> 323.835 614 336.175 520 0.390001 0.920814<-540.408 -382.79 -329.399 -81.7439> 434 658 343.096 520 0.338836 -0.940845<99.0351 349.768 401.027 600.306>
LayerCount: 2
Fore
SplineSet
420 756 m 0
 420 787 444 811 475 811 c 0
 505 811 530 787 530 756 c 0
 530 726 505 702 475 702 c 0
 444 702 420 726 420 756 c 0
234 756 m 0
 234 787 259 811 289 811 c 0
 320 811 344 787 344 756 c 0
 344 726 320 702 289 702 c 0
 259 702 234 726 234 756 c 0
273 283 m 2
 425 283 l 1
 343.1 520 l 1
 336.2 520 l 1
 247.8 296.3 l 2
 244 286 251 283 273 283 c 2
165 79 m 2
 149 38 196.4 34.6 234 32 c 1
 240 26 240 4 234 -2 c 1
 197 -1 142 0 101 0 c 0
 62 0 44 -1 7 -2 c 1
 1 4 1 26 7 32 c 1
 50.5 35 81 40 107 102 c 2
 323.8 614 l 1
 359 614 419 649 434 658 c 1
 640 86 l 2
 658 35 691.2 35.5 730 32 c 1
 736 26 736 4 730 -2 c 1
 693 -1 637 0 596 0 c 0
 557 0 462 -1 425 -2 c 1
 419 4 419 26 425 32 c 1
 472.6 35.4 513 31 499 72 c 2
 443 235 l 1
 253 235 l 2
 229 235 223 231 218 218 c 2
 165 79 l 2
EndSplineSet
LCarets2: 1 0 
EndChar

StartChar: uni04D3
Encoding: 1235 1235 109
Width: 506
VWidth: 999
Flags: HW
HStem: -10 60<125.5 232.247> -10 70<351 458.925> 402 42<171.423 262.805> 519 109<101.037 189.257 286.743 374.963>
VStem: 44 120<61.1723 156.955> 61.5 113.9<297.459 383.465> 90 110<530.463 616.462> 276 110<530.463 616.462> 290 126<70.3412 218 257 374.933>
DStem2: 223 236 238 201 0.954226 0.299086<-67.4736 58.5496>
LayerCount: 2
Fore
SplineSet
276 573 m 0
 276 604 300 628 331 628 c 0
 361 628 386 604 386 573 c 0
 386 543 361 519 331 519 c 0
 300 519 276 543 276 573 c 0
90 573 m 0
 90 604 115 628 145 628 c 0
 176 628 200 604 200 573 c 0
 200 543 176 519 145 519 c 0
 115 519 90 543 90 573 c 0
295.2 48.5 m 1
 289 48 l 1
 256 22 198 -10 169 -10 c 0
 82 -10 44 26 44 95 c 0
 44 174 117.6 203 223 236 c 2
 290 257 l 1
 290 384 255 402 213 402 c 0
 179.5 402 172.3 390.3 170.8 379.2 c 0
 168.5 362 175.4 345.2 175.4 332 c 0
 175.4 307.8 148.6 285.8 113.2 285.8 c 0
 73.6 285.8 61.5 307.7 61.5 336.3 c 0
 61.5 402.3 174 444 247 444 c 0
 329 444 418 415 418 271 c 1
 416 127 l 2
 416 78 422 60 444 60 c 0
 463 60 473 64 486 74 c 1
 497.5 65.8 501.8 57.8 504 46 c 1
 467 11 428.3 -10 373 -10 c 0
 329 -10 302 8 295.2 48.5 c 1
290 218 m 1
 238 201 l 2
 167.3 177.9 164 147.1 164 110 c 0
 164 79 179 50 222 50 c 0
 240 50 265 66 290 86 c 1
 290 218 l 1
EndSplineSet
LCarets2: 1 0 
EndChar

StartChar: uni04D4
Encoding: 1236 1236 110
Width: 956
VWidth: 999
Flags: HW
HStem: -2 34<8.77002 69.2913 171.658 242.23 358.77 432.943> 0 42<596.172 801.205> 266 50<297 449> 317 50<589 748.134> 496 149<825.745 866.173> 603 42<596.747 785.219> 613 34<306 366.614>
VStem: 449 140<48.1312 266 316 317 367 558.22> 761 43<252.086 302.875 377.375 431.914> 833 43<498.655 549.073> 872 45<116.761 167.943>
DStem2: 111.983 102 170 79 0.471959 0.88162<-17.4171 219.635 275.987 558.177>
LayerCount: 2
Fore
SplineSet
112 102 m 2
 364 562 l 2
 383.8 598.1 358 613 312 613 c 0
 306 613 304 616 304 620 c 2
 304 645 l 1
 306 647 l 1
 513 645 l 1
 811 645 l 2
 835 645 843 646 860 649 c 0
 863 649 864 648 864 646 c 0
 866 638 871 542 876 501 c 1
 866.2 496.3 845.4 494.2 833 496 c 1
 811 565 790 603 715 603 c 2
 630 603 l 2
 606 603 589 578 589 554 c 2
 589 367 l 1
 670 367 l 2
 737 367 758 374 761 429 c 1
 767 435 798 435 804 429 c 1
 803 399 802 377 802 343 c 0
 802 309 803 290 804 255 c 1
 798 249 767 249 761 255 c 1
 758 300 739 317 670 317 c 2
 589 317 l 1
 589 90 l 2
 589 63 608 42 630 42 c 2
 731 42 l 2
 807 42 852 98 872 170 c 1
 885.1 173.2 906.6 171 917 165 c 1
 909 114 904 48 890 -2 c 1
 890 -2 800 0 752 0 c 2
 516 0 l 1
 516 0 411 -1 362 -2 c 1
 356 4 356 26 362 32 c 1
 432 35 449 39 449 122 c 2
 449 266 l 1
 271 266 l 1
 170 79 l 2
 148.9 40 201.4 34.6 239 32 c 1
 245 26 245 4 239 -2 c 1
 202 -1 147 0 106 0 c 0
 67 0 49 -1 12 -2 c 1
 6 4 6 26 12 32 c 1
 55.5 35 80.2 44 112 102 c 2
297 316 m 1
 449 316 l 1
 449 545 l 2
 449 571 437 578 420 546 c 2
 297 316 l 1
EndSplineSet
EndChar

StartChar: uni04D5
Encoding: 1237 1237 111
Width: 715
VWidth: 999
Flags: HW
HStem: -10 50<161.17 258.657> -10 81<460.937 593.602> 209 39<218.605 291> 402 42<158.598 259.723 459.698 547.581>
VStem: 37 114<60.4774 160.978> 53 102<312.214 386.33> 291 125<120.895 209 255 342.869> 579 104.9<270.772 371.391>
AnchorPoint: "top_akzent" 341 645 basechar 0
LayerCount: 2
Fore
SplineSet
502 402 m 0
 450 402 427 334 418 255 c 1
 488.2 259.6 559.2 260.4 579 283 c 1
 579 344 558 402 502 402 c 0
284 93 m 0
 290.9 107.2 290 162 291 209 c 1
 196 197 151 156 151 111 c 0
 151 97.6 152.4 82.4 156 72 c 0
 163.3 50.6 178.1 40 197 40 c 0
 221.1 40 264 52 284 93 c 0
524 71 m 0
 562 71 628 87 669 129 c 1
 679 129 684 111 684 98 c 1
 634 25 576 -10 507 -10 c 0
 458.5 -10 412.7 -0.9 386 18 c 0
 366.6 31.7 348 43 337 67 c 1
 293 12 209.5 -10 182 -10 c 0
 141.5 -10 110 -6 84 11.7 c 0
 57.6 29.7 37 62.6 37 99 c 0
 37 182.1 124 234 291 248 c 1
 291 353 265 402 218 402 c 0
 181 402 155 393 155 371 c 0
 155 351 162 340 162 328 c 0
 162 314 150 287 105 287 c 0
 70 287 53 313 53 339 c 0
 53 399 148 444 220 444 c 0
 273 444 342 428 368 374 c 1
 408 431 456 444 513 444 c 0
 662.3 444 683.9 357 683.9 294.9 c 0
 683.9 273.9 681.3 264.2 680 246 c 1
 639.2 219.3 522.5 219.3 416 217 c 1
 417 116 463 71 524 71 c 0
EndSplineSet
EndChar

StartChar: uni04D6
Encoding: 1238 1238 112
Width: 609
VWidth: 999
Flags: HW
HStem: -2 34<11.77 85.9433> 0 42<249.172 454.205> 319 46<242 399.554> 603 42<249.747 438.219> 613 34<12.2578 85.9433> 693 42<225.506 319.415>
VStem: 102 140<48.1312 319 365 596.345> 141 86<736.453 807.149> 319 86<737.719 808.265> 414 43<252.086 303.875 376.375 431.914> 525 45<116.761 167.944>
LayerCount: 2
Fore
SplineSet
323 365 m 2
 390 365 411 374 414 429 c 1
 420 435 451 435 457 429 c 1
 456 399 455 376.5 455 343 c 0
 455 308.7 456 290 457 255 c 1
 451 249 420 249 414 255 c 1
 411 300 392 319 323 319 c 2
 242 319 l 1
 242 90 l 2
 242 63 261 42 283 42 c 2
 384 42 l 2
 460 42 505 98 525 170 c 1
 538.1 173.2 559.6 171 570 165 c 1
 562 114 557 48 543 -2 c 1
 543 -2 453 0 405 0 c 2
 170 0 l 1
 170 0 64 -1 15 -2 c 1
 9 4 9 26 15 32 c 1
 85 35 102 39 102 122 c 2
 102 522 l 2
 102 605 85 610 15 613 c 1
 9 619 9 641 15 647 c 1
 65 646 169 645 169 645 c 1
 464 645 l 2
 488 645 496 646 513 649 c 0
 516 649 517 648 517 646 c 0
 519 638 524 542 529 501 c 1
 519.2 496.3 498.4 494.2 486 496 c 1
 464 565 443 603 368 603 c 2
 283 603 l 2
 259 603 242 578 242 554 c 2
 242 365 l 1
 323 365 l 2
405 779 m 0
 405 713 339 693 272 693 c 0
 204 693 141 712 141 777 c 0
 141 799 163 812 187 812 c 0
 210 812 227 800 227 781 c 0
 227 777.3 225 764.7 225 761 c 0
 225 739.7 234 735 273 735 c 0
 311 735 321 741.3 321 761 c 0
 321 767.3 319 773.6 319 780 c 0
 319 800 340 812 360 812 c 0
 385 812 405 802 405 779 c 0
EndSplineSet
LCarets2: 1 0 
EndChar

StartChar: uni04D7
Encoding: 1239 1239 113
Width: 489
VWidth: 999
Flags: HW
HStem: -10 86<216.546 345.445> 235 40<172 310> 402 42<205.631 284.483> 500 42<181.725 266.533>
VStem: 37 130<127.941 235 275 306.352> 95 83<546.714 638.583> 270 83<547.723 638.967> 310 127<259 366.741>
LayerCount: 2
Fore
SplineSet
177 275 m 1
 313 275 l 1
 315 277 315 290 315 296 c 0
 315 376 278 402 251 402 c 0
 239.7 402 212.9 391.8 197 368 c 0
 183.4 347.7 178 310 177 275 c 1
431 129 m 1
 441 129 446 111 446 98 c 1
 396 25 328 -10 259 -10 c 0
 187.9 -10 138.6 5.9 101 40 c 0
 58.2 78.8 37 139.5 37 198 c 0
 37 351 157 444 262 444 c 0
 409 444 442 351 442 266 c 0
 442 252 437 235 413 235 c 2
 173 235 l 1
 173 230 172 226 172 219 c 0
 172 121 220 76 298 76 c 0
 336 76 390 87 431 129 c 1
353 606 m 0
 353 540 290 500 223 500 c 0
 155 500 95 539 95 604 c 0
 95 626 114 644 138 644 c 0
 161 644 178 627 178 608 c 0
 178 604.3 176 591.7 176 588 c 0
 176 562 185 542 224 542 c 0
 262 542 272 562 272 588 c 0
 272 594.3 270 600.6 270 607 c 0
 270 627 291 644 311 644 c 0
 336 644 353 629 353 606 c 0
EndSplineSet
LCarets2: 1 0 
EndChar

StartChar: uni04D8
Encoding: 1240 1240 114
Width: 702
VWidth: 999
Flags: HW
HStem: -11 43<292.327 419.853> 250 55<298.933 512> 253 67<193 268.067> 577 81<214.014 416.859>
VStem: 516 150<196.218 452.674>
LayerCount: 2
Fore
SplineSet
512 250 m 1
 193 253 l 1
 229 97 280 32 355 32 c 0
 439 32 490 115 512 250 c 1
105 494 m 1
 75 522 l 1
 151 620 226.5 658 336 658 c 0
 573 658 666 485 666 327 c 0
 666 131 546 -11 348 -11 c 0
 142 -11 57 92 40 305 c 1
 52 320 l 1
 515 305 l 1
 516 314 516 317 516 327 c 0
 516 505 433 577 332 577 c 0
 252 577 166 552 105 494 c 1
EndSplineSet
EndChar

StartChar: afii10846
Encoding: 1241 1241 115
Width: 489
VWidth: 999
Flags: HW
HStem: -11 42<190.517 269.369> 158 40<165 303> 357 86<129.555 258.454>
VStem: 38 127<66.259 174> 308 130<126.648 158 198 305.059>
AnchorPoint: "top_akzent" 211 645 basechar 0
LayerCount: 2
Fore
SplineSet
298 158 m 1
 162 158 l 1
 160 156 160 143 160 137 c 0
 160 57 197 31 224 31 c 0
 235.3 31 262.1 41.2 278 65 c 0
 291.6 85.3 297 123 298 158 c 1
44 304 m 1
 34 304 29 322 29 335 c 1
 79 408 147 443 216 443 c 0
 287.1 443 336.4 427.1 374 393 c 0
 416.8 354.2 438 293.5 438 235 c 0
 438 82 318 -11 213 -11 c 0
 66 -11 33 82 33 167 c 0
 33 181 38 198 62 198 c 2
 302 198 l 1
 302 203 303 207 303 214 c 0
 303 312 255 357 177 357 c 0
 139 357 85 346 44 304 c 1
EndSplineSet
EndChar

StartChar: uni04DA
Encoding: 1242 1242 116
Width: 702
VWidth: 999
Flags: HW
HStem: -12 34<246.269 393.278> 216 44<122 511> 624 34<207.892 368.818> 711 96<191.332 270.668 380.332 459.668>
VStem: 183 96<719.332 798.668> 372 96<719.332 798.668> 521 90<221.919 443.038>
LayerCount: 2
Fore
SplineSet
512 250 m 1
 193 253 l 1
 229 97 280 32 355 32 c 0
 439 32 490 115 512 250 c 1
105 494 m 1
 75 522 l 1
 151 620 226.5 658 336 658 c 0
 573 658 666 485 666 327 c 0
 666 131 546 -11 348 -11 c 0
 142 -11 57 92 40 305 c 1
 52 320 l 1
 515 305 l 1
 516 314 516 317 516 327 c 0
 516 505 433 577 332 577 c 0
 252 577 166 552 105 494 c 1
186 766 m 0
 186 798 210 823 242 823 c 0
 274 823 298 798 298 766 c 0
 298 734 274 710 242 710 c 0
 210 710 186 734 186 766 c 0
373 766 m 0
 373 798 398 823 430 823 c 0
 462 823 485 798 485 766 c 0
 485 734 462 710 430 710 c 0
 398 710 373 734 373 766 c 0
EndSplineSet
LCarets2: 1 0 
EndChar

StartChar: uni04DB
Encoding: 1243 1243 117
Width: 489
VWidth: 999
Flags: HW
HStem: -11 42<190.517 269.369> 158 40<165 303> 357 86<129.555 258.454> 517 109<101.037 189.257 286.743 374.963>
VStem: 38 127<66.259 174> 90 110<528.463 614.462> 276 110<528.463 614.462> 308 130<126.648 158 198 305.059>
LayerCount: 2
Fore
SplineSet
298 158 m 1
 162 158 l 1
 160 156 160 143 160 137 c 0
 160 57 197 31 224 31 c 0
 235.3 31 262.1 41.2 278 65 c 0
 291.6 85.3 297 123 298 158 c 1
44 304 m 1
 34 304 29 322 29 335 c 1
 79 408 147 443 216 443 c 0
 287.1 443 336.4 427.1 374 393 c 0
 416.8 354.2 438 293.5 438 235 c 0
 438 82 318 -11 213 -11 c 0
 66 -11 33 82 33 167 c 0
 33 181 38 198 62 198 c 2
 302 198 l 1
 302 203 303 207 303 214 c 0
 303 312 255 357 177 357 c 0
 139 357 85 346 44 304 c 1
256 573 m 0
 256 604 280 628 311 628 c 0
 341 628 366 604 366 573 c 0
 366 543 341 519 311 519 c 0
 280 519 256 543 256 573 c 0
70 573 m 0
 70 604 95 628 125 628 c 0
 156 628 180 604 180 573 c 0
 180 543 156 519 125 519 c 0
 95 519 70 543 70 573 c 0
EndSplineSet
LCarets2: 1 0 
EndChar

StartChar: uni04E0
Encoding: 1248 1248 118
Width: 632
VWidth: 999
Flags: HW
HStem: -208 48<239.267 370.096> 600 46<156.06 435>
VStem: 57 56<468.375 534.227> 464 132<-45.3333 153.188>
DStem2: 238 243 398 289 0.483142 0.875542<117.578 407.747>
LayerCount: 2
Fore
SplineSet
532 646 m 2
 568 646 582 639 582 629 c 0
 582 622 571 603 562 586 c 2
 398 289 l 1
 534 257 596 161 596 54 c 0
 596 -85 476 -208 285 -208 c 0
 198 -208 35 -172 35 -105 c 0
 35 -80 51 -52 101 -52 c 0
 137 -52 172 -67 187 -88 c 0
 216 -129 263 -160 303 -160 c 0
 380 -160 464 -71 464 45 c 0
 464 200 365 252 304 252 c 0
 292 252 282 252 238 243 c 1
 435 600 l 1
 198 600 l 1
 142 599 117 509 113 464 c 1
 57 469 l 1
 79 674 l 1
 116 666 115 662 124 659 c 0
 142 652 160 646 168 646 c 2
 532 646 l 2
EndSplineSet
EndChar

StartChar: uni04E1
Encoding: 1249 1249 119
Width: 450
VWidth: 999
Flags: HW
HStem: -227 37<160.355 250.096> 386 47<121 269>
VStem: 316 117<-114.702 49.9858>
DStem2: 110 98 254 156 0.483318 0.875445<120.374 328.976>
LayerCount: 2
Fore
SplineSet
123 440 m 0
 123 435 122 433 121 433 c 2
 348 433 l 2
 382 433 394 428 394 416 c 0
 394 413 389 402 381 386 c 2
 254 156 l 1
 368 138 433 69 433 -30 c 0
 433 -127 350 -227 193 -227 c 0
 90 -227 21 -186 21 -151 c 0
 21 -134 34 -117 71 -117 c 0
 105 -117 127 -124 141 -147 c 0
 153 -168 175 -190 202 -190 c 0
 244 -190 316 -145 316 -31 c 0
 316 51 260 112 194 112 c 0
 179 112 151 107 110 98 c 1
 269 386 l 1
 151 386 l 2
 132 386 113 373 93 287 c 1
 40 293 l 1
 73 454 l 1
 124 446 l 1
 123 444 123 441 123 440 c 0
EndSplineSet
EndChar

StartChar: uni04E6
Encoding: 1254 1254 120
Width: 730
VWidth: 999
Flags: HW
HStem: -10 42<307.921 450.939> 616 42<281.337 423.901> 712 113<208.613 297.387 395.997 484.771>
VStem: 37 151<190.183 438.821> 197 112<723.613 813.003> 384 112<723.613 813.003> 543 151<199.76 448.97>
LayerCount: 2
Fore
SplineSet
351 616 m 0
 261.9 616 188 533 188 329 c 0
 188 141 274 32 384 32 c 0
 485 32 543 141.9 543 308 c 0
 543 511 458 616 351 616 c 0
694 329 m 0
 694 230.9 663.2 148.5 608 89 c 0
 550.6 27.1 467 -10 364 -10 c 0
 194 -10 37 111 37 309 c 0
 37 401.4 66.2 484.2 118.1 546 c 0
 176.2 615.3 262.6 658 363 658 c 0
 546 658 694 528 694 329 c 0
197 768 m 0
 197 800 221 825 253 825 c 0
 285 825 309 800 309 768 c 0
 309 736 285 712 253 712 c 0
 221 712 197 736 197 768 c 0
384 768 m 0
 384 800 409 825 441 825 c 0
 473 825 496 800 496 768 c 0
 496 736 473 712 441 712 c 0
 409 712 384 736 384 768 c 0
EndSplineSet
LCarets2: 1 0 
EndChar

StartChar: uni04E7
Encoding: 1255 1255 121
Width: 551
VWidth: 999
Flags: HW
HStem: -10 42<238.337 337.017> 402 42<213.65 311.912> 518 109<132.037 220.257 317.743 405.963>
VStem: 37 140<113.657 317.24> 121 110<529.463 615.462> 307 110<529.463 615.462> 374 140<112.239 317.204>
LayerCount: 2
Fore
SplineSet
260 402 m 0
 193 402 177 321 177 229 c 0
 177 155 209 32 291 32 c 0
 327 32 374 63.9 374 184 c 0
 374 321 328 402 260 402 c 0
37 207 m 0
 37 266.1 53.8 326.4 91.7 370 c 0
 131.2 415.4 193.1 444 276 444 c 0
 424.5 444 514 346.8 514 216 c 0
 514 160.3 496.6 92.3 446 47 c 0
 404.9 10.2 345.5 -10 275 -10 c 0
 140.6 -10 37 76.4 37 207 c 0
307 572 m 0
 307 603 331 627 362 627 c 0
 392 627 417 603 417 572 c 0
 417 542 392 518 362 518 c 0
 331 518 307 542 307 572 c 0
121 572 m 0
 121 603 146 627 176 627 c 0
 207 627 231 603 231 572 c 0
 231 542 207 518 176 518 c 0
 146 518 121 542 121 572 c 0
EndSplineSet
LCarets2: 1 0 
EndChar

StartChar: uni04E8
Encoding: 1256 1256 122
Width: 730
VWidth: 999
Flags: HW
HStem: -10 42<307.921 450.939> 265 58<379.47 528.369> 311 58<169.37 336.519> 616 42<281.337 423.901>
VStem: 37 151<190.183 438.821> 95 15<267.333 271.216> 543 151<199.76 448.97>
LayerCount: 2
Fore
SplineSet
694 329 m 0
 694 230.9 663.2 148.5 608 89 c 0
 550.6 27.1 467 -10 364 -10 c 0
 194 -10 37 111 37 309 c 0
 37 401.4 66.2 484.2 118.1 546 c 0
 176.2 615.3 262.6 658 363 658 c 0
 546 658 694 528 694 329 c 0
542.1 342.9 m 1
 532.9 523 451.7 616 351 616 c 0
 265.8 616 194.5 540.1 188.4 355 c 1
 216.8 364.6 246 369 267 369 c 0
 366 369 396 323 459 323 c 0
 482.5 323 513.9 329.9 542.1 342.9 c 1
542.9 294.5 m 1
 508 272.5 470.8 265 441 265 c 0
 349 265 325 311 250 311 c 0
 234.2 311 211.5 309.7 188.5 305 c 1
 195.5 131.8 278.8 32 384 32 c 0
 482.2 32 539.8 136 542.9 294.5 c 1
EndSplineSet
EndChar

StartChar: uni04E9
Encoding: 1257 1257 123
Width: 551
VWidth: 999
Flags: HW
HStem: -10 42<238.337 337.017> 176 54<224.827 349.161> 207 45<148.343 245.732> 402 42<213.65 311.912>
VStem: 37 140<113.657 317.24> 374 140<112.239 317.204>
AnchorPoint: "unten_punkt" 246 -107 basechar 0
AnchorPoint: "top_akzent" 236 645 basechar 0
LayerCount: 2
Fore
SplineSet
37 207 m 0
 37 266.1 53.8 326.4 91.7 370 c 0
 131.2 415.4 193.1 444 276 444 c 0
 424.5 444 514 346.8 514 216 c 0
 514 160.3 496.6 92.3 446 47 c 0
 404.9 10.2 345.5 -10 275 -10 c 0
 140.6 -10 37 76.4 37 207 c 0
373.2 213.7 m 1
 353.4 198.8 316.9 176 285 176 c 0
 246 176 215 207 184 207 c 0
 182.3 207 180.2 206.8 177.9 206.4 c 1
 183.6 132.4 216.9 32 291 32 c 0
 327 32 374 63.9 374 184 c 0
 374 194.2 373.7 204.1 373.2 213.7 c 1
370.8 243.6 m 1
 359.2 344.2 317.5 402 260 402 c 0
 196.3 402 178.7 328.8 177.1 242.5 c 1
 194.5 248.1 214 252 230 252 c 0
 270 252 290 230 324 230 c 0
 341.2 230 357.6 236.7 370.8 243.6 c 1
EndSplineSet
EndChar

StartChar: uni04EA
Encoding: 1258 1258 124
Width: 730
VWidth: 999
Flags: HW
HStem: -10 42<307.921 450.939> 265 58<379.47 528.369> 311 58<169.37 336.519> 616 42<281.337 423.901> 714 113<205.613 294.387 392.997 481.771>
VStem: 37 151<190.183 438.821> 95 15<267.333 271.216> 194 112<725.613 815.003> 381 112<725.613 815.003> 543 151<199.76 448.97>
LayerCount: 2
Fore
SplineSet
694 329 m 0
 694 230.9 663.2 148.5 608 89 c 0
 550.6 27.1 467 -10 364 -10 c 0
 194 -10 37 111 37 309 c 0
 37 401.4 66.2 484.2 118.1 546 c 0
 176.2 615.3 262.6 658 363 658 c 0
 546 658 694 528 694 329 c 0
194 770 m 0
 194 802 218 827 250 827 c 0
 282 827 306 802 306 770 c 0
 306 738 282 714 250 714 c 0
 218 714 194 738 194 770 c 0
381 770 m 0
 381 802 406 827 438 827 c 0
 470 827 493 802 493 770 c 0
 493 738 470 714 438 714 c 0
 406 714 381 738 381 770 c 0
542.1 342.9 m 1
 532.9 523 451.7 616 351 616 c 0
 265.8 616 194.5 540.1 188.4 355 c 1
 216.8 364.6 246 369 267 369 c 0
 366 369 396 323 459 323 c 0
 482.5 323 513.9 329.9 542.1 342.9 c 1
542.9 294.5 m 1
 508 272.5 470.8 265 441 265 c 0
 349 265 325 311 250 311 c 0
 234.2 311 211.5 309.7 188.5 305 c 1
 195.5 131.8 278.8 32 384 32 c 0
 482.2 32 539.8 136 542.9 294.5 c 1
EndSplineSet
LCarets2: 1 0 
EndChar

StartChar: uni04EB
Encoding: 1259 1259 125
Width: 551
VWidth: 999
Flags: HW
HStem: -10 42<238.337 337.017> 176 54<224.827 349.161> 207 45<148.343 245.732> 402 42<213.65 311.912> 517 109<134.037 222.257 319.743 407.963>
VStem: 37 140<113.657 317.24> 123 110<528.463 614.462> 309 110<528.463 614.462> 374 140<112.239 317.204>
LayerCount: 2
Fore
SplineSet
309 571 m 0
 309 602 333 626 364 626 c 0
 394 626 419 602 419 571 c 0
 419 541 394 517 364 517 c 0
 333 517 309 541 309 571 c 0
123 571 m 0
 123 602 148 626 178 626 c 0
 209 626 233 602 233 571 c 0
 233 541 209 517 178 517 c 0
 148 517 123 541 123 571 c 0
37 207 m 0
 37 266.1 53.8 326.4 91.7 370 c 0
 131.2 415.4 193.1 444 276 444 c 0
 424.5 444 514 346.8 514 216 c 0
 514 160.3 496.6 92.3 446 47 c 0
 404.9 10.2 345.5 -10 275 -10 c 0
 140.6 -10 37 76.4 37 207 c 0
373.2 213.7 m 1
 353.4 198.8 316.9 176 285 176 c 0
 246 176 215 207 184 207 c 0
 182.3 207 180.2 206.8 177.9 206.4 c 1
 183.6 132.4 216.9 32 291 32 c 0
 327 32 374 63.9 374 184 c 0
 374 194.2 373.7 204.1 373.2 213.7 c 1
370.8 243.6 m 1
 359.2 344.2 317.5 402 260 402 c 0
 196.3 402 178.7 328.8 177.1 242.5 c 1
 194.5 248.1 214 252 230 252 c 0
 270 252 290 230 324 230 c 0
 341.2 230 357.6 236.7 370.8 243.6 c 1
EndSplineSet
LCarets2: 1 0 
EndChar

StartChar: uni04EF
Encoding: 1263 1263 126
Width: 558
VWidth: 999
Flags: HW
HStem: -232 104<86.4435 200.806> 402 34<6.77002 56.7713 208.453 257.23 367.77 420.434 505.585 551.23> 575 50<125.182 435.647>
VStem: 123 315<575.682 624.598>
DStem2: 221 338 89 328 0.399519 -0.916725<-53.0347 228.751> 222.288 -83 242 -168 0.407369 0.913264<-62.347 86.9626 229.961 511.919>
LayerCount: 2
Fore
SplineSet
242 -168 m 0
 230.8 -187.9 203 -212 182 -222 c 0
 168.2 -228.5 138.2 -232 125 -232 c 0
 111.6 -232 95.4 -225.1 86 -214 c 0
 76.5 -202.7 74 -187.1 74 -174 c 0
 74 -154 96 -128 134 -128 c 0
 148 -128 151 -132 169 -132 c 0
 197 -132 209.1 -113.7 222.3 -83 c 2
 246 -28 l 2
 254 -10 235 8 218 32 c 1
 89 328 l 2
 61.7 390.7 54 398 10 402 c 1
 4 408 4 430 10 436 c 1
 30 435 87 434 121 434 c 0
 157 434 217 435 254 436 c 1
 260 430 260 408 254 402 c 1
 193 397 202.8 379 221 338 c 2
 314 129 l 2
 314.9 127.2 315.3 125.9 315.4 125 c 1
 315.5 125.5 315.7 126.2 316 127 c 2
 419 358 l 2
 435 394 403 399 371 402 c 1
 365 408 365 430 371 436 c 1
 408 435 442 434 477 434 c 0
 505 434 523 435 548 436 c 1
 554 430 554 408 548 402 c 1
 511 399 481 368 467 339 c 0
 414 227 365 119 285 -74 c 0
 273 -104 257.8 -139.9 242 -168 c 0
412 575 m 2
 138 575 l 2
 127 575 123 584 123 593 c 0
 123 605 135 625 148 625 c 2
 424 625 l 2
 434 625 438 616 438 608 c 0
 438 595 426 575 412 575 c 2
EndSplineSet
LCarets2: 1 0 
EndChar

StartChar: uni04F1
Encoding: 1265 1265 127
Width: 558
VWidth: 999
Flags: HW
HStem: -232 104<86.4435 200.806> 402 34<6.77002 56.7713 208.453 257.23 367.77 420.434 505.585 551.23> 517 109<167.037 255.257 352.743 440.963>
VStem: 156 110<528.463 614.462> 342 110<528.463 614.462>
DStem2: 221 338 89 328 0.399519 -0.916725<-53.0347 228.751> 222.288 -83 242 -168 0.407369 0.913264<-62.347 86.9626 229.961 511.919>
LayerCount: 2
Fore
SplineSet
342 571 m 0
 342 602 366 626 397 626 c 0
 427 626 452 602 452 571 c 0
 452 541 427 517 397 517 c 0
 366 517 342 541 342 571 c 0
156 571 m 0
 156 602 181 626 211 626 c 0
 242 626 266 602 266 571 c 0
 266 541 242 517 211 517 c 0
 181 517 156 541 156 571 c 0
242 -168 m 0
 230.8 -187.9 203 -212 182 -222 c 0
 168.2 -228.5 138.2 -232 125 -232 c 0
 111.6 -232 95.4 -225.1 86 -214 c 0
 76.5 -202.7 74 -187.1 74 -174 c 0
 74 -154 96 -128 134 -128 c 0
 148 -128 151 -132 169 -132 c 0
 197 -132 209.1 -113.7 222.3 -83 c 2
 246 -28 l 2
 254 -10 235 8 218 32 c 1
 89 328 l 2
 61.7 390.7 54 398 10 402 c 1
 4 408 4 430 10 436 c 1
 30 435 87 434 121 434 c 0
 157 434 217 435 254 436 c 1
 260 430 260 408 254 402 c 1
 193 397 202.8 379 221 338 c 2
 314 129 l 2
 314.9 127.2 315.3 125.9 315.4 125 c 1
 315.5 125.5 315.7 126.2 316 127 c 2
 419 358 l 2
 435 394 403 399 371 402 c 1
 365 408 365 430 371 436 c 1
 408 435 442 434 477 434 c 0
 505 434 523 435 548 436 c 1
 554 430 554 408 548 402 c 1
 511 399 481 368 467 339 c 0
 414 227 365 119 285 -74 c 0
 273 -104 257.8 -139.9 242 -168 c 0
EndSplineSet
LCarets2: 1 0 
EndChar

StartChar: uni04F3
Encoding: 1267 1267 128
Width: 558
VWidth: 999
Flags: HW
HStem: -232 104<86.4435 200.806> 402 34<6.77002 56.7713 208.453 257.23 367.77 420.434 505.585 551.23>
DStem2: 221 338 89 328 0.399519 -0.916725<-53.0347 228.751> 222.288 -83 242 -168 0.407369 0.913264<-62.347 86.9626 229.961 511.919>
LayerCount: 2
Fore
SplineSet
474.8 608.7 m 0
 474.8 597 469.8 591.9 462 584.5 c 2
 364 491.6 l 2
 358.8 486.6 353.8 484.3 349.1 484.3 c 0
 341.5 484.3 333.7 490.1 333.7 499 c 0
 333.7 503 335.2 507.7 338.2 513 c 2
 406.1 634 l 2
 407.6 636.7 415 652.2 434 652.2 c 0
 458.5 652.2 474.8 632.8 474.8 608.7 c 0
346 621 m 0
 346 616 345 610 341 605 c 2
 249.1 496 l 2
 240.1 485.4 231.7 481 225.1 481 c 0
 217.3 481 212.1 487.3 212.1 496.5 c 0
 212.1 500.5 213.2 505.1 215.3 510 c 2
 274 644 l 2
 278.9 655.1 293 657 304 657 c 0
 326.3 657 346 640.2 346 621 c 0
242 -168 m 0
 230.8 -187.9 203 -212 182 -222 c 0
 168.2 -228.5 138.2 -232 125 -232 c 0
 111.6 -232 95.4 -225.1 86 -214 c 0
 76.5 -202.7 74 -187.1 74 -174 c 0
 74 -154 96 -128 134 -128 c 0
 148 -128 151 -132 169 -132 c 0
 197 -132 209.1 -113.7 222.3 -83 c 2
 246 -28 l 2
 254 -10 235 8 218 32 c 1
 89 328 l 2
 61.7 390.7 54 398 10 402 c 1
 4 408 4 430 10 436 c 1
 30 435 87 434 121 434 c 0
 157 434 217 435 254 436 c 1
 260 430 260 408 254 402 c 1
 193 397 202.8 379 221 338 c 2
 314 129 l 2
 314.9 127.2 315.3 125.9 315.4 125 c 1
 315.5 125.5 315.7 126.2 316 127 c 2
 419 358 l 2
 435 394 403 399 371 402 c 1
 365 408 365 430 371 436 c 1
 408 435 442 434 477 434 c 0
 505 434 523 435 548 436 c 1
 554 430 554 408 548 402 c 1
 511 399 481 368 467 339 c 0
 414 227 365 119 285 -74 c 0
 273 -104 257.8 -139.9 242 -168 c 0
EndSplineSet
LCarets2: 1 0 
EndChar

StartChar: uni1E00
Encoding: 7680 7680 129
Width: 740
VWidth: 999
Flags: HW
HStem: -215 34<312.785 383.791> -83 34<312.384 384.328> -2 34<3.77002 69.5762 167.992 237.23 421.77 500.035 664.842 733.23> 235 48<250.587 425> 638 20<426.5 441.203>
VStem: 263 38<-171.649 -92.072> 396 38<-171.072 -93.278>
DStem2: 106.983 102 165 79 0.390001 0.920814<-25.5008 179.412 231.412 451.365> 323.835 614 336.175 520 0.390001 0.920814<-540.408 -382.79 -329.399 -81.7439> 434 658 343.096 520 0.338836 -0.940845<99.0351 349.768 401.027 600.306>
LayerCount: 2
Fore
SplineSet
348 -83 m 0
 320 -83 301 -104 301 -132 c 0
 301 -158 319 -181 348 -181 c 0
 377 -181 396 -158 396 -132 c 0
 396 -103 375 -83 348 -83 c 0
263 -132 m 0
 263 -86 301 -49 348 -49 c 0
 393 -49 434 -85 434 -132 c 0
 434 -177 395 -215 348 -215 c 0
 302 -215 263 -178 263 -132 c 0
273 283 m 2
 425 283 l 1
 343.1 520 l 1
 336.2 520 l 1
 247.8 296.3 l 2
 244 286 251 283 273 283 c 2
165 79 m 2
 149 38 196.4 34.6 234 32 c 1
 240 26 240 4 234 -2 c 1
 197 -1 142 0 101 0 c 0
 62 0 44 -1 7 -2 c 1
 1 4 1 26 7 32 c 1
 50.5 35 81 40 107 102 c 2
 323.8 614 l 1
 359 614 419 649 434 658 c 1
 640 86 l 2
 658 35 691.2 35.5 730 32 c 1
 736 26 736 4 730 -2 c 1
 693 -1 637 0 596 0 c 0
 557 0 462 -1 425 -2 c 1
 419 4 419 26 425 32 c 1
 472.6 35.4 513 31 499 72 c 2
 443 235 l 1
 253 235 l 2
 229 235 223 231 218 218 c 2
 165 79 l 2
EndSplineSet
LCarets2: 1 0 
EndChar

StartChar: uni1E01
Encoding: 7681 7681 130
Width: 506
VWidth: 999
Flags: HW
HStem: -216 34<200.785 271.791> -84 34<200.384 272.328> -10 60<125.5 232.247> -10 70<351 458.925> 402 42<171.423 262.805>
VStem: 44 120<61.1723 156.955> 61.5 113.9<297.459 383.465> 151 38<-172.649 -93.072> 284 38<-172.072 -94.278> 290 126<70.3412 218 257 374.933>
DStem2: 223 236 238 201 0.954226 0.299086<-67.4736 58.5496>
LayerCount: 2
Fore
SplineSet
236 -84 m 0
 208 -84 189 -105 189 -133 c 0
 189 -159 207 -182 236 -182 c 0
 265 -182 284 -159 284 -133 c 0
 284 -104 263 -84 236 -84 c 0
151 -133 m 0
 151 -87 189 -50 236 -50 c 0
 281 -50 322 -86 322 -133 c 0
 322 -178 283 -216 236 -216 c 0
 190 -216 151 -179 151 -133 c 0
295.2 48.5 m 1
 289 48 l 1
 256 22 198 -10 169 -10 c 0
 82 -10 44 26 44 95 c 0
 44 174 117.6 203 223 236 c 2
 290 257 l 1
 290 384 255 402 213 402 c 0
 179.5 402 172.3 390.3 170.8 379.2 c 0
 168.5 362 175.4 345.2 175.4 332 c 0
 175.4 307.8 148.6 285.8 113.2 285.8 c 0
 73.6 285.8 61.5 307.7 61.5 336.3 c 0
 61.5 402.3 174 444 247 444 c 0
 329 444 418 415 418 271 c 1
 416 127 l 2
 416 78 422 60 444 60 c 0
 463 60 473 64 486 74 c 1
 497.5 65.8 501.8 57.8 504 46 c 1
 467 11 428.3 -10 373 -10 c 0
 329 -10 302 8 295.2 48.5 c 1
290 218 m 1
 238 201 l 2
 167.3 177.9 164 147.1 164 110 c 0
 164 79 179 50 222 50 c 0
 240 50 265 66 290 86 c 1
 290 218 l 1
EndSplineSet
LCarets2: 1 0 
EndChar

StartChar: uni1E02
Encoding: 7682 7682 131
Width: 654
VWidth: 999
Flags: HW
HStem: -2 34<13.6167 82.4056> -2 42<245.223 398.568> 334 42<242 372.404> 605 42<245.143 375.483> 613 34<13.6167 82.4056> 709 124<250.2 343.8>
VStem: 102 140<47 334 376 598> 235 124<724.2 817.8> 414 140<424.816 568.13> 461 147<100.315 274.622>
LayerCount: 2
Fore
SplineSet
235 771 m 0
 235 805 263 833 297 833 c 0
 331 833 359 805 359 771 c 0
 359 737 331 709 297 709 c 0
 263 709 235 737 235 771 c 0
242 562 m 2
 242 376 l 1
 298 376 l 2
 369 376 414 409 414 489 c 0
 414 587 358 605 312 605 c 0
 247 605 242 591 242 562 c 2
242 334 m 1
 242 84 l 2
 242 55 248 40 308 40 c 0
 440 40 461 127 461 187 c 0
 461 273 416 334 313 334 c 2
 242 334 l 1
173 645 m 0
 204.7 645 265 647 315 647 c 0
 516.8 647 554 560 554 491 c 0
 554 440 512 385 458 361 c 1
 458 359 l 1
 564 331 608 274 608 186 c 0
 608 84 542 -2 337 -2 c 0
 277 -2 213 0 173 0 c 0
 133 0 19 -2 19 -2 c 1
 9 4 9 26 19 32 c 1
 74 35 102 39 102 122 c 2
 102 523 l 2
 102 606 74 610 19 613 c 1
 9 619 9 641 19 647 c 1
 19 647 133 645 173 645 c 0
EndSplineSet
LCarets2: 1 0 
EndChar

StartChar: uni1E03
Encoding: 7683 7683 132
Width: 542
VWidth: 999
Flags: HW
HStem: -10 42<218.581 322.263> 373 71<257.309 332.07> 521 128<287.302 387.126 287.302 387.126> 640 32<3.14355 63.8851> 678 20<172.5 195.5>
VStem: 74 130<47.2213 633.241> 271 135<539.993 631.845 539.993 631.845> 368 140<141.39 333.221>
LayerCount: 2
Fore
SplineSet
271 587 m 0
 271 617 294 649 341 649 c 0
 383 649 406 613 406 583 c 0
 406 557 380 521 335 521 c 0
 295 521 271 554 271 587 c 0
74 127 m 2
 74 565 l 2
 74 633.6 69 635 6 640 c 1
 1 649 0 660 3 672 c 1
 74 675 154 686 191 698 c 1
 200 698 207 694 207 685 c 2
 207 685 204 648 204 583 c 2
 204 388 l 1
 233 409 286 444 317 444 c 0
 369.7 444 418 434 454 393 c 0
 486.2 356.3 508 299.8 508 243 c 0
 508 99.9 391 -10 280 -10 c 0
 234.4 -10 173 0 134 30 c 1
 125 11.7 115 -2 102 -13 c 1
 91 -13 80 -10 68 -6 c 1
 72 32 74 44 74 127 c 2
204 348 m 1
 204 67 l 1
 223 44 245.7 32 275 32 c 0
 354 32 368 148.4 368 230 c 0
 368 328 331 373 282 373 c 0
 258.5 373 237 369.5 204 348 c 1
EndSplineSet
LCarets2: 1 0 
EndChar

StartChar: uni1E04
Encoding: 7684 7684 133
Width: 654
VWidth: 999
Flags: HW
HStem: -225 128<232.302 332.126 232.302 332.126> -2 34<13.6167 82.4056> -2 42<245.223 398.568> 334 42<242 372.404> 605 42<245.143 375.483> 613 34<13.6167 82.4056>
VStem: 102 140<47 334 376 598> 216 135<-206.007 -114.155 -206.007 -114.155> 414 140<424.816 568.13> 461 147<100.315 274.622>
LayerCount: 2
Fore
SplineSet
216 -159 m 0
 216 -129 239 -97 286 -97 c 0
 328 -97 351 -133 351 -163 c 0
 351 -189 325 -225 280 -225 c 0
 240 -225 216 -192 216 -159 c 0
242 562 m 2
 242 376 l 1
 298 376 l 2
 369 376 414 409 414 489 c 0
 414 587 358 605 312 605 c 0
 247 605 242 591 242 562 c 2
242 334 m 1
 242 84 l 2
 242 55 248 40 308 40 c 0
 440 40 461 127 461 187 c 0
 461 273 416 334 313 334 c 2
 242 334 l 1
173 645 m 0
 204.7 645 265 647 315 647 c 0
 516.8 647 554 560 554 491 c 0
 554 440 512 385 458 361 c 1
 458 359 l 1
 564 331 608 274 608 186 c 0
 608 84 542 -2 337 -2 c 0
 277 -2 213 0 173 0 c 0
 133 0 19 -2 19 -2 c 1
 9 4 9 26 19 32 c 1
 74 35 102 39 102 122 c 2
 102 523 l 2
 102 606 74 610 19 613 c 1
 9 619 9 641 19 647 c 1
 19 647 133 645 173 645 c 0
EndSplineSet
LCarets2: 1 0 
EndChar

StartChar: uni1E05
Encoding: 7685 7685 134
Width: 542
VWidth: 999
Flags: HW
HStem: -225 128<206.302 306.126 206.302 306.126> -10 42<218.581 322.263> 373 71<257.309 332.07> 640 32<3.14355 63.8851> 678 20<172.5 195.5>
VStem: 74 130<47.2213 633.241> 190 135<-206.007 -114.155 -206.007 -114.155> 368 140<141.39 333.221>
LayerCount: 2
Fore
SplineSet
190 -159 m 0
 190 -129 213 -97 260 -97 c 0
 302 -97 325 -133 325 -163 c 0
 325 -189 299 -225 254 -225 c 0
 214 -225 190 -192 190 -159 c 0
74 127 m 2
 74 565 l 2
 74 633.6 69 635 6 640 c 1
 1 649 0 660 3 672 c 1
 74 675 154 686 191 698 c 1
 200 698 207 694 207 685 c 2
 207 685 204 648 204 583 c 2
 204 388 l 1
 233 409 286 444 317 444 c 0
 369.7 444 418 434 454 393 c 0
 486.2 356.3 508 299.8 508 243 c 0
 508 99.9 391 -10 280 -10 c 0
 234.4 -10 173 0 134 30 c 1
 125 11.7 115 -2 102 -13 c 1
 91 -13 80 -10 68 -6 c 1
 72 32 74 44 74 127 c 2
204 348 m 1
 204 67 l 1
 223 44 245.7 32 275 32 c 0
 354 32 368 148.4 368 230 c 0
 368 328 331 373 282 373 c 0
 258.5 373 237 369.5 204 348 c 1
EndSplineSet
LCarets2: 1 0 
EndChar

StartChar: uni1E06
Encoding: 7686 7686 135
Width: 654
VWidth: 999
Flags: HW
HStem: -134 50<146.16 405.536> -2 34<13.6167 82.4056> -2 42<245.223 398.568> 334 42<242 372.404> 605 42<245.143 375.483> 613 34<13.6167 82.4056>
VStem: 102 140<47 334 376 598> 144 264<-133.598 -84.2278> 414 140<424.816 568.13> 461 147<100.315 274.622>
LayerCount: 2
Fore
SplineSet
383 -134 m 2
 157 -134 l 2
 148 -134 144 -125 144 -117 c 0
 144 -104 155 -84 168 -84 c 2
 394 -84 l 2
 404 -84 408 -92 408 -100 c 0
 408 -113 397 -134 383 -134 c 2
242 562 m 2
 242 376 l 1
 298 376 l 2
 369 376 414 409 414 489 c 0
 414 587 358 605 312 605 c 0
 247 605 242 591 242 562 c 2
242 334 m 1
 242 84 l 2
 242 55 248 40 308 40 c 0
 440 40 461 127 461 187 c 0
 461 273 416 334 313 334 c 2
 242 334 l 1
173 645 m 0
 204.7 645 265 647 315 647 c 0
 516.8 647 554 560 554 491 c 0
 554 440 512 385 458 361 c 1
 458 359 l 1
 564 331 608 274 608 186 c 0
 608 84 542 -2 337 -2 c 0
 277 -2 213 0 173 0 c 0
 133 0 19 -2 19 -2 c 1
 9 4 9 26 19 32 c 1
 74 35 102 39 102 122 c 2
 102 523 l 2
 102 606 74 610 19 613 c 1
 9 619 9 641 19 647 c 1
 19 647 133 645 173 645 c 0
EndSplineSet
LCarets2: 1 0 
EndChar

StartChar: uni1E07
Encoding: 7687 7687 136
Width: 542
VWidth: 999
Flags: HW
HStem: -134 50<146.16 405.536> -10 42<218.581 322.263> 373 71<257.309 332.07> 640 32<3.14355 63.8851> 678 20<172.5 195.5>
VStem: 74 130<47.2213 633.241> 144 264<-133.598 -84.2278> 368 140<141.39 333.221>
LayerCount: 2
Fore
SplineSet
383 -134 m 2
 157 -134 l 2
 148 -134 144 -125 144 -117 c 0
 144 -104 155 -84 168 -84 c 2
 394 -84 l 2
 404 -84 408 -92 408 -100 c 0
 408 -113 397 -134 383 -134 c 2
74 127 m 2
 74 565 l 2
 74 633.6 69 635 6 640 c 1
 1 649 0 660 3 672 c 1
 74 675 154 686 191 698 c 1
 200 698 207 694 207 685 c 2
 207 685 204 648 204 583 c 2
 204 388 l 1
 233 409 286 444 317 444 c 0
 369.7 444 418 434 454 393 c 0
 486.2 356.3 508 299.8 508 243 c 0
 508 99.9 391 -10 280 -10 c 0
 234.4 -10 173 0 134 30 c 1
 125 11.7 115 -2 102 -13 c 1
 91 -13 80 -10 68 -6 c 1
 72 32 74 44 74 127 c 2
204 348 m 1
 204 67 l 1
 223 44 245.7 32 275 32 c 0
 354 32 368 148.4 368 230 c 0
 368 328 331 373 282 373 c 0
 258.5 373 237 369.5 204 348 c 1
EndSplineSet
LCarets2: 1 0 
EndChar

StartChar: uni1E08
Encoding: 7688 7688 137
Width: 706
VWidth: 999
Flags: HW
HStem: -219 29<280.923 379.52> -10 52<319.411 502.57> 617 41<309.587 488.187> 701 132
VStem: 37 151<207.875 440.344> 271 202 390 62.9<-181.416 -118.388> 596 43<455.199 507.556>
LayerCount: 2
Fore
SplineSet
301 -105 m 1
 295 -99 l 1
 340.6 -7.8 l 1
 269.1 -1.9 209.1 16.3 158 53 c 0
 77.8 110.7 37 221.1 37 315 c 0
 37 535.2 202 658 398 658 c 0
 521 658 566 618 617 613 c 1
 626 558 634 510 639 458 c 1
 627.7 452 608 449 596 453 c 1
 570 539 525 617 387 617 c 0
 268 617 188 489.4 188 334 c 0
 188 178 280 42 396 42 c 0
 466 42 547 68 618 146 c 1
 629 146 646 134 651 125 c 1
 583 36 494 -10 397 -10 c 0
 389.5 -10 382 -9.9 374.7 -9.7 c 1
 360 -45 l 1
 405.4 -54.1 452.9 -74.5 452.9 -129.1 c 0
 452.9 -179.3 400.8 -219 336 -219 c 0
 304 -219 295 -214.2 272 -202 c 1
 272 -192 272.9 -180.2 282 -176 c 1
 309 -186 320 -190 340 -190 c 0
 370 -190 390 -176 390 -149 c 0
 390 -111.4 337 -107 301 -105 c 1
408 833 m 1
 432.8 821.4 460.2 798.6 473 778 c 1
 470 766 l 1
 326 708 l 2
 311.5 702.2 300 701 291 701 c 0
 282 701 271 708 271 716 c 0
 271 723 271.3 728.7 281 737 c 0
 302 755 368 805 408 833 c 1
EndSplineSet
LCarets2: 1 0 
EndChar

StartChar: uni1E09
Encoding: 7689 7689 138
Width: 456
VWidth: 999
Flags: HW
HStem: -215 29<152.923 251.52> -10 71<238.16 335.126> 402 42<204.419 288.383>
VStem: 37 130<138.785 307.849> 262 62.9<-177.416 -114.388> 305 117<296.764 386.24>
LayerCount: 2
Fore
SplineSet
298 637 m 1
 301 638 309 639 314 639 c 0
 344 639 363 625 371 615 c 1
 381 592 l 1
 261 484 l 2
 247 472 233 468 223 468 c 0
 215 468 207 476 207 482 c 0
 207 488 209 497 215 506 c 2
 298 637 l 1
173 -101 m 1
 167 -95 l 1
 210.7 -7.7 l 1
 163.6 -2.2 129.5 13.3 99 42 c 0
 60.2 78.5 37 136.4 37 201 c 0
 37 349 141 444 259 444 c 0
 368 444 422 385 422 340 c 0
 422 309 399 284 367 284 c 0
 335 284 308 304 305 331 c 0
 302 363 287 402 250 402 c 0
 197 402 172 347 172 236 c 0
 172 116 231 62 306 62 c 0
 335 62 369 81 409 118 c 1
 420 118 422 99 422 87 c 1
 384 32 315 -10 255 -10 c 0
 251.6 -10 248.3 -10 245 -9.9 c 1
 232 -41 l 1
 277.4 -50.1 324.9 -70.5 324.9 -125.1 c 0
 324.9 -175.3 272.8 -215 208 -215 c 0
 176 -215 167 -210.2 144 -198 c 1
 144 -188 144.9 -176.2 154 -172 c 1
 181 -182 192 -186 212 -186 c 0
 242 -186 262 -172 262 -145 c 0
 262 -107.4 209 -103 173 -101 c 1
EndSplineSet
LCarets2: 1 0 
EndChar

StartChar: uni1E0A
Encoding: 7690 7690 139
Width: 734
VWidth: 999
Flags: HW
HStem: -2 34<25.6167 94.4056> -2 42<269.225 426.596> 604 42<268.527 415.668> 613 34<25.6167 94.4056> 709 124<280.2 373.8>
VStem: 114 140<54.7283 590.272> 265 124<724.2 817.8> 535 151<175.935 431.978>
LayerCount: 2
Fore
SplineSet
265 771 m 0
 265 805 293 833 327 833 c 0
 361 833 389 805 389 771 c 0
 389 737 361 709 327 709 c 0
 293 709 265 737 265 771 c 0
254 119 m 2
 254 52 280 40 350 40 c 0
 426 40 535 102 535 284 c 0
 535 435 513 604 316 604 c 0
 280 604 254 584 254 529 c 2
 254 119 l 2
185 0 m 0
 145 0 31 -2 31 -2 c 1
 21 4 21 26 31 32 c 1
 86 35 114 39 114 122 c 2
 114 523 l 2
 114 606 86 610 31 613 c 1
 21 619 21 641 31 647 c 1
 31 647 145 645 185 645 c 0
 225 645 267 646 320 646 c 0
 566 646 686 494 686 309 c 0
 686 207.4 653 124 605 82 c 0
 534.3 20.2 434.5 -2 347 -2 c 0
 307 -2 225 0 185 0 c 0
EndSplineSet
LCarets2: 1 0 
EndChar

StartChar: uni1E0B
Encoding: 7691 7691 140
Width: 561
VWidth: 999
Flags: HW
HStem: -10 66<218.255 282.926> 23 32<498.156 547.438> 402 42<223.616 337.044> 491 128<143.302 243.126 143.302 243.126> 638 34<280.144 340.885> 678 20<449.5 472.5>
VStem: 37 140<106.967 294.34> 127 135<509.993 601.845 509.993 601.845> 351 130<67.3603 359 411 631.337>
LayerCount: 2
Fore
SplineSet
127 557 m 0
 127 587 150 619 197 619 c 0
 239 619 262 583 262 553 c 0
 262 527 236 491 191 491 c 0
 151 491 127 524 127 557 c 0
351.6 94.8 m 1
 351.2 103.4 351 111.9 351 120 c 2
 351 366.2 l 1
 326.7 399.3 302.2 402 276 402 c 0
 245.7 402 218.5 386.1 202 359 c 0
 183.1 328 177 282.3 177 229 c 0
 177 112 216 56 266 56 c 0
 277.7 56 330.5 77.9 351.6 94.8 c 1
354.7 48 m 1
 346 48 l 1
 325 34 251 -10 224 -10 c 0
 168.2 -10 143 4 107 32 c 0
 58.4 69.8 37 138.5 37 198 c 0
 37 331 150 444 279 444 c 0
 307.9 444 331.9 439.4 351 432.6 c 1
 351 563 l 2
 351 632 346 633 283 638 c 1
 278 647 277 660 280 672 c 1
 351 675 431 686 468 698 c 1
 477 698 484 694 484 685 c 2
 484 685 481 648 481 583 c 2
 481 133 l 2
 481 76 491.5 60.1 546 55 c 1
 548 49 550 29 548 23 c 1
 479 14 419 0 382 -10 c 1
 368 -10 359.8 -5 359 7 c 2
 359 7 356.8 24.4 354.7 48 c 1
EndSplineSet
LCarets2: 1 0 
EndChar

StartChar: uni1E0C
Encoding: 7692 7692 141
Width: 734
VWidth: 999
Flags: HW
HStem: -195 128<252.302 352.126 252.302 352.126> -2 34<25.6167 94.4056> -2 42<269.225 426.596> 604 42<268.527 415.668> 613 34<25.6167 94.4056>
VStem: 114 140<54.7283 590.272> 236 135<-176.007 -84.155 -176.007 -84.155> 535 151<175.935 431.978>
LayerCount: 2
Fore
SplineSet
236 -129 m 0
 236 -99 259 -67 306 -67 c 0
 348 -67 371 -103 371 -133 c 0
 371 -159 345 -195 300 -195 c 0
 260 -195 236 -162 236 -129 c 0
254 119 m 2
 254 52 280 40 350 40 c 0
 426 40 535 102 535 284 c 0
 535 435 513 604 316 604 c 0
 280 604 254 584 254 529 c 2
 254 119 l 2
185 0 m 0
 145 0 31 -2 31 -2 c 1
 21 4 21 26 31 32 c 1
 86 35 114 39 114 122 c 2
 114 523 l 2
 114 606 86 610 31 613 c 1
 21 619 21 641 31 647 c 1
 31 647 145 645 185 645 c 0
 225 645 267 646 320 646 c 0
 566 646 686 494 686 309 c 0
 686 207.4 653 124 605 82 c 0
 534.3 20.2 434.5 -2 347 -2 c 0
 307 -2 225 0 185 0 c 0
EndSplineSet
LCarets2: 1 0 
EndChar

StartChar: uni1E0D
Encoding: 7693 7693 142
Width: 561
VWidth: 999
Flags: HW
HStem: -205 128<197.302 297.126 197.302 297.126> -10 66<218.255 282.926> 23 32<498.156 547.438> 402 42<223.616 337.044> 638 34<280.144 340.885> 678 20<449.5 472.5>
VStem: 37 140<106.967 294.34> 181 135<-186.007 -94.155 -186.007 -94.155> 351 130<67.3603 359 411 631.337>
LayerCount: 2
Fore
SplineSet
181 -139 m 0
 181 -109 204 -77 251 -77 c 0
 293 -77 316 -113 316 -143 c 0
 316 -169 290 -205 245 -205 c 0
 205 -205 181 -172 181 -139 c 0
351.6 94.8 m 1
 351.2 103.4 351 111.9 351 120 c 2
 351 366.2 l 1
 326.7 399.3 302.2 402 276 402 c 0
 245.7 402 218.5 386.1 202 359 c 0
 183.1 328 177 282.3 177 229 c 0
 177 112 216 56 266 56 c 0
 277.7 56 330.5 77.9 351.6 94.8 c 1
354.7 48 m 1
 346 48 l 1
 325 34 251 -10 224 -10 c 0
 168.2 -10 143 4 107 32 c 0
 58.4 69.8 37 138.5 37 198 c 0
 37 331 150 444 279 444 c 0
 307.9 444 331.9 439.4 351 432.6 c 1
 351 563 l 2
 351 632 346 633 283 638 c 1
 278 647 277 660 280 672 c 1
 351 675 431 686 468 698 c 1
 477 698 484 694 484 685 c 2
 484 685 481 648 481 583 c 2
 481 133 l 2
 481 76 491.5 60.1 546 55 c 1
 548 49 550 29 548 23 c 1
 479 14 419 0 382 -10 c 1
 368 -10 359.8 -5 359 7 c 2
 359 7 356.8 24.4 354.7 48 c 1
EndSplineSet
LCarets2: 1 0 
EndChar

StartChar: uni1E0E
Encoding: 7694 7694 143
Width: 734
VWidth: 999
Flags: HW
HStem: -134 50<223.16 482.536> -2 34<25.6167 94.4056> -2 42<269.225 426.596> 604 42<268.527 415.668> 613 34<25.6167 94.4056>
VStem: 114 140<54.7283 590.272> 221 264<-133.598 -84.2278> 535 151<175.935 431.978>
LayerCount: 2
Fore
SplineSet
460 -134 m 2
 234 -134 l 2
 225 -134 221 -125 221 -117 c 0
 221 -104 232 -84 245 -84 c 2
 471 -84 l 2
 481 -84 485 -92 485 -100 c 0
 485 -113 474 -134 460 -134 c 2
254 119 m 2
 254 52 280 40 350 40 c 0
 426 40 535 102 535 284 c 0
 535 435 513 604 316 604 c 0
 280 604 254 584 254 529 c 2
 254 119 l 2
185 0 m 0
 145 0 31 -2 31 -2 c 1
 21 4 21 26 31 32 c 1
 86 35 114 39 114 122 c 2
 114 523 l 2
 114 606 86 610 31 613 c 1
 21 619 21 641 31 647 c 1
 31 647 145 645 185 645 c 0
 225 645 267 646 320 646 c 0
 566 646 686 494 686 309 c 0
 686 207.4 653 124 605 82 c 0
 534.3 20.2 434.5 -2 347 -2 c 0
 307 -2 225 0 185 0 c 0
EndSplineSet
LCarets2: 1 0 
EndChar

StartChar: uni1E0F
Encoding: 7695 7695 144
Width: 561
VWidth: 999
Flags: HW
HStem: -134 50<104.16 363.536> -10 66<218.255 282.926> 23 32<498.156 547.438> 402 42<223.616 337.044> 638 34<280.144 340.885> 678 20<449.5 472.5>
VStem: 37 140<106.967 294.34> 102 264<-133.598 -84.2278> 351 130<67.3603 359 411 631.337>
LayerCount: 2
Fore
SplineSet
341 -134 m 2
 115 -134 l 2
 106 -134 102 -125 102 -117 c 0
 102 -104 113 -84 126 -84 c 2
 352 -84 l 2
 362 -84 366 -92 366 -100 c 0
 366 -113 355 -134 341 -134 c 2
351.6 94.8 m 1
 351.2 103.4 351 111.9 351 120 c 2
 351 366.2 l 1
 326.7 399.3 302.2 402 276 402 c 0
 245.7 402 218.5 386.1 202 359 c 0
 183.1 328 177 282.3 177 229 c 0
 177 112 216 56 266 56 c 0
 277.7 56 330.5 77.9 351.6 94.8 c 1
354.7 48 m 1
 346 48 l 1
 325 34 251 -10 224 -10 c 0
 168.2 -10 143 4 107 32 c 0
 58.4 69.8 37 138.5 37 198 c 0
 37 331 150 444 279 444 c 0
 307.9 444 331.9 439.4 351 432.6 c 1
 351 563 l 2
 351 632 346 633 283 638 c 1
 278 647 277 660 280 672 c 1
 351 675 431 686 468 698 c 1
 477 698 484 694 484 685 c 2
 484 685 481 648 481 583 c 2
 481 133 l 2
 481 76 491.5 60.1 546 55 c 1
 548 49 550 29 548 23 c 1
 479 14 419 0 382 -10 c 1
 368 -10 359.8 -5 359 7 c 2
 359 7 356.8 24.4 354.7 48 c 1
EndSplineSet
LCarets2: 1 0 
EndChar

StartChar: uni1E10
Encoding: 7696 7696 145
Width: 734
Flags: HW
HStem: -226 24<271.315 301.976> -123 82<276.324 341.34> -2 34<15.9238 91.0861 203.681 417.647> 613 34<15.9238 91.0861 206.921 373.9>
VStem: 106 85<43.9064 600.097> 343 39<-177.408 -99.958> 562 96<179.249 422.825>
LayerCount: 2
Fore
SplineSet
254 119 m 2
 254 52 280 40 350 40 c 0
 426 40 535 102 535 284 c 0
 535 435 513 604 316 604 c 0
 280 604 254 584 254 529 c 2
 254 119 l 2
185 0 m 0
 145 0 31 -2 31 -2 c 1
 21 4 21 26 31 32 c 1
 86 35 114 39 114 122 c 2
 114 523 l 2
 114 606 86 610 31 613 c 1
 21 619 21 641 31 647 c 1
 31 647 145 645 185 645 c 0
 225 645 267 646 320 646 c 0
 566 646 686 494 686 309 c 0
 686 207.4 653 124 605 82 c 0
 534.3 20.2 434.5 -2 347 -2 c 0
 307 -2 225 0 185 0 c 0
316 -51 m 0
 348 -51 388 -66 388 -129 c 0
 388 -186 336 -226 268 -238 c 1
 258 -232 258 -222 262 -210 c 1
 302 -199 327 -175 327 -157 c 0
 327 -137 306 -136 298 -134 c 0
 276 -129 265 -114 265 -89 c 0
 265 -72 293 -51 316 -51 c 0
EndSplineSet
LCarets2: 1 0 
EndChar

StartChar: uni1E11
Encoding: 7697 7697 146
Width: 561
Flags: HW
HStem: -10 47<182.748 279.881> 30 27<444.892 500.639> 404 35<187.076 307.036> 641 30<277.065 335.38> 678 20<402.5 419.5>
VStem: 39 86<108.084 310.695> 345 79<80.6055 373.206 422.001 635.885>
LayerCount: 2
Fore
SplineSet
226 -51 m 0
 258 -51 298 -66 298 -129 c 0
 298 -186 246 -226 178 -238 c 1
 168 -232 168 -222 172 -210 c 1
 212 -199 237 -175 237 -157 c 0
 237 -137 216 -136 208 -134 c 0
 186 -129 175 -114 175 -89 c 0
 175 -72 203 -51 226 -51 c 0
351.6 94.8 m 1
 351.2 103.4 351 111.9 351 120 c 2
 351 366.2 l 1
 326.7 399.3 302.2 402 276 402 c 0
 245.7 402 218.5 386.1 202 359 c 0
 183.1 328 177 282.3 177 229 c 0
 177 112 216 56 266 56 c 0
 277.7 56 330.5 77.9 351.6 94.8 c 1
354.7 48 m 1
 346 48 l 1
 325 34 251 -10 224 -10 c 0
 168.2 -10 143 4 107 32 c 0
 58.4 69.8 37 138.5 37 198 c 0
 37 331 150 444 279 444 c 0
 307.9 444 331.9 439.4 351 432.6 c 1
 351 563 l 2
 351 632 346 633 283 638 c 1
 278 647 277 660 280 672 c 1
 351 675 431 686 468 698 c 1
 477 698 484 694 484 685 c 2
 484 685 481 648 481 583 c 2
 481 133 l 2
 481 76 491.5 60.1 546 55 c 1
 548 49 550 29 548 23 c 1
 479 14 419 0 382 -10 c 1
 368 -10 359.8 -5 359 7 c 2
 359 7 356.8 24.4 354.7 48 c 1
EndSplineSet
LCarets2: 1 0 
EndChar

StartChar: uni1E12
Encoding: 7698 7698 147
Width: 734
VWidth: 999
Flags: HW
HStem: -2 34<25.6167 94.4056> -2 42<269.225 426.596> 604 42<268.527 415.668> 613 34<25.6167 94.4056>
VStem: 114 140<54.7283 590.272> 535 151<175.935 431.978>
LayerCount: 2
Fore
SplineSet
305 -62 m 1
 335 -111 373 -155 410 -196 c 1
 385 -215 l 1
 342 -189 313 -169 278 -132 c 1
 240 -171 212 -189 172 -215 c 1
 147 -196 l 1
 183 -155 223 -110 253 -62 c 1
 305 -62 l 1
254 119 m 2
 254 52 280 40 350 40 c 0
 426 40 535 102 535 284 c 0
 535 435 513 604 316 604 c 0
 280 604 254 584 254 529 c 2
 254 119 l 2
185 0 m 0
 145 0 31 -2 31 -2 c 1
 21 4 21 26 31 32 c 1
 86 35 114 39 114 122 c 2
 114 523 l 2
 114 606 86 610 31 613 c 1
 21 619 21 641 31 647 c 1
 31 647 145 645 185 645 c 0
 225 645 267 646 320 646 c 0
 566 646 686 494 686 309 c 0
 686 207.4 653 124 605 82 c 0
 534.3 20.2 434.5 -2 347 -2 c 0
 307 -2 225 0 185 0 c 0
EndSplineSet
LCarets2: 1 0 
EndChar

StartChar: uni1E13
Encoding: 7699 7699 148
Width: 561
VWidth: 999
Flags: HW
HStem: -10 66<218.255 282.926> 23 32<498.156 547.438> 402 42<223.616 337.044> 638 34<280.144 340.885> 678 20<449.5 472.5>
VStem: 37 140<106.967 294.34> 351 130<67.3603 359 411 631.337>
LayerCount: 2
Fore
SplineSet
254 -62 m 1
 284 -111 322 -155 359 -196 c 1
 334 -215 l 1
 291 -189 262 -169 227 -132 c 1
 189 -171 161 -189 121 -215 c 1
 96 -196 l 1
 132 -155 172 -110 202 -62 c 1
 254 -62 l 1
351.6 94.8 m 1
 351.2 103.4 351 111.9 351 120 c 2
 351 366.2 l 1
 326.7 399.3 302.2 402 276 402 c 0
 245.7 402 218.5 386.1 202 359 c 0
 183.1 328 177 282.3 177 229 c 0
 177 112 216 56 266 56 c 0
 277.7 56 330.5 77.9 351.6 94.8 c 1
354.7 48 m 1
 346 48 l 1
 325 34 251 -10 224 -10 c 0
 168.2 -10 143 4 107 32 c 0
 58.4 69.8 37 138.5 37 198 c 0
 37 331 150 444 279 444 c 0
 307.9 444 331.9 439.4 351 432.6 c 1
 351 563 l 2
 351 632 346 633 283 638 c 1
 278 647 277 660 280 672 c 1
 351 675 431 686 468 698 c 1
 477 698 484 694 484 685 c 2
 484 685 481 648 481 583 c 2
 481 133 l 2
 481 76 491.5 60.1 546 55 c 1
 548 49 550 29 548 23 c 1
 479 14 419 0 382 -10 c 1
 368 -10 359.8 -5 359 7 c 2
 359 7 356.8 24.4 354.7 48 c 1
EndSplineSet
LCarets2: 1 0 
EndChar

StartChar: uni1E14
Encoding: 7700 7700 149
Width: 609
VWidth: 999
Flags: HW
HStem: -2 34<11.77 85.9433> 0 42<249.172 454.205> 319 46<242 399.554> 603 42<249.747 438.219> 613 34<12.2578 85.9433> 666.5 105.6 738 50<160.182 470.647>
VStem: -17.6 163.2 102 140<48.1312 319 365 596.345> 158 315<738.682 787.598> 414 43<252.086 303.875 376.375 431.914> 525 45<116.761 167.944>
LayerCount: 2
Fore
SplineSet
31.7 894.4 m 1
 12.5 883.8 -8.4 864.5 -18.4 846 c 1
 -16.1 835.4 l 1
 94.8 784.4 l 2
 105.6 779.1 114.9 778.2 121.8 778.2 c 0
 128.7 778.2 137.2 784.4 137.2 791.4 c 0
 137.2 797.6 137.2 802.9 129.5 809.9 c 0
 113.3 825.7 62.5 869.8 31.7 894.4 c 1
323 365 m 2
 390 365 411 374 414 429 c 1
 420 435 451 435 457 429 c 1
 456 399 455 376.5 455 343 c 0
 455 308.7 456 290 457 255 c 1
 451 249 420 249 414 255 c 1
 411 300 392 319 323 319 c 2
 242 319 l 1
 242 90 l 2
 242 63 261 42 283 42 c 2
 384 42 l 2
 460 42 505 98 525 170 c 1
 538.1 173.2 559.6 171 570 165 c 1
 562 114 557 48 543 -2 c 1
 543 -2 453 0 405 0 c 2
 170 0 l 1
 170 0 64 -1 15 -2 c 1
 9 4 9 26 15 32 c 1
 85 35 102 39 102 122 c 2
 102 522 l 2
 102 605 85 610 15 613 c 1
 9 619 9 641 15 647 c 1
 65 646 169 645 169 645 c 1
 464 645 l 2
 488 645 496 646 513 649 c 0
 516 649 517 648 517 646 c 0
 519 638 524 542 529 501 c 1
 519.2 496.3 498.4 494.2 486 496 c 1
 464 565 443 603 368 603 c 2
 283 603 l 2
 259 603 242 578 242 554 c 2
 242 365 l 1
 323 365 l 2
447 738 m 2
 173 738 l 2
 162 738 158 747 158 756 c 0
 158 768 170 788 183 788 c 2
 459 788 l 2
 469 788 473 779 473 771 c 0
 473 758 461 738 447 738 c 2
EndSplineSet
LCarets2: 1 0 
EndChar

StartChar: uni1E15
Encoding: 7701 7701 150
Width: 489
VWidth: 999
Flags: HW
HStem: -10 86<216.546 345.445> 235 40<172 310> 402 42<205.631 284.483> 543 50<87.1816 397.647>
VStem: 37 130<127.941 235 275 306.352> 85 315<543.682 592.598> 310 127<259 366.741>
LayerCount: 2
Fore
SplineSet
228.2 774.6 m 1
 283.4 663 l 2
 286.6 656.7 290.6 646.8 290.6 639.6 c 0
 290.6 631.5 284.2 625.2 277 625.2 c 0
 270.6 625.2 262.6 629.7 249 643.2 c 2
 152.2 737.7 l 1
 153.8 747.6 l 1
 160.2 755.7 183.4 776.4 212.2 776.4 c 0
 216.2 776.4 225 775.5 228.2 774.6 c 1
374 543 m 2
 100 543 l 2
 89 543 85 552 85 561 c 0
 85 573 97 593 110 593 c 2
 386 593 l 2
 396 593 400 584 400 576 c 0
 400 563 388 543 374 543 c 2
177 275 m 1
 313 275 l 1
 315 277 315 290 315 296 c 0
 315 376 278 402 251 402 c 0
 239.7 402 212.9 391.8 197 368 c 0
 183.4 347.7 178 310 177 275 c 1
431 129 m 1
 441 129 446 111 446 98 c 1
 396 25 328 -10 259 -10 c 0
 187.9 -10 138.6 5.9 101 40 c 0
 58.2 78.8 37 139.5 37 198 c 0
 37 351 157 444 262 444 c 0
 409 444 442 351 442 266 c 0
 442 252 437 235 413 235 c 2
 173 235 l 1
 173 230 172 226 172 219 c 0
 172 121 220 76 298 76 c 0
 336 76 390 87 431 129 c 1
EndSplineSet
LCarets2: 1 0 
EndChar

StartChar: uni1E16
Encoding: 7702 7702 151
Width: 609
VWidth: 999
Flags: HW
HStem: -2 34<11.77 85.9433> 0 42<249.172 454.205> 319 46<242 399.554> 603 42<249.747 438.219> 613 34<12.2578 85.9433> 738 50<103.182 413.647> 777.9 116.2
VStem: 101 315<738.682 787.598> 102 140<48.1312 319 365 596.345> 414 43<252.086 303.875 376.375 431.914> 429.6 155.5 525 45<116.761 167.944>
LayerCount: 2
Fore
SplineSet
535.1 894.1 m 1
 554.2 883.9 575.2 863.7 585.1 845.6 c 1
 582.8 835.1 l 1
 472 784 l 2
 460.9 778.9 451.9 777.9 445 777.9 c 0
 438.1 777.9 429.6 784.1 429.6 791.1 c 0
 429.6 797.3 429.8 802.3 437.3 809.6 c 0
 453.5 825.4 504.3 869.5 535.1 894.1 c 1
323 365 m 2
 390 365 411 374 414 429 c 1
 420 435 451 435 457 429 c 1
 456 399 455 376.5 455 343 c 0
 455 308.7 456 290 457 255 c 1
 451 249 420 249 414 255 c 1
 411 300 392 319 323 319 c 2
 242 319 l 1
 242 90 l 2
 242 63 261 42 283 42 c 2
 384 42 l 2
 460 42 505 98 525 170 c 1
 538.1 173.2 559.6 171 570 165 c 1
 562 114 557 48 543 -2 c 1
 543 -2 453 0 405 0 c 2
 170 0 l 1
 170 0 64 -1 15 -2 c 1
 9 4 9 26 15 32 c 1
 85 35 102 39 102 122 c 2
 102 522 l 2
 102 605 85 610 15 613 c 1
 9 619 9 641 15 647 c 1
 65 646 169 645 169 645 c 1
 464 645 l 2
 488 645 496 646 513 649 c 0
 516 649 517 648 517 646 c 0
 519 638 524 542 529 501 c 1
 519.2 496.3 498.4 494.2 486 496 c 1
 464 565 443 603 368 603 c 2
 283 603 l 2
 259 603 242 578 242 554 c 2
 242 365 l 1
 323 365 l 2
390 738 m 2
 116 738 l 2
 105 738 101 747 101 756 c 0
 101 768 113 788 126 788 c 2
 402 788 l 2
 412 788 416 779 416 771 c 0
 416 758 404 738 390 738 c 2
EndSplineSet
LCarets2: 1 0 
EndChar

StartChar: uni1E17
Encoding: 7703 7703 152
Width: 489
VWidth: 999
Flags: HW
HStem: -10 86<216.546 345.445> 235 40<172 310> 402 42<205.631 284.483> 543 50<87.1816 397.647>
VStem: 37 130<127.941 235 275 306.352> 85 315<543.682 592.598> 310 127<259 366.741>
LayerCount: 2
Fore
SplineSet
274 778.6 m 1
 276.4 779.5 282.8 780.4 286.8 780.4 c 0
 310.8 780.4 326 767.8 332.4 758.8 c 1
 340.4 738.1 l 1
 244.4 640.9 l 2
 233.2 630.1 222 626.5 214 626.5 c 0
 207.6 626.5 201.2 633.7 201.2 639.1 c 0
 201.2 644.5 202.8 652.6 207.6 660.7 c 2
 274 778.6 l 1
374 543 m 2
 100 543 l 2
 89 543 85 552 85 561 c 0
 85 573 97 593 110 593 c 2
 386 593 l 2
 396 593 400 584 400 576 c 0
 400 563 388 543 374 543 c 2
177 275 m 1
 313 275 l 1
 315 277 315 290 315 296 c 0
 315 376 278 402 251 402 c 0
 239.7 402 212.9 391.8 197 368 c 0
 183.4 347.7 178 310 177 275 c 1
431 129 m 1
 441 129 446 111 446 98 c 1
 396 25 328 -10 259 -10 c 0
 187.9 -10 138.6 5.9 101 40 c 0
 58.2 78.8 37 139.5 37 198 c 0
 37 351 157 444 262 444 c 0
 409 444 442 351 442 266 c 0
 442 252 437 235 413 235 c 2
 173 235 l 1
 173 230 172 226 172 219 c 0
 172 121 220 76 298 76 c 0
 336 76 390 87 431 129 c 1
EndSplineSet
LCarets2: 1 0 
EndChar

StartChar: uni1E18
Encoding: 7704 7704 153
Width: 609
VWidth: 999
Flags: HW
HStem: -2 34<11.77 85.9433> 0 42<249.172 454.205> 319 46<242 399.554> 603 42<249.747 438.219> 613 34<12.2578 85.9433>
VStem: 102 140<48.1312 319 365 596.345> 414 43<252.086 303.875 376.375 431.914> 525 45<116.761 167.944>
LayerCount: 2
Fore
SplineSet
313 -62 m 1
 343 -111 381 -155 418 -196 c 1
 393 -215 l 1
 350 -189 321 -169 286 -132 c 1
 248 -171 220 -189 180 -215 c 1
 155 -196 l 1
 191 -155 231 -110 261 -62 c 1
 313 -62 l 1
323 365 m 2
 390 365 411 374 414 429 c 1
 420 435 451 435 457 429 c 1
 456 399 455 376.5 455 343 c 0
 455 308.7 456 290 457 255 c 1
 451 249 420 249 414 255 c 1
 411 300 392 319 323 319 c 2
 242 319 l 1
 242 90 l 2
 242 63 261 42 283 42 c 2
 384 42 l 2
 460 42 505 98 525 170 c 1
 538.1 173.2 559.6 171 570 165 c 1
 562 114 557 48 543 -2 c 1
 543 -2 453 0 405 0 c 2
 170 0 l 1
 170 0 64 -1 15 -2 c 1
 9 4 9 26 15 32 c 1
 85 35 102 39 102 122 c 2
 102 522 l 2
 102 605 85 610 15 613 c 1
 9 619 9 641 15 647 c 1
 65 646 169 645 169 645 c 1
 464 645 l 2
 488 645 496 646 513 649 c 0
 516 649 517 648 517 646 c 0
 519 638 524 542 529 501 c 1
 519.2 496.3 498.4 494.2 486 496 c 1
 464 565 443 603 368 603 c 2
 283 603 l 2
 259 603 242 578 242 554 c 2
 242 365 l 1
 323 365 l 2
EndSplineSet
LCarets2: 1 0 
EndChar

StartChar: uni1E19
Encoding: 7705 7705 154
Width: 489
VWidth: 999
Flags: HW
HStem: -10 86<216.546 345.445> 235 40<172 310> 402 42<205.631 284.483>
VStem: 37 130<127.941 235 275 306.352> 310 127<259 366.741>
AnchorPoint: "top_akzent" 231 645 basechar 0
LayerCount: 2
Fore
SplineSet
280 -62 m 1
 310 -111 348 -155 385 -196 c 1
 360 -215 l 1
 317 -189 288 -169 253 -132 c 1
 215 -171 187 -189 147 -215 c 1
 122 -196 l 1
 158 -155 198 -110 228 -62 c 1
 280 -62 l 1
177 275 m 1
 313 275 l 1
 315 277 315 290 315 296 c 0
 315 376 278 402 251 402 c 0
 239.7 402 212.9 391.8 197 368 c 0
 183.4 347.7 178 310 177 275 c 1
431 129 m 1
 441 129 446 111 446 98 c 1
 396 25 328 -10 259 -10 c 0
 187.9 -10 138.6 5.9 101 40 c 0
 58.2 78.8 37 139.5 37 198 c 0
 37 351 157 444 262 444 c 0
 409 444 442 351 442 266 c 0
 442 252 437 235 413 235 c 2
 173 235 l 1
 173 230 172 226 172 219 c 0
 172 121 220 76 298 76 c 0
 336 76 390 87 431 129 c 1
EndSplineSet
LCarets2: 1 0 
EndChar

StartChar: uni1E1A
Encoding: 7706 7706 155
Width: 609
VWidth: 999
Flags: HW
HStem: -179 70<285.399 386.905> -141 71<178.858 278.467> -2 34<11.77 85.9433> 0 42<249.172 454.205> 319 46<242 399.554> 603 42<249.747 438.219> 613 34<12.2578 85.9433>
VStem: 102 140<48.1312 319 365 596.345> 139 26<-176.135 -154.021> 400 28<-88.702 -72.882> 414 43<252.086 303.875 376.375 431.914> 525 45<116.761 167.944>
LayerCount: 2
Fore
SplineSet
351 -109 m 0
 365 -109 386 -102 400 -66 c 1
 414 -66 428 -74 428 -86 c 1
 411 -144 374 -179 337 -179 c 0
 314 -179 292 -173 272 -158 c 1
 252 -145 232 -141 214 -141 c 0
 192 -141 176 -143 165 -181 c 1
 153 -181 139 -177 139 -163 c 1
 155 -112 187 -70 222 -70 c 0
 253 -70 276 -79 296 -95 c 0
 314 -109 340 -109 351 -109 c 0
323 365 m 2
 390 365 411 374 414 429 c 1
 420 435 451 435 457 429 c 1
 456 399 455 376.5 455 343 c 0
 455 308.7 456 290 457 255 c 1
 451 249 420 249 414 255 c 1
 411 300 392 319 323 319 c 2
 242 319 l 1
 242 90 l 2
 242 63 261 42 283 42 c 2
 384 42 l 2
 460 42 505 98 525 170 c 1
 538.1 173.2 559.6 171 570 165 c 1
 562 114 557 48 543 -2 c 1
 543 -2 453 0 405 0 c 2
 170 0 l 1
 170 0 64 -1 15 -2 c 1
 9 4 9 26 15 32 c 1
 85 35 102 39 102 122 c 2
 102 522 l 2
 102 605 85 610 15 613 c 1
 9 619 9 641 15 647 c 1
 65 646 169 645 169 645 c 1
 464 645 l 2
 488 645 496 646 513 649 c 0
 516 649 517 648 517 646 c 0
 519 638 524 542 529 501 c 1
 519.2 496.3 498.4 494.2 486 496 c 1
 464 565 443 603 368 603 c 2
 283 603 l 2
 259 603 242 578 242 554 c 2
 242 365 l 1
 323 365 l 2
EndSplineSet
LCarets2: 1 0 
EndChar

StartChar: uni1E1B
Encoding: 7707 7707 156
Width: 489
VWidth: 999
Flags: HW
HStem: -187 70<237.399 338.905> -149 71<130.858 230.467> -10 86<216.546 345.445> 235 40<172 310> 402 42<205.631 284.483>
VStem: 37 130<127.941 235 275 306.352> 91 26<-184.135 -162.021> 310 127<259 366.741> 352 28<-96.702 -80.882>
AnchorPoint: "top_akzent" 231 645 basechar 0
LayerCount: 2
Fore
SplineSet
303 -117 m 0
 317 -117 338 -110 352 -74 c 1
 366 -74 380 -82 380 -94 c 1
 363 -152 326 -187 289 -187 c 0
 266 -187 244 -181 224 -166 c 1
 204 -153 184 -149 166 -149 c 0
 144 -149 128 -151 117 -189 c 1
 105 -189 91 -185 91 -171 c 1
 107 -120 139 -78 174 -78 c 0
 205 -78 228 -87 248 -103 c 0
 266 -117 292 -117 303 -117 c 0
177 275 m 1
 313 275 l 1
 315 277 315 290 315 296 c 0
 315 376 278 402 251 402 c 0
 239.7 402 212.9 391.8 197 368 c 0
 183.4 347.7 178 310 177 275 c 1
431 129 m 1
 441 129 446 111 446 98 c 1
 396 25 328 -10 259 -10 c 0
 187.9 -10 138.6 5.9 101 40 c 0
 58.2 78.8 37 139.5 37 198 c 0
 37 351 157 444 262 444 c 0
 409 444 442 351 442 266 c 0
 442 252 437 235 413 235 c 2
 173 235 l 1
 173 230 172 226 172 219 c 0
 172 121 220 76 298 76 c 0
 336 76 390 87 431 129 c 1
EndSplineSet
LCarets2: 1 0 
EndChar

StartChar: uni1E1C
Encoding: 7708 7708 157
Width: 609
VWidth: 999
Flags: HW
HStem: -215 29<188.923 287.52> -2 34<11.77 85.9433> 0 42<249.172 454.205> 319 46<242 399.554> 603 42<249.747 438.219> 613 34<12.2578 85.9433> 705 74<235.883 380.873>
VStem: 102 140<48.1312 319 365 596.345> 174 28<808.109 830.75> 298 62.9<-177.416 -114.388> 414 43<252.086 303.875 376.375 431.914> 418 27<810.51 830.778> 525 45<116.761 167.944>
LayerCount: 2
Fore
SplineSet
209 -101 m 1
 203 -95 l 1
 250.5 0 l 1
 170 0 l 1
 170 0 64 -1 15 -2 c 1
 9 4 9 26 15 32 c 1
 85 35 102 39 102 122 c 2
 102 522 l 2
 102 605 85 610 15 613 c 1
 9 619 9 641 15 647 c 1
 65 646 169 645 169 645 c 1
 464 645 l 2
 488 645 496 646 513 649 c 0
 516 649 517 648 517 646 c 0
 519 638 524 542 529 501 c 1
 519.2 496.3 498.4 494.2 486 496 c 1
 464 565 443 603 368 603 c 2
 283 603 l 2
 259 603 242 578 242 554 c 2
 242 365 l 1
 323 365 l 2
 390 365 411 374 414 429 c 1
 420 435 451 435 457 429 c 1
 456 399 455 376.5 455 343 c 0
 455 308.7 456 290 457 255 c 1
 451 249 420 249 414 255 c 1
 411 300 392 319 323 319 c 2
 242 319 l 1
 242 90 l 2
 242 63 261 42 283 42 c 2
 384 42 l 2
 460 42 505 98 525 170 c 1
 538.1 173.2 559.6 171 570 165 c 1
 562 114 557 48 543 -2 c 1
 543 -2 453 0 405 0 c 2
 285.1 0 l 1
 268 -41 l 1
 313.4 -50.1 360.9 -70.5 360.9 -125.1 c 0
 360.9 -175.3 308.8 -215 244 -215 c 0
 212 -215 203 -210.2 180 -198 c 1
 180 -188 180.9 -176.2 190 -172 c 1
 217 -182 228 -186 248 -186 c 0
 278 -186 298 -172 298 -145 c 0
 298 -107.4 245 -103 209 -101 c 1
445 830 m 1
 439 759 376 705 310 705 c 0
 237 705 179 760 174 830 c 1
 202 833 l 1
 210 794 257 779 310 779 c 0
 359 779 411 794 418 833 c 1
 445 830 l 1
EndSplineSet
LCarets2: 1 0 
EndChar

StartChar: uni1E1D
Encoding: 7709 7709 158
Width: 489
VWidth: 999
Flags: HW
HStem: -220 29<142.923 241.52> -10 86<216.546 345.445> 235 40<172 310> 402 42<205.631 284.483> 514 74<169.021 312.577>
VStem: 37 130<127.941 235 275 306.352> 102 33<621.43 659.121> 252 62.9<-182.416 -119.388> 310 127<259 366.741> 350 32<624.913 659.188>
LayerCount: 2
Fore
SplineSet
135 667 m 1
 137 613 180 588 243 588 c 0
 290 588 347 603 350 667 c 1
 382 657 l 1
 372 552 294 514 243 514 c 0
 162 514 109 576 102 657 c 1
 135 667 l 1
163 -106 m 1
 157 -100 l 1
 203.9 -6.2 l 1
 161.1 0.4 128 15.5 101 40 c 0
 58.2 78.8 37 139.5 37 198 c 0
 37 351 157 444 262 444 c 0
 409 444 442 351 442 266 c 0
 442 252 437 235 413 235 c 2
 173 235 l 1
 173 230 172 226 172 219 c 0
 172 121 220 76 298 76 c 0
 336 76 390 87 431 129 c 1
 441 129 446 111 446 98 c 1
 396 25 328 -10 259 -10 c 0
 251.5 -10 244.2 -9.9 237.2 -9.5 c 1
 222 -46 l 1
 267.4 -55.1 314.9 -75.5 314.9 -130.1 c 0
 314.9 -180.3 262.8 -220 198 -220 c 0
 166 -220 157 -215.2 134 -203 c 1
 134 -193 134.9 -181.2 144 -177 c 1
 171 -187 182 -191 202 -191 c 0
 232 -191 252 -177 252 -150 c 0
 252 -112.4 199 -108 163 -106 c 1
177 275 m 1
 313 275 l 1
 315 277 315 290 315 296 c 0
 315 376 278 402 251 402 c 0
 239.7 402 212.9 391.8 197 368 c 0
 183.4 347.7 178 310 177 275 c 1
EndSplineSet
LCarets2: 1 0 
EndChar

StartChar: uni1E1E
Encoding: 7710 7710 159
Width: 545
VWidth: 999
Flags: HW
HStem: -2 34<13.6167 82.4056 266.36 340.383> 299 46<242 399.554> 603 42<249.747 443.163> 613 34<12.2578 85.9433> 709 124<250.2 343.8>
VStem: 102 140<50.5764 299 345 596.345> 235 124<724.2 817.8> 414 43<232.086 283.875 356.375 411.914> 496 35<493.32 535.012>
LayerCount: 2
Fore
SplineSet
235 771 m 0
 235 805 263 833 297 833 c 0
 331 833 359 805 359 771 c 0
 359 737 331 709 297 709 c 0
 263 709 235 737 235 771 c 0
242 122 m 2
 242 39 280 35 335 32 c 1
 345 26 345 4 335 -2 c 1
 295 -1 213 0 173 0 c 0
 133 0 59 -1 19 -2 c 1
 9 4 9 26 19 32 c 1
 74 35 102 39 102 122 c 2
 102 522 l 2
 102 605 85 610 15 613 c 1
 9 619 9 641 15 647 c 1
 65 646 169 645 169 645 c 1
 466 645 l 2
 490 645 498 646 515 649 c 0
 518 649 518.7 648 519 646 c 0
 520.3 637.7 528.3 539.7 531 496 c 1
 521.2 491.3 508.4 489.2 496 491 c 1
 474 560 448 603 373 603 c 2
 283 603 l 2
 259 603 242 578 242 554 c 2
 242 345 l 1
 323 345 l 2
 390 345 411 354 414 409 c 1
 420 415 451 415 457 409 c 1
 455.5 380 455 345.5 455 323 c 0
 455 300 455 270 457 235 c 1
 451 229 420 229 414 235 c 1
 411 280 392 299 323 299 c 2
 242 299 l 1
 242 122 l 2
EndSplineSet
LCarets2: 1 0 
EndChar

StartChar: uni1E1F
Encoding: 7711 7711 160
Width: 391
VWidth: 999
Flags: HW
HStem: -2 34<19.77 83.2627 246.737 310.23> 384 50<23 100 230 351> 656 42<259.305 366.57> 749 124<240.2 333.8>
VStem: 100 130<44.1813 384 434 565.649> 225 124<764.2 857.8> 321 128<580.527 654.671>
LayerCount: 2
Fore
SplineSet
225 811 m 0
 225 845 253 873 287 873 c 0
 321 873 349 845 349 811 c 0
 349 777 321 749 287 749 c 0
 253 749 225 777 225 811 c 0
230 128 m 2
 230 44 246 35 307 32 c 1
 313 26 313 4 307 -2 c 1
 264 -1 220 0 165 0 c 0
 110 0 65 -1 23 -2 c 1
 17 4 17 26 23 32 c 1
 84 35 100 44 100 126 c 2
 100 384 l 1
 50 384 l 2
 27 384 23 387 23 394 c 2
 23 421 l 2
 23 429 64 434 98 434 c 2
 100 434 l 1
 100 454 l 2
 100 550 134 600 171 640 c 0
 209 681 265 698 312 698 c 0
 418 698 449 651 449 624 c 0
 449 581 425 560 392 560 c 0
 356 560 330 585 321 617 c 0
 314 641 310 656 293 656 c 0
 271 656 230 634 230 485 c 2
 230 434 l 1
 331 434 l 2
 350 434 351 430 351 424 c 2
 351 401 l 2
 351 389 334 384 316 384 c 2
 230 384 l 1
 230 128 l 2
EndSplineSet
LCarets2: 1 0 
EndChar

StartChar: uni1E20
Encoding: 7712 7712 161
Width: 732
VWidth: 999
Flags: HW
HStem: -10 42<316.533 488.572> 271 37<432.77 504.783 660.223 700.23> 616 42<296.386 484.632> 770 50<243.182 553.647>
VStem: 33 151<189.05 437.31> 241 315<770.682 819.598> 514 140<78.4212 261.096> 602 44<456.261 503.722>
LayerCount: 2
Fore
SplineSet
530 770 m 2
 256 770 l 2
 245 770 241 779 241 788 c 0
 241 800 253 820 266 820 c 2
 542 820 l 2
 552 820 556 811 556 803 c 0
 556 790 544 770 530 770 c 2
395 658 m 0
 519.5 658 572.5 623 625 623 c 1
 632 551 637 501 646 459 c 1
 634 453 618 451 602 453 c 1
 577 539 510.5 616 381 616 c 0
 328 616 273 595 234 542 c 0
 197 491 184 413 184 327 c 0
 184 195 238 32 407 32 c 0
 458 32 482 42 514 74 c 1
 514 223 l 2
 514 263 488 267 436 271 c 1
 430 277 430 302 436 308 c 1
 481 307 547 306 584 306 c 0
 622 306 669 307 697 308 c 1
 703 302 703 277 697 271 c 1
 669 268 654 258 654 223 c 2
 654 106 l 2
 654 95 659 87 669 78 c 1
 605 24 497 -10 385 -10 c 0
 280 -10 201 12 138 66 c 0
 69 124 33 217 33 307 c 0
 33 415 72 505 139 565 c 0
 208 627 297 658 395 658 c 0
EndSplineSet
LCarets2: 1 0 
EndChar

StartChar: uni1E21
Encoding: 7713 7713 162
Width: 521
VWidth: 999
Flags: HW
HStem: -238 42<164.509 334.426> -25 94<146.499 365.612> 142 38<192.516 272.803> 406 38<182.587 266.209> 543 50<98.1816 408.647>
VStem: 11 109<-154.71 -66.8839> 44 99<58.4478 119> 46 120<221.128 367.201> 96 315<543.682 592.598> 290 122<217.225 367.083> 400 101<-121.848 -51.5623>
LayerCount: 2
Fore
SplineSet
385 543 m 2
 111 543 l 2
 100 543 96 552 96 561 c 0
 96 573 108 593 121 593 c 2
 397 593 l 2
 407 593 411 584 411 576 c 0
 411 563 399 543 385 543 c 2
290 288 m 0
 290 367 270 406 223 406 c 0
 184 406 166 379 166 305 c 0
 166 254 174 180 236 180 c 0
 262 180 290 192 290 288 c 0
175 -25 m 0
 154 -25 141 -23 131 -19 c 1
 120 -39 120 -62 120 -96 c 0
 120 -147 165 -196 231 -196 c 0
 269.3 -196 320 -193.9 351 -176.4 c 0
 383.9 -157.8 400 -117.2 400 -81 c 0
 400 -27.8 251.8 -25 175 -25 c 0
467 394 m 0
 442 394 424 415 420 428 c 1
 417 434 410 440 401 440 c 0
 391 440 358 422 350 412 c 1
 384 384 412 347 412 291 c 0
 412 246.1 391.8 210.5 363 185 c 0
 328.9 154.8 282 142 231 142 c 0
 200 142 178.5 143 157.5 153 c 1
 152.5 141 143 127 143 111 c 0
 143 71 170 69 188 69 c 0
 261.5 69 412.3 62 451 36 c 0
 491.3 8.9 501 -33.6 501 -55 c 0
 501 -165 342 -238 203 -238 c 0
 155.1 -238 88.7 -232.1 50 -205 c 0
 22.5 -185.7 11 -143 11 -106 c 0
 11 -89 55 -32 98 -6 c 1
 78.4 0.4 66.2 8.2 57 22 c 0
 47 37 44 48.9 44 68 c 0
 44 88.2 92 141 123 167.5 c 1
 75 194 46 247 46 296 c 0
 46 347.3 73.4 385.6 114 412 c 0
 147.1 433.5 188.9 444 232 444 c 0
 277 444 298 442 316 432 c 1
 345 458 403 491 447 491 c 0
 485 491 511 462 511 443 c 0
 511 406 495 394 467 394 c 0
EndSplineSet
LCarets2: 1 0 
EndChar

StartChar: uni1E22
Encoding: 7714 7714 163
Width: 817
VWidth: 999
Flags: HW
HStem: -2 34<25.6167 94.4056 273.594 342.383 475.617 544.406 723.594 792.383> 319 48<254 564> 613 34<25.6167 94.4056 273.594 342.383 475.617 544.406 723.594 792.383> 709 124<360.2 453.8>
VStem: 114 140<47 319 367 598> 345 124<724.2 817.8> 564 140<47 319 367 598>
LayerCount: 2
Fore
SplineSet
345 771 m 0
 345 805 373 833 407 833 c 0
 441 833 469 805 469 771 c 0
 469 737 441 709 407 709 c 0
 373 709 345 737 345 771 c 0
564 523 m 2
 564 606 536 610 481 613 c 1
 471 619 471 641 481 647 c 1
 521 646 595 645 635 645 c 0
 675 645 747 646 787 647 c 1
 797 641 797 619 787 613 c 1
 732 610 704 606 704 523 c 2
 704 122 l 2
 704 39 732 35 787 32 c 1
 797 26 797 4 787 -2 c 1
 747 -1 675 0 635 0 c 0
 595 0 521 -1 481 -2 c 1
 471 4 471 26 481 32 c 1
 536 35 564 39 564 122 c 2
 564 319 l 1
 254 319 l 1
 254 122 l 2
 254 39 282 35 337 32 c 1
 347 26 347 4 337 -2 c 1
 297 -1 225 0 185 0 c 0
 145 0 71 -1 31 -2 c 1
 21 4 21 26 31 32 c 1
 86 35 114 39 114 122 c 2
 114 523 l 2
 114 606 86 610 31 613 c 1
 21 619 21 641 31 647 c 1
 71 646 145 645 185 645 c 0
 225 645 297 646 337 647 c 1
 347 641 347 619 337 613 c 1
 282 610 254 606 254 523 c 2
 254 367 l 1
 564 367 l 1
 564 523 l 2
EndSplineSet
LCarets2: 1 0 
EndChar

StartChar: uni1E23
Encoding: 7715 7715 164
Width: 619
VWidth: 999
Flags: HW
HStem: -2 34<19.77 83.2627 243.609 290.23 337.77 384.004 544.737 608.23> 370 74<322.213 438> 511 128<320.302 420.126 320.302 420.126> 640 32<29.1436 89.8851> 678 20<198.5 221.5>
VStem: 100 130<44.1062 331 371 633.241> 229 1<331 371> 304 135<529.993 621.845 529.993 621.845> 398 130<44.1813 351.585>
LayerCount: 2
Fore
SplineSet
304 577 m 0
 304 607 327 639 374 639 c 0
 416 639 439 603 439 573 c 0
 439 547 413 511 368 511 c 0
 328 511 304 544 304 577 c 0
528 128 m 2
 528 44 544 35 605 32 c 1
 611 26 611 4 605 -2 c 1
 562 -1 518.4 0 463 0 c 0
 415.4 0 383 -1 341 -2 c 1
 335 4 335 26 341 32 c 1
 382 35 398 44 398 128 c 2
 398 295 l 2
 398 352 363 370 323 370 c 0
 305.1 370 271.5 358.1 230 331.6 c 1
 230 127 l 2
 230 44 245 35 287 32 c 1
 293 26 293 4 287 -2 c 1
 244 -1 212.6 0 165 0 c 0
 109.6 0 65 -1 23 -2 c 1
 17 4 17 26 23 32 c 1
 84 35 100 44 100 127 c 2
 100 565 l 2
 100 633.6 95 635 32 640 c 1
 27 649 26 660 29 672 c 1
 100 675 180 686 217 698 c 1
 226 698 233 694 233 685 c 2
 233 685 230 648 230 583 c 2
 230 371.6 l 1
 286.8 407.4 358.2 444 395 444 c 0
 481 444 528 394 528 284 c 2
 528 128 l 2
EndSplineSet
LCarets2: 1 0 
EndChar

StartChar: uni1E24
Encoding: 7716 7716 165
Width: 817
VWidth: 999
Flags: HW
HStem: -202 128<356.302 456.126 356.302 456.126> -2 34<25.6167 94.4056 273.594 342.383 475.617 544.406 723.594 792.383> 319 48<254 564> 613 34<25.6167 94.4056 273.594 342.383 475.617 544.406 723.594 792.383>
VStem: 114 140<47 319 367 598> 340 135<-183.007 -91.155 -183.007 -91.155> 564 140<47 319 367 598>
LayerCount: 2
Fore
SplineSet
564 523 m 2
 564 606 536 610 481 613 c 1
 471 619 471 641 481 647 c 1
 521 646 595 645 635 645 c 0
 675 645 747 646 787 647 c 1
 797 641 797 619 787 613 c 1
 732 610 704 606 704 523 c 2
 704 122 l 2
 704 39 732 35 787 32 c 1
 797 26 797 4 787 -2 c 1
 747 -1 675 0 635 0 c 0
 595 0 521 -1 481 -2 c 1
 471 4 471 26 481 32 c 1
 536 35 564 39 564 122 c 2
 564 319 l 1
 254 319 l 1
 254 122 l 2
 254 39 282 35 337 32 c 1
 347 26 347 4 337 -2 c 1
 297 -1 225 0 185 0 c 0
 145 0 71 -1 31 -2 c 1
 21 4 21 26 31 32 c 1
 86 35 114 39 114 122 c 2
 114 523 l 2
 114 606 86 610 31 613 c 1
 21 619 21 641 31 647 c 1
 71 646 145 645 185 645 c 0
 225 645 297 646 337 647 c 1
 347 641 347 619 337 613 c 1
 282 610 254 606 254 523 c 2
 254 367 l 1
 564 367 l 1
 564 523 l 2
340 -136 m 0
 340 -106 363 -74 410 -74 c 0
 452 -74 475 -110 475 -140 c 0
 475 -166 449 -202 404 -202 c 0
 364 -202 340 -169 340 -136 c 0
EndSplineSet
LCarets2: 1 0 
EndChar

StartChar: uni1E25
Encoding: 7717 7717 166
Width: 619
VWidth: 999
Flags: HW
HStem: -197 128<262.302 362.126 262.302 362.126> -2 34<19.77 83.2627 243.609 290.23 337.77 384.004 544.737 608.23> 370 74<322.213 438> 640 32<29.1436 89.8851> 678 20<198.5 221.5>
VStem: 100 130<44.1062 331 371 633.241> 229 1<331 371> 246 135<-178.007 -86.155 -178.007 -86.155> 398 130<44.1813 351.585>
LayerCount: 2
Fore
SplineSet
246 -131 m 0
 246 -101 269 -69 316 -69 c 0
 358 -69 381 -105 381 -135 c 0
 381 -161 355 -197 310 -197 c 0
 270 -197 246 -164 246 -131 c 0
528 128 m 2
 528 44 544 35 605 32 c 1
 611 26 611 4 605 -2 c 1
 562 -1 518.4 0 463 0 c 0
 415.4 0 383 -1 341 -2 c 1
 335 4 335 26 341 32 c 1
 382 35 398 44 398 128 c 2
 398 295 l 2
 398 352 363 370 323 370 c 0
 305.1 370 271.5 358.1 230 331.6 c 1
 230 127 l 2
 230 44 245 35 287 32 c 1
 293 26 293 4 287 -2 c 1
 244 -1 212.6 0 165 0 c 0
 109.6 0 65 -1 23 -2 c 1
 17 4 17 26 23 32 c 1
 84 35 100 44 100 127 c 2
 100 565 l 2
 100 633.6 95 635 32 640 c 1
 27 649 26 660 29 672 c 1
 100 675 180 686 217 698 c 1
 226 698 233 694 233 685 c 2
 233 685 230 648 230 583 c 2
 230 371.6 l 1
 286.8 407.4 358.2 444 395 444 c 0
 481 444 528 394 528 284 c 2
 528 128 l 2
EndSplineSet
LCarets2: 1 0 
EndChar

StartChar: uni1E26
Encoding: 7718 7718 167
Width: 817
Flags: HW
HStem: -2 34<25.6167 94.4056 273.594 342.383 475.617 544.406 723.594 792.383> 319 48<254 564> 613 34<25.6167 94.4056 273.594 342.383 475.617 544.406 723.594 792.383> 710 113<271.613 360.387 458.997 547.771>
VStem: 114 140<47 319 367 598> 260 112<721.613 811.003> 447 112<721.613 811.003> 564 140<47 319 367 598>
LayerCount: 2
Fore
SplineSet
260 766 m 0
 260 798 284 823 316 823 c 0
 348 823 372 798 372 766 c 0
 372 734 348 710 316 710 c 0
 284 710 260 734 260 766 c 0
447 766 m 0
 447 798 472 823 504 823 c 0
 536 823 559 798 559 766 c 0
 559 734 536 710 504 710 c 0
 472 710 447 734 447 766 c 0
564 523 m 2
 564 606 536 610 481 613 c 1
 471 619 471 641 481 647 c 1
 521 646 595 645 635 645 c 0
 675 645 747 646 787 647 c 1
 797 641 797 619 787 613 c 1
 732 610 704 606 704 523 c 2
 704 122 l 2
 704 39 732 35 787 32 c 1
 797 26 797 4 787 -2 c 1
 747 -1 675 0 635 0 c 0
 595 0 521 -1 481 -2 c 1
 471 4 471 26 481 32 c 1
 536 35 564 39 564 122 c 2
 564 319 l 1
 254 319 l 1
 254 122 l 2
 254 39 282 35 337 32 c 1
 347 26 347 4 337 -2 c 1
 297 -1 225 0 185 0 c 0
 145 0 71 -1 31 -2 c 1
 21 4 21 26 31 32 c 1
 86 35 114 39 114 122 c 2
 114 523 l 2
 114 606 86 610 31 613 c 1
 21 619 21 641 31 647 c 1
 71 646 145 645 185 645 c 0
 225 645 297 646 337 647 c 1
 347 641 347 619 337 613 c 1
 282 610 254 606 254 523 c 2
 254 367 l 1
 564 367 l 1
 564 523 l 2
EndSplineSet
LCarets2: 1 0 
EndChar

StartChar: uni1E27
Encoding: 7719 7719 168
Width: 619
VWidth: 999
Flags: HW
HStem: -2 34<19.77 83.2627 243.609 290.23 337.77 384.004 544.737 608.23> 370 74<322.213 438> 517 108<280.772 365.537 421.274 504.403> 640 32<29.1436 89.8851> 678 20<198.5 221.5>
VStem: 100 130<44.1062 331 371 633.241> 229 1<331 371> 269 108<528.772 613.228> 398 130<44.1813 351.585> 409 108<530.463 614.612>
LayerCount: 2
Fore
SplineSet
409 573 m 0
 409 602 433 626 463 626 c 0
 492 626 517 602 517 573 c 0
 517 543 492 519 463 519 c 0
 433 519 409 543 409 573 c 0
269 571 m 0
 269 600 294 625 323 625 c 0
 353 625 377 600 377 571 c 0
 377 542 353 517 323 517 c 0
 294 517 269 542 269 571 c 0
528 128 m 2
 528 44 544 35 605 32 c 1
 611 26 611 4 605 -2 c 1
 562 -1 518.4 0 463 0 c 0
 415.4 0 383 -1 341 -2 c 1
 335 4 335 26 341 32 c 1
 382 35 398 44 398 128 c 2
 398 295 l 2
 398 352 363 370 323 370 c 0
 305.1 370 271.5 358.1 230 331.6 c 1
 230 127 l 2
 230 44 245 35 287 32 c 1
 293 26 293 4 287 -2 c 1
 244 -1 212.6 0 165 0 c 0
 109.6 0 65 -1 23 -2 c 1
 17 4 17 26 23 32 c 1
 84 35 100 44 100 127 c 2
 100 565 l 2
 100 633.6 95 635 32 640 c 1
 27 649 26 660 29 672 c 1
 100 675 180 686 217 698 c 1
 226 698 233 694 233 685 c 2
 233 685 230 648 230 583 c 2
 230 371.6 l 1
 286.8 407.4 358.2 444 395 444 c 0
 481 444 528 394 528 284 c 2
 528 128 l 2
EndSplineSet
LCarets2: 1 0 
EndChar

StartChar: uni1E28
Encoding: 7720 7720 169
Width: 817
VWidth: 999
Flags: HW
HStem: -211 29<77.923 176.52> -2 34<25.6167 94.4056 273.594 342.383 475.617 544.406 723.594 792.383> 319 48<254 564> 613 34<25.6167 94.4056 273.594 342.383 475.617 544.406 723.594 792.383>
VStem: 114 140<47 319 367 598> 187 62.9<-173.416 -110.388> 564 140<47 319 367 598>
LayerCount: 2
Fore
SplineSet
564 523 m 2
 564 606 536 610 481 613 c 1
 471 619 471 641 481 647 c 1
 521 646 595 645 635 645 c 0
 675 645 747 646 787 647 c 1
 797 641 797 619 787 613 c 1
 732 610 704 606 704 523 c 2
 704 122 l 2
 704 39 732 35 787 32 c 1
 797 26 797 4 787 -2 c 1
 747 -1 675 0 635 0 c 0
 595 0 521 -1 481 -2 c 1
 471 4 471 26 481 32 c 1
 536 35 564 39 564 122 c 2
 564 319 l 1
 254 319 l 1
 254 122 l 2
 254 39 282 35 337 32 c 1
 347 26 347 4 337 -2 c 1
 297 -1 225 0 185 0 c 0
 181.1 0 176.9 0 172.4 -0 c 1
 157 -37 l 1
 202.4 -46.1 249.9 -66.5 249.9 -121.1 c 0
 249.9 -171.3 197.8 -211 133 -211 c 0
 101 -211 92 -206.2 69 -194 c 1
 69 -184 69.9 -172.2 79 -168 c 1
 106 -178 117 -182 137 -182 c 0
 167 -182 187 -168 187 -141 c 0
 187 -103.4 134 -99 98 -97 c 1
 92 -91 l 1
 137.4 -0.3 l 1
 100.4 -0.7 58 -1.3 31 -2 c 1
 21 4 21 26 31 32 c 1
 86 35 114 39 114 122 c 2
 114 523 l 2
 114 606 86 610 31 613 c 1
 21 619 21 641 31 647 c 1
 71 646 145 645 185 645 c 0
 225 645 297 646 337 647 c 1
 347 641 347 619 337 613 c 1
 282 610 254 606 254 523 c 2
 254 367 l 1
 564 367 l 1
 564 523 l 2
EndSplineSet
LCarets2: 1 0 
EndChar

StartChar: uni1E29
Encoding: 7721 7721 170
Width: 619
VWidth: 999
Flags: HW
HStem: -209 29<68.923 167.52> -2 34<19.77 83.2627 243.609 290.23 337.77 384.004 544.737 608.23> 370 74<322.213 438> 640 32<29.1436 89.8851> 678 20<198.5 221.5>
VStem: 100 130<44.1062 331 371 633.241> 178 62.9<-171.416 -108.388> 229 1<331 371> 398 130<44.1813 351.585>
LayerCount: 2
Fore
SplineSet
89 -95 m 1
 83 -89 l 1
 127.4 -0.2 l 1
 88.6 -0.5 55.1 -1.2 23 -2 c 1
 17 4 17 26 23 32 c 1
 84 35 100 44 100 127 c 2
 100 565 l 2
 100 633.6 95 635 32 640 c 1
 27 649 26 660 29 672 c 1
 100 675 180 686 217 698 c 1
 226 698 233 694 233 685 c 2
 233 685 230 648 230 583 c 2
 230 371.6 l 1
 286.8 407.4 358.2 444 395 444 c 0
 481 444 528 394 528 284 c 2
 528 128 l 2
 528 44 544 35 605 32 c 1
 611 26 611 4 605 -2 c 1
 562 -1 518.4 0 463 0 c 0
 415.4 0 383 -1 341 -2 c 1
 335 4 335 26 341 32 c 1
 382 35 398 44 398 128 c 2
 398 295 l 2
 398 352 363 370 323 370 c 0
 305.1 370 271.5 358.1 230 331.6 c 1
 230 127 l 2
 230 44 245 35 287 32 c 1
 293 26 293 4 287 -2 c 1
 244 -1 212.6 0 165 0 c 0
 164.2 0 163.4 0 162.6 -0 c 2
 148 -35 l 1
 193.4 -44.1 240.9 -64.5 240.9 -119.1 c 0
 240.9 -169.3 188.8 -209 124 -209 c 0
 92 -209 83 -204.2 60 -192 c 1
 60 -182 60.9 -170.2 70 -166 c 1
 97 -176 108 -180 128 -180 c 0
 158 -180 178 -166 178 -139 c 0
 178 -101.4 125 -97 89 -95 c 1
EndSplineSet
LCarets2: 1 0 
EndChar

StartChar: uni1E2A
Encoding: 7722 7722 171
Width: 817
VWidth: 999
Flags: HW
HStem: -214 74<335.021 478.577> -2 34<25.6167 94.4056 273.594 342.383 475.617 544.406 723.594 792.383> 319 48<254 564> 613 34<25.6167 94.4056 273.594 342.383 475.617 544.406 723.594 792.383>
VStem: 114 140<47 319 367 598> 268 33<-106.57 -68.879> 516 32<-103.087 -68.812> 564 140<47 319 367 598>
LayerCount: 2
Fore
SplineSet
564 523 m 2
 564 606 536 610 481 613 c 1
 471 619 471 641 481 647 c 1
 521 646 595 645 635 645 c 0
 675 645 747 646 787 647 c 1
 797 641 797 619 787 613 c 1
 732 610 704 606 704 523 c 2
 704 122 l 2
 704 39 732 35 787 32 c 1
 797 26 797 4 787 -2 c 1
 747 -1 675 0 635 0 c 0
 595 0 521 -1 481 -2 c 1
 471 4 471 26 481 32 c 1
 536 35 564 39 564 122 c 2
 564 319 l 1
 254 319 l 1
 254 122 l 2
 254 39 282 35 337 32 c 1
 347 26 347 4 337 -2 c 1
 297 -1 225 0 185 0 c 0
 145 0 71 -1 31 -2 c 1
 21 4 21 26 31 32 c 1
 86 35 114 39 114 122 c 2
 114 523 l 2
 114 606 86 610 31 613 c 1
 21 619 21 641 31 647 c 1
 71 646 145 645 185 645 c 0
 225 645 297 646 337 647 c 1
 347 641 347 619 337 613 c 1
 282 610 254 606 254 523 c 2
 254 367 l 1
 564 367 l 1
 564 523 l 2
301 -61 m 1
 303 -115 346 -140 409 -140 c 0
 456 -140 513 -125 516 -61 c 1
 548 -71 l 1
 538 -176 460 -214 409 -214 c 0
 328 -214 275 -152 268 -71 c 1
 301 -61 l 1
EndSplineSet
LCarets2: 1 0 
EndChar

StartChar: uni1E2B
Encoding: 7723 7723 172
Width: 619
VWidth: 999
Flags: HW
HStem: -224 74<228.021 371.577> -2 34<19.77 83.2627 243.609 290.23 337.77 384.004 544.737 608.23> 370 74<322.213 438> 640 32<29.1436 89.8851> 678 20<198.5 221.5>
VStem: 100 130<44.1062 331 371 633.241> 161 33<-116.57 -78.879> 229 1<331 371> 398 130<44.1813 351.585> 409 32<-113.087 -78.812>
LayerCount: 2
Fore
SplineSet
194 -71 m 1
 196 -125 239 -150 302 -150 c 0
 349 -150 406 -135 409 -71 c 1
 441 -81 l 1
 431 -186 353 -224 302 -224 c 0
 221 -224 168 -162 161 -81 c 1
 194 -71 l 1
528 128 m 2
 528 44 544 35 605 32 c 1
 611 26 611 4 605 -2 c 1
 562 -1 518.4 0 463 0 c 0
 415.4 0 383 -1 341 -2 c 1
 335 4 335 26 341 32 c 1
 382 35 398 44 398 128 c 2
 398 295 l 2
 398 352 363 370 323 370 c 0
 305.1 370 271.5 358.1 230 331.6 c 1
 230 127 l 2
 230 44 245 35 287 32 c 1
 293 26 293 4 287 -2 c 1
 244 -1 212.6 0 165 0 c 0
 109.6 0 65 -1 23 -2 c 1
 17 4 17 26 23 32 c 1
 84 35 100 44 100 127 c 2
 100 565 l 2
 100 633.6 95 635 32 640 c 1
 27 649 26 660 29 672 c 1
 100 675 180 686 217 698 c 1
 226 698 233 694 233 685 c 2
 233 685 230 648 230 583 c 2
 230 371.6 l 1
 286.8 407.4 358.2 444 395 444 c 0
 481 444 528 394 528 284 c 2
 528 128 l 2
EndSplineSet
EndChar

StartChar: uni1E2C
Encoding: 7724 7724 173
Width: 367
VWidth: 999
Flags: HW
HStem: -179 70<187.399 288.905> -141 71<80.8584 180.467> -2 34<25.6167 94.4056 273.594 342.383> 613 34<25.6167 94.4056 273.594 342.383>
VStem: 41 26<-176.135 -154.021> 114 140<47 598> 302 28<-88.702 -72.882>
AnchorPoint: "top_akzent" 146 850 basechar 0
LayerCount: 2
Fore
SplineSet
253 -109 m 0
 267 -109 288 -102 302 -66 c 1
 316 -66 330 -74 330 -86 c 1
 313 -144 276 -179 239 -179 c 0
 216 -179 194 -173 174 -158 c 1
 154 -145 134 -141 116 -141 c 0
 94 -141 78 -143 67 -181 c 1
 55 -181 41 -177 41 -163 c 1
 57 -112 89 -70 124 -70 c 0
 155 -70 178 -79 198 -95 c 0
 216 -109 242 -109 253 -109 c 0
114 523 m 2
 114 606 86 610 31 613 c 1
 21 619 21 641 31 647 c 1
 71 646 145 645 185 645 c 0
 225 645 297 646 337 647 c 1
 347 641 347 619 337 613 c 1
 282 610 254 606 254 523 c 2
 254 122 l 2
 254 39 282 35 337 32 c 1
 347 26 347 4 337 -2 c 1
 297 -1 225 0 185 0 c 0
 145 0 71 -1 31 -2 c 1
 21 4 21 26 31 32 c 1
 86 35 114 39 114 122 c 2
 114 523 l 2
EndSplineSet
LCarets2: 1 0 
EndChar

